<?xml version="1.0" encoding="utf-8"?>
<!-- Generator: Adobe Illustrator 16.0.0, SVG Export Plug-In . SVG Version: 6.00 Build 0)  -->
<!DOCTYPE svg PUBLIC "-//W3C//DTD SVG 1.1//EN" "http://www.w3.org/Graphics/SVG/1.1/DTD/svg11.dtd">
<svg version="1.1" id="Layer_1" xmlns="http://www.w3.org/2000/svg" xmlns:xlink="http://www.w3.org/1999/xlink" x="0px" y="0px"
	 width="533.423px" height="691px" viewBox="0 0 533.423 691" enable-background="new 0 0 533.423 691" xml:space="preserve">
<rect width="533.423" height="691"/>
<circle fill="#FFFFFF" cx="266.712" cy="17.692" r="230.076"/>
<circle fill="#FFFFFF" cx="491.939" cy="475.831" r="130.331"/>
<circle fill="#FFFFFF" cx="103.959" cy="611.817" r="173.829"/>
<g>
	<path fill="#010101" d="M207.275,544.602c-11.813-23.403-41.68-18.742-63.458-17.561c-25.153,1.363-50.355-0.359-75.504,1.5
		c-13.836,1.021-45.026,3.271-43.298,23.741c0.096,1.135,0.515,2.024,1.105,2.69c-6.99,9.433-4.824,25.774-4.732,36.407
		c0.162,18.725,2.122,37.385,2.317,56.102c0.025,2.365,1.669,4.867,4.094,5.377c27.942,5.858,55.622-1.541,83.7-2.082
		c29.409-0.564,59.151,6.233,88.709,6.492c2.357,0.021,4.709-1.672,5.264-4.009c4.791-20.233,7.01-40.797,7.451-61.57
		C213.232,577.045,214.115,558.152,207.275,544.602z M201.93,596.772c-0.382,16.645-2.484,33.229-6.067,49.479
		c-26.34-0.54-52.468-3.764-78.708-5.963c-27.649-2.319-54.831,7.011-82.393,2.529c-0.816-28.6-6.789-58.483-3.571-86.847
		c1.249-0.594,2.231-1.811,2.357-3.689c0.94-13.91,38.765-13.09,47.722-13.428c18.891-0.713,37.844,0.721,56.714-0.36
		c18.121-1.038,51.797-8.92,60.48,12.914C203.811,564.845,202.255,582.615,201.93,596.772z"/>
	<path fill="#010101" d="M113.543,558.208c-0.331-2.435-4.129-1.744-4.164,0.563c-0.352,23.312-7.419,45.855-5.944,69.236
		c0.302,4.78,7.751,4.821,7.473,0C109.558,604.599,116.718,581.583,113.543,558.208z"/>
	<path fill="#010101" d="M185.813,553.643c-0.396-1.289-1.542-2.224-2.915-2.22c-3.562,0.011-7.878-0.626-11.262,0.511
		c-1.271-0.027-2.059,1.117-2.088,2.354c-0.004,0.054-0.014,0.104-0.016,0.157c0.002,0.055,0.012,0.105,0.016,0.158
		c0.029,1.237,0.816,2.383,2.088,2.355c2.674,0.896,5.918,0.698,8.928,0.57c1.491,6.404,1.475,13.257,1.465,19.854
		c-3.88,0.006-7.761,0.018-11.641,0.078c-0.791-6.748-2.424-13.725-0.872-20.366c0.537-2.306-2.787-3.204-3.526-0.972
		c-2.591,7.824-0.904,16.227-1.154,24.286c-0.049,1.62,1.367,2.878,2.918,2.917c5.766,0.146,11.541,0.082,17.31,0.113
		c1.657,0.009,3.021-1.385,3.028-3.03C188.136,571.591,188.416,562.164,185.813,553.643z"/>
	<path fill="#010101" d="M185.062,597.683c-19.854-2.539-40.553-1.882-60.581-3.561c-1.601-0.135-1.978,2.593-0.38,2.812
		c19.553,2.668,41.257,7.362,60.962,5.146C187.91,601.76,187.871,598.041,185.062,597.683z"/>
	<path fill="#010101" d="M180.735,608.58c-16.43-1.205-33.312,0.356-49.764,0.849c-1.64,0.049-1.64,2.494,0,2.543
		c16.452,0.492,33.334,2.053,49.764,0.85C183.464,612.619,183.464,608.78,180.735,608.58z"/>
	<path fill="#010101" d="M185.062,623.194c-17.88-1.531-36.127-1.879-54.092-3.082c-1.572-0.104-1.932,2.474-0.373,2.76
		c17.382,3.186,36.824,6.859,54.465,5.623C188.492,628.254,188.457,623.485,185.062,623.194z"/>
</g>
<g>
	<g>
		<g>
			<path fill="#010101" d="M357.985,35.686c-11.353-4.055-27.165-1.622-38.923-1.216c-17.84,0.406-35.68,2.028-53.925,2.028
				c-17.434,0-34.869-1.622-51.898-4.46c-13.38-2.027-24.732-4.055-38.112-1.216c-2.028,0.405-2.838,2.027-2.433,3.648
				c-0.811-1.215-3.244-0.811-3.244,0.812c-3.244,34.463-2.027,69.737-2.432,104.199c0,20.274,4.054,23.517,23.921,25.139
				c34.464,2.838,69.333,4.055,103.794,3.649c15.814,0,32.438,0.405,47.845-1.623c6.893-0.811,12.975-1.216,17.434-7.298
				c4.866-6.082,4.459-15.812,5.27-23.11c1.622-15.812,2.433-31.22,2.433-47.032C367.715,77.043,373.393,41.364,357.985,35.686z
				 M349.877,153.672c-15.408,12.975-50.682,7.299-70.549,7.703c-23.92,0-47.842-0.404-71.763-2.027
				c-14.191-0.812-29.599,1.622-33.653-15.812c-2.027-9.326,0-22.3,0.406-32.031c0.406-25.543,1.622-50.682-0.406-76.226
				c0,0,0,0,0-0.405c0.812,1.216,2.028,2.433,3.649,2.027c23.921-4.055,49.06,5.271,72.981,6.083
				c21.895,0.81,43.382-1.217,65.276-2.028c8.517-0.405,26.355-4.055,34.465-1.217c14.19,5.271,10.946,26.355,10.946,38.113
				C360.418,97.721,364.878,141.104,349.877,153.672z"/>
			<path fill="#010101" d="M263.516,61.23c-0.405-2.433-4.054-2.838-4.054,0c-1.217,27.976,0,56.357,2.432,84.334
				c0.405,3.243,5.271,3.243,5.271,0C266.354,117.588,265.948,89.206,263.516,61.23z"/>
			<path fill="#010101" d="M340.146,81.909c-17.84-2.028-38.924,1.621-55.952,6.892c-2.029,0.405-1.623,4.055,0.405,3.65
				c18.65-2.433,37.707-3.65,55.951-6.893C342.983,85.151,342.174,81.909,340.146,81.909z"/>
			<path fill="#010101" d="M341.767,105.424c-15.002-2.837-34.058,2.838-48.249,6.893c-2.027,0.405-1.216,3.245,0.812,2.838
				c8.92-1.216,17.84-2.433,26.76-3.243c6.893-0.812,14.191-0.405,20.678-2.433C343.39,108.667,343.795,105.83,341.767,105.424z"/>
			<path fill="#010101" d="M342.174,127.319c-15.407-1.217-32.437,2.433-48.249,3.243c-2.027,0-2.027,3.245,0,3.245
				c15.408,0.812,34.058,2.433,49.06-1.622C345.823,131.374,345.011,127.319,342.174,127.319z"/>
			<path fill="#010101" d="M348.66,63.664c-0.404-4.055-0.81-8.109-1.216-12.164c0-1.216-1.216-2.433-2.433-2.433
				c-4.865,0.811-10.136,0.811-15.002,1.623c-0.811,0-1.621,0.81-2.027,1.215c-0.812,0-1.623,0.405-1.623,1.217
				c-0.404,5.676,0.406,11.353,0.406,17.434c0,1.216,1.217,2.433,2.433,2.433c3.649,0.405,7.703,0.405,11.352,0.405
				c2.433,0,5.676,0.406,7.301-1.622C349.877,69.339,348.66,66.096,348.66,63.664z M343.39,68.123
				c-0.406,0.405-4.866-0.405-5.676-0.405c-2.433,0-4.46,0-6.892,0c-1.217-4.055-1.622-8.109-1.622-12.569h0.405
				c4.459-0.405,8.515-1.216,12.975-1.622c0,2.027,0.404,4.054,0.404,5.676C343.39,60.826,344.199,67.718,343.39,68.123z"/>
			<path fill="#EF4223" d="M204.725,53.933c-3.244,0.812-6.082,2.432-8.515,4.46c-2.027-2.028-4.459-3.245-6.892-4.055
				c-3.244-0.811-5.677,2.433-4.055,5.676c1.621,3.243,4.055,5.676,7.297,7.298c0,0,0,0,0,0.406
				c0.406,1.621,1.217,2.432,2.433,2.837c0.812,1.216,2.433,1.622,4.055,1.216c5.271-1.216,8.92-8.108,10.136-13.379
				C209.591,55.554,207.563,53.122,204.725,53.933z"/>
		</g>
	</g>
</g>
<g>
	<g>
		<g>
			<path fill="#010101" d="M403.608,520.157c6.991,2.62,16.728,1.048,23.969,0.786c10.986-0.263,21.972-1.31,33.207-1.31
				c10.736,0,21.473,1.047,31.959,2.882c8.239,1.31,15.23,2.619,23.47,0.785c1.248-0.262,1.748-1.311,1.498-2.357
				c0.499,0.785,1.998,0.523,1.998-0.525c1.997-22.27,1.248-45.064,1.497-67.334c0-13.101-2.497-15.196-14.73-16.245
				c-21.223-1.833-42.695-2.619-63.917-2.358c-9.738,0-19.975-0.261-29.463,1.049c-4.244,0.523-7.989,0.786-10.736,4.717
				c-2.996,3.931-2.746,10.219-3.245,14.934c-0.998,10.219-1.497,20.175-1.497,30.393
				C397.617,493.432,394.121,516.488,403.608,520.157z M408.602,443.913c9.488-8.384,31.21-4.717,43.444-4.978
				c14.73,0,29.461,0.261,44.192,1.31c8.739,0.524,18.228-1.048,20.724,10.218c1.248,6.026,0,14.411-0.25,20.699
				c-0.25,16.506-0.998,32.751,0.25,49.258c0,0,0,0,0,0.262c-0.5-0.786-1.248-1.572-2.247-1.31
				c-14.73,2.62-30.211-3.406-44.942-3.931c-13.483-0.524-26.715,0.786-40.197,1.311c-5.245,0.261-16.229,2.62-21.223,0.786
				c-8.738-3.406-6.74-17.031-6.74-24.629C402.11,480.069,399.363,452.034,408.602,443.913z"/>
			<path fill="#010101" d="M461.783,504.617c0.25,1.498,2.497,1.748,2.497,0c0.75-17.228,0-34.705-1.498-51.933
				c-0.25-1.997-3.246-1.997-3.246,0C460.035,469.912,460.285,487.39,461.783,504.617z"/>
			<path fill="#010101" d="M415.425,493.99c10.985,1.249,23.969-0.998,34.455-4.244c1.25-0.25,1-2.497-0.249-2.248
				c-11.485,1.499-23.221,2.248-34.454,4.245C413.679,491.993,414.177,493.99,415.425,493.99z"/>
			<path fill="#010101" d="M414.427,479.51c9.238,1.747,20.973-1.748,29.712-4.244c1.248-0.25,0.749-1.998-0.5-1.748
				c-5.493,0.749-10.986,1.498-16.479,1.996c-4.245,0.501-8.739,0.251-12.733,1.499C413.427,477.513,413.178,479.26,414.427,479.51z
				"/>
			<path fill="#010101" d="M414.177,466.027c9.487,0.749,19.974-1.499,29.711-1.998c1.249,0,1.249-1.998,0-1.998
				c-9.488-0.5-20.973-1.498-30.211,0.999C411.929,463.53,412.429,466.027,414.177,466.027z"/>
			<path fill="#010101" d="M492.435,456.83c0.314,2.497,0.629,4.993,0.944,7.49c0,0.75,0.945,1.499,1.889,1.499
				c3.778-0.5,7.871-0.5,11.65-1c0.63,0,1.258-0.499,1.573-0.748c0.632,0,1.261-0.25,1.261-0.749
				c0.314-3.496-0.315-6.991-0.315-10.736c0-0.749-0.945-1.498-1.889-1.498c-2.833-0.249-5.982-0.249-8.815-0.249
				c-1.889,0-4.409-0.251-5.669,0.998C491.49,453.335,492.435,455.332,492.435,456.83z M496.527,454.084
				c0.315-0.249,3.778,0.25,4.407,0.25c1.89,0,3.464,0,5.353,0c0.945,2.497,1.259,4.994,1.259,7.74h-0.313
				c-3.462,0.249-6.611,0.749-10.076,0.998c0-1.247-0.314-2.496-0.314-3.495C496.527,458.577,495.899,454.333,496.527,454.084z"/>
			<path fill="#010101" d="M474.886,479.817c10.985,1.249,23.969-0.998,34.456-4.244c1.249-0.25,0.999-2.497-0.25-2.248
				c-11.484,1.499-23.22,2.248-34.454,4.245C473.14,477.82,473.638,479.817,474.886,479.817z"/>
			<path fill="#010101" d="M474.886,490.56c10.985,1.249,23.969-0.998,34.455-4.244c1.249-0.25,0.999-2.497-0.249-2.248
				c-11.485,1.499-23.221,2.248-34.454,4.245C473.14,488.562,473.638,490.56,474.886,490.56z"/>
		</g>
	</g>
</g>
<text transform="matrix(1 0 0 1 67.999 321.8706)"><tspan x="0" y="0" fill="#EF4323" font-family="'NewsCycle'" font-size="16.6551">say hi with a postcard</tspan><tspan x="0" y="19.986" fill="#B2B3B3" font-family="'NewsCycle'" font-size="16.6551">send me a pyisical postcard for free</tspan></text>
</svg>
