<?xml version="1.0" encoding="utf-8"?>
<!-- Generator: Adobe Illustrator 16.0.0, SVG Export Plug-In . SVG Version: 6.00 Build 0)  -->
<!DOCTYPE svg PUBLIC "-//W3C//DTD SVG 1.1//EN" "http://www.w3.org/Graphics/SVG/1.1/DTD/svg11.dtd">
<svg version="1.1" id="Capa_1" xmlns="http://www.w3.org/2000/svg" xmlns:xlink="http://www.w3.org/1999/xlink" x="0px" y="0px"
	 width="145.504px" height="98.469px" viewBox="0 0 145.504 98.469" enable-background="new 0 0 145.504 98.469"
	 xml:space="preserve">
<g>
	<g>
		<g>
			<path fill="none" stroke="#331E36" stroke-width="0.5" stroke-miterlimit="10" d="M132.998,20.018
				c0.402,0,0.728-0.326,0.728-0.728v-2.766c0-0.402-0.325-0.728-0.728-0.728c-0.803,0-1.457-0.653-1.457-1.456
				c0-0.402-0.325-0.728-0.727-0.728h-2.796c-0.401,0-0.728,0.326-0.728,0.728c0,0.802-0.653,1.456-1.456,1.456
				c-0.804,0-1.456-0.653-1.456-1.456c0-0.402-0.326-0.728-0.727-0.728h-2.795c-0.402,0-0.729,0.326-0.729,0.728
				c0,0.802-0.653,1.456-1.456,1.456c-0.804,0-1.456-0.653-1.456-1.456c0-0.402-0.326-0.728-0.729-0.728h-2.795
				c-0.401,0-0.727,0.326-0.727,0.728c0,0.802-0.652,1.456-1.456,1.456s-1.456-0.653-1.456-1.456c0-0.402-0.326-0.728-0.729-0.728
				h-2.795c-0.401,0-0.727,0.326-0.727,0.728c0,0.802-0.652,1.456-1.456,1.456c-0.803,0-1.456-0.653-1.456-1.456
				c0-0.402-0.326-0.728-0.729-0.728h-2.795c-0.401,0-0.728,0.326-0.728,0.728c0,0.802-0.651,1.456-1.455,1.456
				c-0.401,0-0.728,0.326-0.728,0.728v2.767c0,0.402,0.326,0.728,0.728,0.728c0.802,0,1.455,0.653,1.455,1.456
				c0,0.803-0.651,1.456-1.455,1.456c-0.401,0-0.728,0.326-0.728,0.727v2.766c0,0.402,0.326,0.728,0.728,0.728
				c0.802,0,1.455,0.653,1.455,1.456c0,0.802-0.651,1.456-1.455,1.456c-0.401,0-0.728,0.326-0.728,0.728v2.766
				c0,0.401,0.326,0.728,0.728,0.728c0.802,0,1.455,0.652,1.455,1.457c0,0.801-0.651,1.455-1.455,1.455
				c-0.401,0-0.728,0.326-0.728,0.729v2.766c0,0.402,0.326,0.729,0.728,0.729c0.802,0,1.455,0.652,1.455,1.455
				c0,0.402,0.327,0.729,0.728,0.729h2.795c0.402,0,0.727-0.324,0.729-0.725c0.002-0.801,0.655-1.452,1.456-1.452
				c0.8,0,1.453,0.651,1.455,1.452c0.001,0.4,0.327,0.725,0.728,0.725h2.795c0.402,0,0.728-0.324,0.729-0.725
				c0.003-0.801,0.655-1.452,1.456-1.452c0.8,0,1.453,0.651,1.456,1.452c0.001,0.4,0.327,0.725,0.729,0.725h2.795
				c0.4,0,0.726-0.324,0.728-0.725c0.002-0.801,0.655-1.452,1.456-1.452s1.454,0.651,1.456,1.452c0.001,0.4,0.327,0.725,0.728,0.725
				h2.795c0.401,0,0.727-0.324,0.728-0.725c0.003-0.801,0.655-1.452,1.456-1.452s1.453,0.651,1.456,1.452
				c0.001,0.4,0.327,0.725,0.728,0.725h2.795c0.402,0,0.729-0.326,0.729-0.729c0-0.803,0.652-1.455,1.455-1.455
				c0.402,0,0.729-0.326,0.729-0.729v-2.766c0-0.402-0.326-0.727-0.729-0.727c-0.803,0-1.455-0.653-1.455-1.457
				c0-0.803,0.652-1.455,1.455-1.455c0.402,0,0.729-0.326,0.729-0.729v-2.766c0-0.402-0.326-0.728-0.729-0.728
				c-0.803,0-1.455-0.653-1.455-1.456c0-0.802,0.652-1.456,1.455-1.456c0.402,0,0.729-0.326,0.729-0.728V23.66
				c0-0.402-0.326-0.728-0.729-0.728c-0.803,0-1.455-0.653-1.455-1.456C131.543,20.671,132.195,20.018,132.998,20.018z
				 M132.27,24.293v1.494c-1.254,0.324-2.183,1.465-2.183,2.819s0.929,2.495,2.183,2.819v1.495
				c-1.254,0.324-2.183,1.465-2.183,2.818c0,1.354,0.929,2.495,2.183,2.819v1.494c-1.021,0.264-1.828,1.069-2.091,2.091h-1.524
				c-0.328-1.25-1.468-2.176-2.817-2.176c-1.349,0-2.49,0.926-2.816,2.176h-1.528c-0.326-1.25-1.467-2.176-2.815-2.176
				s-2.49,0.926-2.817,2.176h-1.527c-0.326-1.25-1.467-2.176-2.816-2.176s-2.49,0.926-2.816,2.176h-1.527
				c-0.327-1.25-1.467-2.176-2.817-2.176c-1.35,0-2.489,0.926-2.817,2.176h-1.525c-0.264-1.021-1.068-1.828-2.091-2.091v-1.494
				c1.254-0.324,2.183-1.465,2.183-2.819c0-1.354-0.929-2.494-2.183-2.818v-1.495c1.254-0.324,2.183-1.464,2.183-2.819
				c0-1.354-0.929-2.495-2.183-2.819v-1.494c1.254-0.324,2.183-1.465,2.183-2.819s-0.929-2.495-2.183-2.818v-1.495
				c1.021-0.264,1.827-1.069,2.091-2.091h1.523c0.324,1.254,1.465,2.184,2.818,2.184s2.496-0.929,2.819-2.184h1.522
				c0.324,1.254,1.465,2.184,2.819,2.184s2.495-0.929,2.819-2.184h1.523c0.323,1.254,1.465,2.184,2.817,2.184
				c1.354,0,2.495-0.929,2.819-2.184h1.523c0.324,1.254,1.465,2.184,2.818,2.184s2.494-0.929,2.818-2.184h1.524
				c0.263,1.021,1.069,1.828,2.091,2.091v1.495c-1.254,0.324-2.183,1.464-2.183,2.818S131.016,23.969,132.27,24.293z"/>
			<path fill="#F9F9F9" stroke="#331E36" stroke-width="0.5" stroke-miterlimit="10" d="M127.904,18.708h-25.619
				c-0.401,0-0.728,0.326-0.728,0.728v18.341c0,0.402,0.326,0.729,0.728,0.729h25.619c0.401,0,0.728-0.326,0.728-0.729v-18.34
				C128.632,19.034,128.305,18.708,127.904,18.708z M103.013,37.049v-3.43l7.313-5.995c0.287-0.234,0.808-0.234,1.093,0
				l11.499,9.424H103.013L103.013,37.049z M127.176,37.049L127.176,37.049h-1.961l-12.872-10.55c-0.824-0.675-2.114-0.675-2.938,0
				l-6.392,5.238V20.164h24.163V37.049L127.176,37.049z"/>
			<path fill="#FFA20D" stroke="#331E36" stroke-width="0.5" stroke-miterlimit="10" d="M121.554,24.501
				c-1.366,0-2.479,1.112-2.479,2.479c0,1.367,1.112,2.479,2.479,2.479s2.479-1.112,2.479-2.479
				C124.033,25.613,122.921,24.501,121.554,24.501z M121.554,28.004c-0.563,0-1.022-0.459-1.022-1.024s0.459-1.024,1.022-1.024
				c0.565,0,1.024,0.46,1.024,1.024S122.117,28.004,121.554,28.004z"/>
			<path fill="#195DAF" stroke="#331E36" stroke-width="0.5" stroke-miterlimit="10" d="M121.279,23.075h3.713
				c0.402,0,0.729-0.326,0.729-0.728c0-0.401-0.326-0.728-0.729-0.728h-3.713c-0.402,0-0.729,0.327-0.729,0.728
				C120.551,22.749,120.877,23.075,121.279,23.075z"/>
			<path fill="#195DAF" stroke="#331E36" stroke-width="0.5" stroke-miterlimit="10" d="M119.17,23.075h0.018
				c0.402,0,0.729-0.326,0.729-0.728s-0.327-0.728-0.729-0.728h-0.018c-0.402,0-0.729,0.326-0.729,0.728
				S118.768,23.075,119.17,23.075z"/>
			<path fill="#1F6EB5" stroke="#331E36" stroke-width="0.5" stroke-miterlimit="10" d="M109.137,33.983h-3.714
				c-0.402,0-0.728,0.326-0.728,0.729c0,0.4,0.325,0.728,0.728,0.728h3.715c0.401,0,0.728-0.325,0.728-0.728
				S109.539,33.983,109.137,33.983z"/>
			<path fill="#1F6EB5" stroke="#331E36" stroke-width="0.5" stroke-miterlimit="10" d="M111.228,33.983
				c-0.401,0-0.727,0.326-0.727,0.729s0.325,0.728,0.727,0.728h0.019c0.402,0,0.728-0.327,0.728-0.728
				c0-0.401-0.325-0.729-0.728-0.729H111.228z"/>
		</g>
	</g>
</g>
<path fill="none" stroke="#331E36" stroke-miterlimit="10" d="M144.182,68.678c0,14.852-11.187,26.893-24.989,26.893H28.313
	c-13.801,0-24.99-12.041-24.99-26.893V29.461c0-14.853,11.188-26.893,24.99-26.893h90.879c13.803,0,24.989,12.041,24.989,26.893
	V68.678z"/>
<path fill="#331E36" d="M120.972,91.982c-0.279-0.174-0.648-0.262-1.017-0.262c-0.369,0-0.736,0.088-1.017,0.262l-5.332,3.305h4.067
	l3.298-2.045C121.534,92.895,121.534,92.332,120.972,91.982z"/>
<path fill="#331E36" d="M100.839,91.982c-0.279-0.174-0.648-0.262-1.018-0.262c-0.368,0-0.735,0.088-1.016,0.262l-5.332,3.305h4.067
	l3.297-2.045C101.401,92.895,101.401,92.332,100.839,91.982z"/>
<path fill="#331E36" d="M80.711,91.982c-0.28-0.174-0.649-0.262-1.017-0.262c-0.369,0-0.737,0.088-1.018,0.262l-5.331,3.305h4.067
	l3.297-2.045C81.272,92.895,81.272,92.332,80.711,91.982z"/>
<path fill="#331E36" d="M110.905,91.982c-0.28-0.174-0.648-0.262-1.016-0.262c-0.369,0-0.736,0.088-1.018,0.262l-5.331,3.305h4.067
	l3.297-2.045C111.468,92.895,111.468,92.332,110.905,91.982z"/>
<path fill="#331E36" d="M90.772,91.982c-0.281-0.174-0.648-0.262-1.018-0.262c-0.367,0-0.736,0.088-1.018,0.262l-5.33,3.305h4.066
	l3.299-2.045C91.334,92.895,91.334,92.332,90.772,91.982z"/>
<path fill="#331E36" d="M71.162,91.982c-0.28-0.174-0.648-0.262-1.017-0.262s-0.736,0.088-1.017,0.262l-5.331,3.305h4.067
	l3.297-2.045C71.725,92.895,71.725,92.332,71.162,91.982z"/>
<path fill="#331E36" d="M71.564,91.982c-0.279-0.174-0.647-0.262-1.017-0.262c-0.368,0-0.736,0.088-1.017,0.262L64.2,95.287h4.067
	l3.297-2.045C72.128,92.895,72.128,92.33,71.564,91.982z"/>
<path fill="#331E36" d="M61.499,91.982c-0.28-0.174-0.649-0.262-1.017-0.262c-0.369,0-0.736,0.088-1.017,0.262l-5.331,3.305h4.067
	l3.297-2.045C62.061,92.895,62.061,92.33,61.499,91.982z"/>
<path fill="#331E36" d="M41.366,91.982c-0.28-0.174-0.649-0.262-1.017-0.262c-0.369,0-0.736,0.088-1.017,0.262l-5.331,3.305h4.067
	l3.297-2.045C41.928,92.895,41.928,92.33,41.366,91.982z"/>
<path fill="#331E36" d="M51.433,91.982c-0.281-0.174-0.649-0.262-1.017-0.262s-0.736,0.088-1.017,0.262l-5.331,3.305h4.067
	l3.298-2.045C51.995,92.895,51.995,92.33,51.433,91.982z"/>
<path fill="#331E36" d="M31.3,91.982c-0.281-0.174-0.648-0.262-1.017-0.262c-0.368,0-0.736,0.088-1.017,0.262l-5.331,3.305h4.067
	l3.298-2.045C31.862,92.895,31.862,92.33,31.3,91.982z"/>
<path fill="#331E36" d="M25.716,5.873c0.279,0.174,0.648,0.262,1.017,0.262c0.369,0,0.736-0.088,1.017-0.262l5.332-3.305h-4.067
	l-3.298,2.044C25.153,4.96,25.153,5.523,25.716,5.873z"/>
<path fill="#331E36" d="M45.849,5.873c0.279,0.174,0.648,0.262,1.018,0.262c0.368,0,0.735-0.088,1.016-0.262l5.332-3.305h-4.067
	L45.85,4.612C45.286,4.96,45.286,5.523,45.849,5.873z"/>
<path fill="#331E36" d="M65.976,5.873c0.28,0.174,0.649,0.262,1.017,0.262c0.369,0,0.737-0.088,1.018-0.262l5.332-3.305h-4.068
	l-3.297,2.044C65.415,4.96,65.415,5.523,65.976,5.873z"/>
<path fill="#331E36" d="M35.782,5.873c0.28,0.174,0.648,0.262,1.016,0.262c0.369,0,0.736-0.088,1.018-0.262l5.331-3.305h-4.067
	l-3.297,2.044C35.22,4.96,35.22,5.523,35.782,5.873z"/>
<path fill="#331E36" d="M55.915,5.873c0.281,0.174,0.648,0.262,1.018,0.262c0.367,0,0.736-0.088,1.018-0.262l5.33-3.305h-4.066
	l-3.299,2.044C55.354,4.96,55.354,5.523,55.915,5.873z"/>
<path fill="#331E36" d="M75.525,5.873c0.28,0.174,0.647,0.262,1.017,0.262s0.736-0.088,1.018-0.262l5.331-3.305h-4.067l-3.297,2.044
	C74.963,4.96,74.963,5.523,75.525,5.873z"/>
<path fill="#331E36" d="M75.123,5.873c0.279,0.174,0.647,0.262,1.017,0.262c0.367,0,0.735-0.088,1.017-0.262l5.331-3.305H78.42
	l-3.297,2.044C74.56,4.96,74.56,5.525,75.123,5.873z"/>
<path fill="#331E36" d="M85.188,5.873c0.28,0.174,0.648,0.262,1.017,0.262c0.369,0,0.736-0.088,1.018-0.262l5.331-3.305h-4.067
	l-3.297,2.044C84.626,4.96,84.626,5.525,85.188,5.873z"/>
<path fill="#331E36" d="M105.321,5.873c0.28,0.174,0.649,0.262,1.017,0.262c0.369,0,0.736-0.088,1.018-0.262l5.331-3.305h-4.067
	l-3.297,2.044C104.76,4.96,104.76,5.525,105.321,5.873z"/>
<path fill="#331E36" d="M95.254,5.873c0.281,0.174,0.649,0.262,1.018,0.262s0.735-0.088,1.017-0.262l5.331-3.305h-4.066
	l-3.299,2.044C94.692,4.96,94.692,5.525,95.254,5.873z"/>
<path fill="#331E36" d="M115.388,5.873c0.28,0.174,0.647,0.262,1.017,0.262c0.368,0,0.736-0.088,1.017-0.262l5.331-3.305h-4.066
	l-3.298,2.044C114.825,4.96,114.825,5.525,115.388,5.873z"/>
</svg>
