<?xml version="1.0" encoding="utf-8"?>
<!-- Generator: Adobe Illustrator 16.0.0, SVG Export Plug-In . SVG Version: 6.00 Build 0)  -->
<!DOCTYPE svg PUBLIC "-//W3C//DTD SVG 1.1//EN" "http://www.w3.org/Graphics/SVG/1.1/DTD/svg11.dtd">
<svg version="1.1" id="Capa_1" xmlns="http://www.w3.org/2000/svg" xmlns:xlink="http://www.w3.org/1999/xlink" x="0px" y="0px"
	 width="145.504px" height="98.469px" viewBox="0 0 145.504 98.469" enable-background="new 0 0 145.504 98.469"
	 xml:space="preserve">
<g>
	<g>
		<g>
			<path fill="none" stroke="#331E36" stroke-width="0.5" stroke-miterlimit="10" d="M133.998,20.018
				c0.402,0,0.728-0.326,0.728-0.728v-2.766c0-0.402-0.325-0.728-0.728-0.728c-0.803,0-1.457-0.653-1.457-1.456
				c0-0.402-0.325-0.728-0.727-0.728h-2.796c-0.401,0-0.728,0.326-0.728,0.728c0,0.802-0.653,1.456-1.456,1.456
				c-0.804,0-1.456-0.653-1.456-1.456c0-0.402-0.326-0.728-0.727-0.728h-2.795c-0.402,0-0.729,0.326-0.729,0.728
				c0,0.802-0.653,1.456-1.456,1.456c-0.804,0-1.456-0.653-1.456-1.456c0-0.402-0.326-0.728-0.729-0.728h-2.795
				c-0.401,0-0.727,0.326-0.727,0.728c0,0.802-0.652,1.456-1.456,1.456s-1.456-0.653-1.456-1.456c0-0.402-0.326-0.728-0.729-0.728
				h-2.795c-0.401,0-0.727,0.326-0.727,0.728c0,0.802-0.652,1.456-1.456,1.456c-0.803,0-1.456-0.653-1.456-1.456
				c0-0.402-0.326-0.728-0.729-0.728h-2.795c-0.401,0-0.728,0.326-0.728,0.728c0,0.802-0.651,1.456-1.455,1.456
				c-0.401,0-0.728,0.326-0.728,0.728v2.767c0,0.402,0.326,0.728,0.728,0.728c0.802,0,1.455,0.653,1.455,1.456
				c0,0.803-0.651,1.456-1.455,1.456c-0.401,0-0.728,0.326-0.728,0.727v2.766c0,0.402,0.326,0.728,0.728,0.728
				c0.802,0,1.455,0.653,1.455,1.456c0,0.802-0.651,1.456-1.455,1.456c-0.401,0-0.728,0.326-0.728,0.728v2.766
				c0,0.401,0.326,0.728,0.728,0.728c0.802,0,1.455,0.652,1.455,1.457c0,0.801-0.651,1.455-1.455,1.455
				c-0.401,0-0.728,0.326-0.728,0.729v2.766c0,0.402,0.326,0.729,0.728,0.729c0.802,0,1.455,0.652,1.455,1.455
				c0,0.402,0.327,0.729,0.728,0.729h2.795c0.402,0,0.727-0.324,0.729-0.725c0.002-0.801,0.655-1.452,1.456-1.452
				c0.8,0,1.453,0.651,1.455,1.452c0.001,0.4,0.327,0.725,0.728,0.725h2.795c0.402,0,0.728-0.324,0.729-0.725
				c0.003-0.801,0.655-1.452,1.456-1.452c0.8,0,1.453,0.651,1.456,1.452c0.001,0.4,0.327,0.725,0.729,0.725h2.795
				c0.4,0,0.726-0.324,0.728-0.725c0.002-0.801,0.655-1.452,1.456-1.452s1.454,0.651,1.456,1.452c0.001,0.4,0.327,0.725,0.728,0.725
				h2.795c0.401,0,0.727-0.324,0.728-0.725c0.003-0.801,0.655-1.452,1.456-1.452s1.453,0.651,1.456,1.452
				c0.001,0.4,0.327,0.725,0.728,0.725h2.795c0.402,0,0.729-0.326,0.729-0.729c0-0.803,0.652-1.455,1.455-1.455
				c0.402,0,0.729-0.326,0.729-0.729v-2.766c0-0.402-0.326-0.727-0.729-0.727c-0.803,0-1.455-0.653-1.455-1.457
				c0-0.803,0.652-1.455,1.455-1.455c0.402,0,0.729-0.326,0.729-0.729v-2.766c0-0.402-0.326-0.728-0.729-0.728
				c-0.803,0-1.455-0.653-1.455-1.456c0-0.802,0.652-1.456,1.455-1.456c0.402,0,0.729-0.326,0.729-0.728V23.66
				c0-0.402-0.326-0.728-0.729-0.728c-0.803,0-1.455-0.653-1.455-1.456C132.543,20.671,133.195,20.018,133.998,20.018z
				 M133.27,24.293v1.494c-1.254,0.324-2.183,1.465-2.183,2.819s0.929,2.495,2.183,2.819v1.495
				c-1.254,0.324-2.183,1.465-2.183,2.818c0,1.354,0.929,2.495,2.183,2.819v1.494c-1.021,0.264-1.828,1.069-2.091,2.091h-1.524
				c-0.328-1.25-1.468-2.176-2.817-2.176c-1.349,0-2.49,0.926-2.816,2.176h-1.528c-0.326-1.25-1.467-2.176-2.815-2.176
				s-2.49,0.926-2.817,2.176h-1.527c-0.326-1.25-1.467-2.176-2.816-2.176s-2.49,0.926-2.816,2.176h-1.527
				c-0.327-1.25-1.467-2.176-2.817-2.176c-1.35,0-2.489,0.926-2.817,2.176h-1.525c-0.264-1.021-1.068-1.828-2.091-2.091v-1.494
				c1.254-0.324,2.183-1.465,2.183-2.819c0-1.354-0.929-2.494-2.183-2.818v-1.495c1.254-0.324,2.183-1.464,2.183-2.819
				c0-1.354-0.929-2.495-2.183-2.819v-1.494c1.254-0.324,2.183-1.465,2.183-2.819s-0.929-2.495-2.183-2.818v-1.495
				c1.021-0.264,1.827-1.069,2.091-2.091h1.523c0.324,1.254,1.465,2.184,2.818,2.184s2.496-0.929,2.819-2.184h1.522
				c0.324,1.254,1.465,2.184,2.819,2.184s2.495-0.929,2.819-2.184h1.523c0.323,1.254,1.465,2.184,2.817,2.184
				c1.354,0,2.495-0.929,2.819-2.184h1.523c0.324,1.254,1.465,2.184,2.818,2.184s2.494-0.929,2.818-2.184h1.524
				c0.263,1.021,1.069,1.828,2.091,2.091v1.495c-1.254,0.324-2.183,1.464-2.183,2.818S132.016,23.969,133.27,24.293z"/>
			<path fill="#FF3C00" stroke="#331E36" stroke-width="0.5" stroke-miterlimit="10" d="M128.904,18.708h-25.619
				c-0.401,0-0.728,0.326-0.728,0.728v18.341c0,0.402,0.326,0.729,0.728,0.729h25.619c0.401,0,0.728-0.326,0.728-0.729v-18.34
				C129.632,19.034,129.305,18.708,128.904,18.708z M104.013,37.049v-3.43l7.313-5.995c0.287-0.234,0.808-0.234,1.093,0
				l11.499,9.424H104.013L104.013,37.049z M128.176,37.049L128.176,37.049h-1.961l-12.872-10.55c-0.824-0.675-2.114-0.675-2.938,0
				l-6.392,5.238V20.164h24.163V37.049L128.176,37.049z"/>
			<path fill="#FFCC01" stroke="#331E36" stroke-width="0.5" stroke-miterlimit="10" d="M122.554,24.501
				c-1.366,0-2.479,1.112-2.479,2.479c0,1.367,1.112,2.479,2.479,2.479s2.479-1.112,2.479-2.479
				C125.033,25.613,123.921,24.501,122.554,24.501z M122.554,28.004c-0.563,0-1.022-0.459-1.022-1.024s0.459-1.024,1.022-1.024
				c0.565,0,1.024,0.46,1.024,1.024S123.117,28.004,122.554,28.004z"/>
			<path fill="#2727E0" stroke="#331E36" stroke-width="0.5" stroke-miterlimit="10" d="M122.279,23.075h3.713
				c0.402,0,0.729-0.326,0.729-0.728c0-0.401-0.326-0.728-0.729-0.728h-3.713c-0.402,0-0.729,0.327-0.729,0.728
				C121.551,22.749,121.877,23.075,122.279,23.075z"/>
			<path fill="#2727E0" stroke="#331E36" stroke-width="0.5" stroke-miterlimit="10" d="M120.17,23.075h0.018
				c0.402,0,0.729-0.326,0.729-0.728s-0.327-0.728-0.729-0.728h-0.018c-0.402,0-0.729,0.326-0.729,0.728
				S119.768,23.075,120.17,23.075z"/>
			<path fill="#2727E0" stroke="#331E36" stroke-width="0.5" stroke-miterlimit="10" d="M110.137,33.983h-3.714
				c-0.402,0-0.728,0.326-0.728,0.729c0,0.4,0.325,0.728,0.728,0.728h3.715c0.401,0,0.728-0.325,0.728-0.728
				S110.539,33.983,110.137,33.983z"/>
			<path fill="#2727E0" stroke="#331E36" stroke-width="0.5" stroke-miterlimit="10" d="M112.228,33.983
				c-0.401,0-0.727,0.326-0.727,0.729s0.325,0.728,0.727,0.728h0.019c0.402,0,0.728-0.327,0.728-0.728
				c0-0.401-0.325-0.729-0.728-0.729H112.228z"/>
		</g>
	</g>
</g>
<path fill="none" stroke="#000000" stroke-miterlimit="10" d="M144.182,64.648c0,13.946-11.187,25.253-24.989,25.253H28.313
	c-13.801,0-24.99-11.307-24.99-25.253V27.822c0-13.947,11.188-25.254,24.99-25.254h90.879c13.803,0,24.989,11.307,24.989,25.254
	V64.648z"/>
<path d="M76.742,80.071c0,0.734-0.257,1.33-0.572,1.33l0,0c-0.316,0-0.573-0.596-0.573-1.33V21.564c0-0.734,0.257-1.33,0.573-1.33
	l0,0c0.315,0,0.572,0.595,0.572,1.33V80.071z"/>
<path d="M65.585,30.74c0,0.685-0.555,1.24-1.24,1.24H17.158c-0.685,0-1.239-0.555-1.239-1.24l0,0c0-0.685,0.555-1.239,1.239-1.239
	h47.188C65.03,29.501,65.585,30.056,65.585,30.74L65.585,30.74z"/>
<path d="M65.586,38.574c0,0.685-0.556,1.24-1.24,1.24H17.158c-0.685,0-1.239-0.556-1.239-1.24l0,0c0-0.685,0.555-1.239,1.239-1.239
	h47.188C65.03,37.334,65.586,37.889,65.586,38.574L65.586,38.574z"/>
<path d="M65.585,46.745c0,0.685-0.556,1.24-1.24,1.24H17.158c-0.685,0-1.239-0.556-1.239-1.24l0,0c0-0.685,0.555-1.239,1.239-1.239
	h47.188C65.03,45.505,65.585,46.06,65.585,46.745L65.585,46.745z"/>
<path d="M65.586,54.574c0,0.684-0.556,1.24-1.24,1.24H17.158c-0.685,0-1.239-0.557-1.239-1.24l0,0c0-0.686,0.555-1.24,1.239-1.24
	h47.188C65.03,53.334,65.586,53.889,65.586,54.574L65.586,54.574z"/>
</svg>
