<?xml version="1.0" encoding="utf-8"?>
<!-- Generator: Adobe Illustrator 16.0.0, SVG Export Plug-In . SVG Version: 6.00 Build 0)  -->
<!DOCTYPE svg PUBLIC "-//W3C//DTD SVG 1.1//EN" "http://www.w3.org/Graphics/SVG/1.1/DTD/svg11.dtd">
<svg version="1.1" id="Capa_1" xmlns="http://www.w3.org/2000/svg" xmlns:xlink="http://www.w3.org/1999/xlink" x="0px" y="0px"
	 width="996px" height="691px" viewBox="0 0 996 691" enable-background="new 0 0 996 691" xml:space="preserve">
<rect fill="#FFCC01" width="996" height="691"/>
<path fill="#FFFFFF" d="M855.534,89.354l-48.383,44.165c-2.545,2.323-5.886,3.491-9.227,3.491c-3.342,0-6.684-1.168-9.229-3.491
	c-5.104-4.659-5.104-12.188,0-16.846l29.928-27.318h-54.452l-48.382,44.165c-2.546,2.323-5.887,3.491-9.228,3.491
	c-3.342,0-6.684-1.168-9.229-3.491c-5.104-4.659-5.104-12.188,0-16.846l29.928-27.318h-54.451l-48.383,44.165
	c-2.545,2.323-5.887,3.491-9.228,3.491c-3.342,0-6.683-1.168-9.229-3.491c-5.103-4.659-5.103-12.188,0-16.846l29.928-27.318h-54.451
	l-48.383,44.165c-2.545,2.323-5.886,3.491-9.227,3.491c-3.343,0-6.684-1.168-9.229-3.491c-5.104-4.659-5.104-12.188,0-16.846
	l29.928-27.318h-54.452l-48.383,44.165c-2.545,2.323-5.887,3.491-9.228,3.491c-3.341,0-6.683-1.168-9.228-3.491
	c-5.103-4.659-5.103-12.188,0-16.846l29.928-27.318h-54.452l-48.383,44.165c-2.545,2.323-5.886,3.491-9.228,3.491
	s-6.683-1.168-9.228-3.491c-5.103-4.659-5.103-12.188,0-16.846l29.928-27.318h-54.451l-48.383,44.165
	c-2.545,2.323-5.887,3.491-9.228,3.491s-6.682-1.168-9.228-3.491c-5.103-4.659-5.103-12.188,0-16.846l29.928-27.318H216
	l-48.383,44.165c-2.545,2.323-5.886,3.491-9.228,3.491c-3.341,0-6.682-1.168-9.227-3.491c-5.103-4.659-5.103-12.188,0-16.846
	l29.928-27.318h-59.855v1.239v511.054h20.7l48.382-44.164c5.103-4.658,13.352-4.658,18.456,0c5.103,4.658,5.103,12.188,0,16.846
	l-29.928,27.318h54.452l48.382-44.164c5.104-4.658,13.352-4.658,18.455,0c5.104,4.658,5.103,12.188,0,16.846l-29.928,27.318h54.452
	l48.383-44.164c5.103-4.658,13.352-4.658,18.455,0c5.103,4.658,5.103,12.188,0,16.846l-29.928,27.318h54.452l48.382-44.164
	c5.104-4.658,13.354-4.658,18.456,0c5.104,4.658,5.104,12.188,0,16.846l-29.927,27.318h54.451l48.382-44.164
	c5.104-4.658,13.353-4.658,18.456,0s5.104,12.188,0,16.846l-29.928,27.318h54.451l48.384-44.164c5.104-4.658,13.352-4.658,18.455,0
	c5.103,4.658,5.103,12.188,0,16.846l-29.928,27.318h54.451l48.384-44.164c5.103-4.658,13.352-4.658,18.454,0
	c5.104,4.658,5.104,12.188,0,16.846l-29.927,27.318h54.451l48.383-44.164c5.104-4.658,13.352-4.658,18.455,0s5.104,12.188,0,16.846
	l-29.928,27.318h59.855V90.592v-1.239H855.534z"/>
<path fill="#1C3144" d="M206.772,557.482c-5.104-4.658-13.353-4.658-18.456,0l-48.382,44.164h36.91l29.928-27.318
	C211.875,569.67,211.875,562.141,206.772,557.482z"/>
<path fill="#331E36" d="M298.134,557.482c-5.103-4.658-13.352-4.658-18.455,0l-48.382,44.164h36.91l29.928-27.318
	C303.237,569.67,303.237,562.141,298.134,557.482z"/>
<path fill="#1C3144" d="M389.497,557.482c-5.104-4.658-13.352-4.658-18.455,0l-48.383,44.164h36.911l29.927-27.318
	C394.6,569.67,394.6,562.141,389.497,557.482z"/>
<path fill="#331E36" d="M480.858,557.482c-5.103-4.658-13.353-4.658-18.456,0l-48.382,44.164h36.911l29.927-27.318
	C485.962,569.67,485.962,562.141,480.858,557.482z"/>
<path fill="#1C3144" d="M572.221,557.482c-5.104-4.658-13.352-4.658-18.456,0l-48.382,44.164h36.91l29.928-27.318
	C577.324,569.67,577.324,562.141,572.221,557.482z"/>
<path fill="#331E36" d="M663.583,557.482c-5.104-4.658-13.352-4.658-18.455,0l-48.384,44.164h36.911l29.928-27.318
	C668.686,569.67,668.686,562.141,663.583,557.482z"/>
<path fill="#1C3144" d="M754.944,557.482c-5.103-4.658-13.352-4.658-18.454,0l-48.384,44.164h36.911l29.927-27.318
	C760.048,569.67,760.048,562.141,754.944,557.482z"/>
<path fill="#331E36" d="M846.307,557.482c-5.104-4.658-13.352-4.658-18.455,0l-48.383,44.164h36.91l29.928-27.318
	C851.41,569.67,851.41,562.141,846.307,557.482z"/>
<path fill="#1C3144" d="M149.162,133.518c2.545,2.323,5.886,3.491,9.227,3.491c3.342,0,6.683-1.168,9.228-3.491L216,89.354h-36.91
	l-29.928,27.318C144.059,121.33,144.059,128.859,149.162,133.518z"/>
<path fill="#331E36" d="M240.524,133.518c2.545,2.323,5.886,3.491,9.228,3.491s6.683-1.168,9.228-3.491l48.383-44.165h-36.911
	l-29.928,27.318C235.421,121.33,235.421,128.859,240.524,133.518z"/>
<path fill="#1C3144" d="M331.886,133.518c2.545,2.323,5.887,3.491,9.228,3.491s6.682-1.168,9.228-3.491l48.383-44.165h-36.911
	l-29.928,27.318C326.783,121.33,326.783,128.859,331.886,133.518z"/>
<path fill="#331E36" d="M423.248,133.518c2.545,2.323,5.886,3.491,9.228,3.491c3.341,0,6.683-1.168,9.228-3.491l48.383-44.165
	h-36.91l-29.928,27.318C418.145,121.33,418.145,128.859,423.248,133.518z"/>
<path fill="#1C3144" d="M514.61,133.518c2.545,2.323,5.886,3.491,9.229,3.491c3.341,0,6.682-1.168,9.227-3.491l48.383-44.165h-36.91
	l-29.928,27.318C509.507,121.33,509.507,128.859,514.61,133.518z"/>
<path fill="#331E36" d="M605.972,133.518c2.546,2.323,5.887,3.491,9.229,3.491c3.341,0,6.683-1.168,9.228-3.491l48.383-44.165
	h-36.911l-29.928,27.318C600.869,121.33,600.869,128.859,605.972,133.518z"/>
<path fill="#1C3144" d="M697.334,133.518c2.545,2.323,5.887,3.491,9.229,3.491c3.341,0,6.682-1.168,9.228-3.491l48.382-44.165
	h-36.91l-29.928,27.318C692.23,121.33,692.23,128.859,697.334,133.518z"/>
<path fill="#331E36" d="M788.696,133.518c2.545,2.323,5.887,3.491,9.229,3.491c3.341,0,6.682-1.168,9.227-3.491l48.383-44.165
	h-36.91l-29.928,27.318C783.593,121.33,783.593,128.859,788.696,133.518z"/>
<rect x="198.032" y="248.319" fill="#D00000" width="332.468" height="40"/>
<text transform="matrix(1.1088 0 0 1 211.501 279.293)" fill="#FFFFFF" font-family="'UbuntuMonoDerivativePowerline-Bold'" font-size="36.7174">SHARE SOME &lt;3</text>
<rect x="197.157" y="298.319" fill="#D00000" width="332.468" height="40"/>
<text transform="matrix(1.1088 0 0 1 210.5996 332.293)" fill="#FFFFFF" font-family="'UbuntuMonoDerivativePowerline-Bold'" font-size="36.7174">WITH A POSTCARD</text>
<g>
	<g>
		<g>
			<path fill="#1C3144" d="M838.185,191.47c2.091,0,3.786-1.695,3.786-3.786v-14.39c0-2.091-1.695-3.786-3.786-3.786
				c-4.176,0-7.573-3.397-7.573-7.573c0-2.091-1.696-3.786-3.787-3.786h-14.539c-2.092,0-3.787,1.695-3.787,3.786
				c0,4.176-3.397,7.573-7.573,7.573c-4.175,0-7.572-3.397-7.572-7.573c0-2.091-1.695-3.786-3.786-3.786h-14.54
				c-2.092,0-3.786,1.695-3.786,3.786c0,4.176-3.397,7.573-7.573,7.573s-7.573-3.397-7.573-7.573c0-2.091-1.694-3.786-3.786-3.786
				h-14.54c-2.091,0-3.786,1.695-3.786,3.786c0,4.176-3.397,7.573-7.573,7.573s-7.573-3.397-7.573-7.573
				c0-2.091-1.695-3.786-3.786-3.786h-14.54c-2.091,0-3.786,1.695-3.786,3.786c0,4.176-3.397,7.573-7.573,7.573
				c-4.175,0-7.573-3.397-7.573-7.573c0-2.091-1.694-3.786-3.786-3.786h-14.54c-2.091,0-3.786,1.695-3.786,3.786
				c0,4.176-3.397,7.573-7.572,7.573c-2.092,0-3.787,1.695-3.787,3.786v14.39c0,2.091,1.695,3.786,3.787,3.786
				c4.175,0,7.572,3.397,7.572,7.572c0,4.176-3.397,7.574-7.572,7.574c-2.092,0-3.787,1.694-3.787,3.786v14.388
				c0,2.091,1.695,3.786,3.787,3.786c4.175,0,7.572,3.397,7.572,7.573s-3.397,7.573-7.572,7.573c-2.092,0-3.787,1.695-3.787,3.787
				v14.389c0,2.091,1.695,3.786,3.787,3.786c4.175,0,7.572,3.396,7.572,7.572s-3.397,7.573-7.572,7.573
				c-2.092,0-3.787,1.696-3.787,3.786v14.389c0,2.092,1.695,3.786,3.787,3.786c4.175,0,7.572,3.397,7.572,7.574
				c0,2.091,1.695,3.786,3.786,3.786h14.54c2.087,0,3.78-1.688,3.786-3.774c0.014-4.164,3.41-7.551,7.573-7.551
				s7.561,3.387,7.572,7.55c0.007,2.087,1.699,3.775,3.786,3.775h14.542c2.087,0,3.78-1.688,3.786-3.775
				c0.012-4.163,3.409-7.55,7.572-7.55s7.561,3.387,7.572,7.55c0.007,2.087,1.7,3.775,3.786,3.775h14.542
				c2.087,0,3.78-1.688,3.786-3.775c0.012-4.163,3.409-7.55,7.572-7.55s7.56,3.387,7.573,7.55c0.006,2.087,1.699,3.775,3.786,3.775
				h14.54c2.087,0,3.78-1.688,3.786-3.775c0.013-4.163,3.41-7.55,7.572-7.55c4.163,0,7.561,3.387,7.572,7.55
				c0.007,2.087,1.7,3.775,3.787,3.775h14.54c2.091,0,3.787-1.695,3.787-3.786c0-4.177,3.397-7.574,7.573-7.574
				c2.091,0,3.786-1.694,3.786-3.786v-14.388c0-2.091-1.695-3.786-3.786-3.786c-4.176-0.001-7.573-3.397-7.573-7.574
				c0-4.176,3.397-7.572,7.573-7.572c2.091,0,3.786-1.694,3.786-3.786V247.51c0-2.091-1.695-3.786-3.786-3.786
				c-4.176,0-7.573-3.398-7.573-7.574c0-4.175,3.397-7.572,7.573-7.572c2.091,0,3.786-1.695,3.786-3.787v-14.388
				c0-2.091-1.695-3.786-3.786-3.786c-4.176,0-7.573-3.397-7.573-7.573S834.009,191.47,838.185,191.47z M834.397,213.71v7.773
				c-6.525,1.685-11.359,7.622-11.359,14.666c0,7.045,4.834,12.981,11.359,14.667v7.774c-6.525,1.686-11.359,7.622-11.359,14.666
				c0,7.045,4.834,12.982,11.359,14.667v7.773c-5.314,1.373-9.507,5.565-10.88,10.881h-7.936c-1.7-6.506-7.633-11.325-14.657-11.325
				c-7.022,0-12.955,4.819-14.655,11.325h-7.946c-1.7-6.506-7.634-11.325-14.656-11.325c-7.023,0-12.957,4.819-14.656,11.325h-7.946
				c-1.699-6.506-7.633-11.325-14.656-11.325s-12.957,4.819-14.656,11.325h-7.946c-1.699-6.506-7.633-11.325-14.656-11.325
				c-7.022,0-12.956,4.819-14.656,11.325h-7.937c-1.373-5.315-5.565-9.508-10.88-10.881v-7.773
				c6.525-1.685,11.359-7.622,11.359-14.667c0-7.044-4.834-12.98-11.359-14.666v-7.773c6.525-1.686,11.359-7.622,11.359-14.667
				s-4.834-12.981-11.359-14.667v-7.773c6.525-1.685,11.359-7.622,11.359-14.667c0-7.044-4.834-12.98-11.359-14.665v-7.776
				c5.314-1.373,9.507-5.565,10.88-10.88h7.926c1.686,6.525,7.622,11.359,14.666,11.359c7.045,0,12.981-4.834,14.667-11.359h7.925
				c1.687,6.525,7.622,11.359,14.667,11.359s12.981-4.834,14.667-11.359H749c1.685,6.525,7.622,11.359,14.666,11.359
				s12.981-4.834,14.667-11.359h7.926c1.686,6.525,7.622,11.359,14.666,11.359s12.981-4.834,14.666-11.359h7.926
				c1.373,5.314,5.565,9.507,10.881,10.88v7.775c-6.525,1.685-11.359,7.621-11.359,14.665
				C823.038,206.087,827.872,212.025,834.397,213.71z"/>
			<path fill="#1C3144" d="M811.679,184.654H678.396c-2.092,0-3.787,1.695-3.787,3.787v95.419c0,2.092,1.695,3.786,3.787,3.786
				h133.283c2.091,0,3.786-1.694,3.786-3.786v-95.419C815.465,186.349,813.77,184.654,811.679,184.654z M682.182,280.074v-17.84
				l38.055-31.188c1.487-1.218,4.195-1.218,5.682,0l59.825,49.027H682.182z M807.893,280.074L807.893,280.074H797.69l-66.972-54.885
				c-4.284-3.512-10.997-3.512-15.282,0l-33.255,27.253v-60.215h125.711V280.074z"/>
			<path fill="#1C3144" d="M778.645,214.792c-7.112,0-12.898,5.786-12.898,12.897c0,7.112,5.786,12.898,12.898,12.898
				c7.111,0,12.896-5.786,12.896-12.898C791.541,220.578,785.756,214.792,778.645,214.792z M778.645,233.014
				c-2.937,0-5.326-2.39-5.326-5.325c0-2.937,2.39-5.325,5.326-5.325c2.936,0,5.323,2.389,5.323,5.325
				S781.58,233.014,778.645,233.014z"/>
			<path fill="#1C3144" d="M777.21,207.373h19.324c2.092,0,3.786-1.695,3.786-3.786c0-2.092-1.694-3.787-3.786-3.787H777.21
				c-2.091,0-3.787,1.695-3.787,3.787C773.423,205.677,775.118,207.373,777.21,207.373z"/>
			<path fill="#1C3144" d="M766.241,207.374h0.09c2.091,0,3.787-1.695,3.787-3.786c0-2.092-1.696-3.787-3.787-3.787h-0.09
				c-2.092,0-3.786,1.695-3.786,3.787C762.455,205.678,764.149,207.374,766.241,207.374z"/>
			<path fill="#1C3144" d="M714.041,264.123h-19.324c-2.091,0-3.786,1.696-3.786,3.787s1.695,3.786,3.786,3.786h19.324
				c2.092,0,3.787-1.695,3.787-3.786S716.133,264.123,714.041,264.123z"/>
			<path fill="#1C3144" d="M724.919,264.125c-2.091,0-3.786,1.695-3.786,3.786c0,2.092,1.695,3.786,3.786,3.786h0.091
				c2.091,0,3.786-1.694,3.786-3.786c0-2.091-1.695-3.786-3.786-3.786H724.919z"/>
		</g>
	</g>
</g>
<g>
	<g>
		<path fill="#F7BA35" d="M661.571,290.322c-20.439,0-39.657-7.96-54.109-22.413c-14.453-14.453-22.413-33.67-22.413-54.109
			c0-20.44,7.96-39.657,22.413-54.111c14.452-14.452,33.67-22.412,54.109-22.412c20.44,0,39.656,7.96,54.11,22.412
			c14.453,14.454,22.413,33.671,22.413,54.111c0,20.439-7.96,39.656-22.413,54.109C701.228,282.362,682.012,290.322,661.571,290.322
			z M661.571,146.244c-18.045,0-35.009,7.026-47.769,19.786s-19.786,29.725-19.786,47.77c0,18.044,7.026,35.009,19.786,47.769
			c12.76,12.759,29.724,19.786,47.769,19.786s35.01-7.027,47.77-19.786c12.759-12.76,19.786-29.725,19.786-47.769
			c0-18.045-7.027-35.01-19.786-47.77C696.581,153.271,679.616,146.244,661.571,146.244z"/>
		<path fill="#F7BA35" d="M620.711,184.112l-8.854-7.607l3.278-3.815c1.489-1.733,4.119-1.642,5.629-0.345
			c1.571,1.35,2.061,3.808,0.56,5.554l-1.242,1.446l2.718,2.336L620.711,184.112z M617.962,177.522l1.104-1.283
			c0.258-0.3,0.288-0.814-0.423-1.426c-0.735-0.632-1.269-0.44-1.526-0.141l-1.049,1.221L617.962,177.522z"/>
		<path fill="#F7BA35" d="M622.983,172.575c-1.88-2.453-1.7-6.112,0.897-8.102c2.661-2.04,6.22-1.018,8.029,1.345
			c1.859,2.427,1.727,6.091-0.884,8.091C628.378,175.938,624.813,174.963,622.983,172.575z M629.323,171.632
			c1.292-0.99,0.893-2.672-0.037-3.887c-0.959-1.252-2.463-1.943-3.716-0.984c-1.278,0.98-0.913,2.646,0.017,3.86
			C626.537,171.86,628.058,172.601,629.323,171.632z"/>
		<path fill="#F7BA35" d="M639.111,160.015c0,0-1.989-0.23-3.248,0.375c-0.504,0.242-0.773,0.555-0.596,0.925
			c0.263,0.548,1.061,0.312,2.461,0.112c2.233-0.324,3.791-0.232,4.736,1.738c1.217,2.534-0.437,4.33-2.394,5.271
			c-1.525,0.732-3.554,1.104-5.169,0.968l0.028-3.132c0,0,2.318,0.31,3.934-0.466c0.623-0.299,0.759-0.584,0.624-0.865
			c-0.292-0.607-1.438-0.223-2.903-0.047c-2.151,0.268-3.344-0.127-4.083-1.668c-1.117-2.326,0.145-4.446,2.219-5.442
			c1.526-0.732,3.313-0.771,4.49-0.751L639.111,160.015z"/>
		<path fill="#F7BA35" d="M651.438,155.237l-3.244,0.846l2.233,8.59l-3.102,0.807l-2.234-8.591l-3.262,0.849l-0.704-2.705
			l9.609-2.498L651.438,155.237z"/>
		<path fill="#F7BA35" d="M656.78,157.524c0.05-3.091,2.462-5.848,5.732-5.795c3.354,0.055,5.509,3.064,5.461,6.04
			c-0.049,3.058-2.429,5.848-5.717,5.795C658.92,163.511,656.731,160.532,656.78,157.524z M662.336,160.722
			c1.627,0.025,2.359-1.541,2.385-3.07c0.024-1.578-0.725-3.053-2.303-3.078c-1.611-0.026-2.359,1.508-2.384,3.036
			C660.009,159.171,660.741,160.695,662.336,160.722z"/>
		<path fill="#F7BA35" d="M668.722,163.837l2.461-11.41l7.826,1.689l-0.589,2.73l-4.693-1.012l-0.408,1.896l3.824,0.825
			l-0.548,2.538l-3.824-0.824l-0.915,4.242L668.722,163.837z"/>
		<path fill="#F7BA35" d="M677.209,165.804l4.401-10.813l7.417,3.019l-1.054,2.59l-4.447-1.811l-0.73,1.797l3.624,1.476
			l-0.979,2.405l-3.625-1.475l-1.636,4.021L677.209,165.804z"/>
		<path fill="#F7BA35" d="M685.271,169.351l5.825-10.113l2.777,1.6l-5.825,10.113L685.271,169.351z"/>
		<path fill="#F7BA35" d="M700.704,165.608c1.62,1.291,2.271,3.111,1.896,4.769l-3.002-0.163c0.412-1.123-0.152-1.973-0.718-2.424
			c-1.261-1.003-2.807-0.196-3.719,0.947c-1.015,1.273-1.245,2.961-0.087,3.883c0.578,0.461,1.535,0.738,2.447,0.121l1.071,2.851
			c-1.59,0.94-3.89,0.369-5.343-0.788c-2.545-2.029-2.438-5.831-0.573-8.172C694.45,164.409,697.927,163.396,700.704,165.608z"/>
		<path fill="#F7BA35" d="M704.896,182.721l-2.128,1.813l-5.396-6.334l8.887-7.571l5.3,6.22l-2.128,1.812l-3.22-3.779l-1.252,1.066
			l2.751,3.229l-1.977,1.687l-2.752-3.229l-1.401,1.193L704.896,182.721z"/>
		<path fill="#F7BA35" d="M702.431,243.487l8.854,7.606l-3.278,3.815c-1.489,1.733-4.12,1.642-5.629,0.345
			c-1.57-1.351-2.061-3.808-0.561-5.553l1.243-1.447l-2.718-2.336L702.431,243.487z M705.181,250.075l-1.104,1.284
			c-0.257,0.3-0.288,0.814,0.424,1.427c0.735,0.631,1.269,0.439,1.525,0.141l1.051-1.223L705.181,250.075z"/>
		<path fill="#F7BA35" d="M700.159,255.023c1.881,2.453,1.7,6.111-0.896,8.102c-2.662,2.04-6.221,1.017-8.029-1.345
			c-1.86-2.427-1.727-6.092,0.883-8.091C694.766,251.659,698.33,252.636,700.159,255.023z M693.82,255.966
			c-1.292,0.99-0.894,2.673,0.036,3.887c0.96,1.253,2.463,1.944,3.716,0.984c1.278-0.979,0.913-2.646-0.017-3.859
			C696.606,255.738,695.086,254.997,693.82,255.966z"/>
		<path fill="#F7BA35" d="M684.032,267.583c0,0,1.988,0.23,3.248-0.374c0.504-0.242,0.773-0.554,0.596-0.924
			c-0.264-0.549-1.062-0.312-2.461-0.113c-2.233,0.325-3.791,0.233-4.737-1.737c-1.217-2.535,0.438-4.332,2.393-5.271
			c1.527-0.733,3.555-1.104,5.171-0.969l-0.028,3.132c0,0-2.319-0.309-3.935,0.467c-0.622,0.299-0.76,0.583-0.623,0.865
			c0.291,0.607,1.437,0.221,2.902,0.046c2.152-0.267,3.345,0.127,4.084,1.669c1.117,2.326-0.145,4.445-2.219,5.441
			c-1.527,0.733-3.314,0.771-4.49,0.752L684.032,267.583z"/>
		<path fill="#F7BA35" d="M671.701,272.362l3.246-0.844l-2.233-8.593l3.104-0.807l2.233,8.594l3.262-0.849l0.704,2.705l-9.612,2.499
			L671.701,272.362z"/>
		<path fill="#F7BA35" d="M666.362,270.074c-0.049,3.091-2.461,5.848-5.732,5.795c-3.354-0.055-5.509-3.065-5.461-6.041
			c0.05-3.058,2.429-5.848,5.717-5.795C664.224,264.087,666.411,267.065,666.362,270.074z M660.808,266.877
			c-1.628-0.025-2.359,1.541-2.385,3.069c-0.025,1.578,0.724,3.054,2.302,3.079c1.611,0.025,2.359-1.508,2.385-3.037
			C663.134,268.427,662.401,266.902,660.808,266.877z"/>
		<path fill="#F7BA35" d="M654.421,263.763l-2.461,11.408l-7.826-1.688l0.59-2.731l4.691,1.012l0.41-1.896l-3.824-0.825l0.547-2.538
			l3.824,0.824l0.916-4.242L654.421,263.763z"/>
		<path fill="#F7BA35" d="M645.935,261.796l-4.401,10.812l-7.417-3.019l1.053-2.59l4.447,1.811l0.731-1.797l-3.625-1.476
			l0.979-2.406l3.625,1.475l1.637-4.02L645.935,261.796z"/>
		<path fill="#F7BA35" d="M637.872,258.248l-5.825,10.114l-2.778-1.601l5.826-10.113L637.872,258.248z"/>
		<path fill="#F7BA35" d="M622.439,261.99c-1.621-1.29-2.271-3.112-1.897-4.769l3.002,0.164c-0.412,1.122,0.152,1.971,0.718,2.422
			c1.261,1.004,2.808,0.197,3.719-0.947c1.014-1.273,1.244-2.96,0.087-3.883c-0.579-0.46-1.534-0.738-2.447-0.12l-1.07-2.851
			c1.59-0.94,3.888-0.37,5.341,0.788c2.547,2.028,2.438,5.831,0.573,8.171C628.693,263.189,625.216,264.203,622.439,261.99z"/>
		<path fill="#F7BA35" d="M618.247,244.878l2.128-1.812l5.396,6.333l-8.886,7.571l-5.3-6.221l2.127-1.812l3.221,3.779l1.252-1.065
			l-2.752-3.229l1.978-1.686l2.751,3.23l1.402-1.195L618.247,244.878z"/>
	</g>
	<g>
		<path fill="#FD9702" d="M605.311,220.388c0-3.904,0.466-5.687,3.691-7.215c1.762-0.827,3.289-1.57,3.289-3.119
			c0-1.019-0.658-1.336-1.379-1.336c-1.104,0-2.313,0.742-3.119,1.527l-2.482-2.695c1.124-1.273,3.415-2.397,6.174-2.397
			c3.438,0,5.411,1.74,5.411,4.838c0,2.334-1.104,3.395-2.992,4.498c-1.209,0.7-2.589,1.38-2.589,2.292h5.602v3.607H605.311
			L605.311,220.388z"/>
		<path fill="#FD9702" d="M629.139,216.78v3.607h-9.824v-3.607h3.013V209.1c-0.467,0.658-2.354,1.824-3.501,1.824v-3.691
			c1.528,0,3.459-1.932,3.501-2.017h4.117v11.564H629.139z"/>
		<path fill="#FD9702" d="M630.667,220.388v-3.904h3.268v3.904H630.667z"/>
		<path fill="#FD9702" d="M646.198,216.78v3.607h-9.824v-3.607h3.014V209.1c-0.468,0.658-2.355,1.824-3.502,1.824v-3.691
			c1.528,0,3.459-1.932,3.502-2.017h4.115v11.564H646.198z"/>
		<path fill="#FD9702" d="M647.471,220.388c0-3.904,0.467-5.687,3.692-7.215c1.762-0.827,3.289-1.57,3.289-3.119
			c0-1.019-0.658-1.336-1.38-1.336c-1.103,0-2.312,0.742-3.118,1.527l-2.483-2.695c1.125-1.273,3.417-2.397,6.175-2.397
			c3.438,0,5.41,1.74,5.41,4.838c0,2.334-1.104,3.395-2.991,4.498c-1.21,0.7-2.589,1.38-2.589,2.292h5.602v3.607H647.471
			L647.471,220.388L647.471,220.388z"/>
		<path fill="#FD9702" d="M661.157,220.388v-3.904h3.268v3.904H661.157z"/>
		<path fill="#FD9702" d="M666.292,220.388c0-3.904,0.467-5.687,3.693-7.215c1.761-0.827,3.287-1.57,3.287-3.119
			c0-1.019-0.656-1.336-1.378-1.336c-1.104,0-2.313,0.742-3.12,1.527l-2.482-2.695c1.125-1.273,3.417-2.397,6.175-2.397
			c3.438,0,5.411,1.74,5.411,4.838c0,2.334-1.104,3.395-2.992,4.498c-1.21,0.7-2.589,1.38-2.589,2.292h5.603v3.607H666.292
			L666.292,220.388z"/>
		<path fill="#FD9702" d="M679.66,212.961c0-3.628,2.609-7.639,6.832-7.639c4.498,0,6.833,4.35,6.833,7.639
			c0,3.671-2.61,7.639-6.833,7.639C681.994,220.6,679.66,216.356,679.66,212.961z M686.492,216.929c1.952,0,2.631-2.291,2.631-3.968
			c0-1.846-0.784-3.968-2.631-3.968c-1.952,0-2.631,2.292-2.631,3.968C683.861,214.807,684.604,216.929,686.492,216.929z"/>
		<path fill="#FD9702" d="M705.271,216.78v3.607h-9.823v-3.607h3.013V209.1c-0.468,0.658-2.355,1.824-3.502,1.824v-3.691
			c1.527,0,3.459-1.932,3.502-2.017h4.115v11.564H705.271z"/>
		<path fill="#FD9702" d="M712.23,220.6c-3.607,0-5.665-2.737-5.665-7.427c0-4.965,2.291-7.978,6.068-7.978
			c1.824,0,3.458,0.7,4.796,2.037l-2.229,2.588c-0.742-0.742-1.676-1.146-2.631-1.146c-1.38,0-2.229,0.892-2.292,2.397
			c0.552-0.487,1.294-0.721,2.292-0.721c3.034,0,5.304,2.122,5.304,4.944C717.874,218.265,715.456,220.6,712.23,220.6z
			 M714.034,215.296c0-0.998-0.806-1.783-1.804-1.783c-0.997,0-1.804,0.785-1.804,1.783c0,1.039,0.849,1.931,1.804,1.931
			C713.185,217.227,714.034,216.334,714.034,215.296z"/>
		<path fill="#FD9702" d="M693.75,196.93c-6.306-12.002-18.637-19.458-32.179-19.458c-13.543,0-25.872,7.456-32.179,19.458
			l-7.938-4.171c7.861-14.961,23.233-24.255,40.117-24.255c16.885,0,32.256,9.294,40.117,24.255L693.75,196.93z"/>
		<path fill="#FD9702" d="M661.571,259.094c-16.884,0-32.256-9.294-40.117-24.255l7.938-4.171
			c6.307,12.002,18.636,19.458,32.179,19.458c13.542,0,25.873-7.455,32.179-19.458l7.938,4.171
			C693.827,249.8,678.456,259.094,661.571,259.094z"/>
		<path fill="#FD9702" d="M715.682,159.688c-14.454-14.452-33.67-22.412-54.11-22.412v8.968c18.045,0,35.01,7.026,47.77,19.786
			c12.759,12.76,19.786,29.725,19.786,47.77c0,18.044-7.027,35.009-19.786,47.769c-12.76,12.759-29.725,19.786-47.77,19.786v8.968
			c20.44,0,39.656-7.96,54.11-22.413c14.453-14.453,22.413-33.67,22.413-54.109C738.095,193.359,730.135,174.143,715.682,159.688z"
			/>
	</g>
	<g>
		<path fill="#BA7400" d="M693.75,196.93l7.938-4.171c-7.861-14.961-23.232-24.254-40.117-24.254v8.967
			C675.113,177.472,687.444,184.928,693.75,196.93z"/>
		<path fill="#BA7400" d="M701.688,234.84l-7.938-4.171c-6.306,12.002-18.637,19.458-32.179,19.458v8.967
			C678.456,259.094,693.827,249.8,701.688,234.84z"/>
	</g>
</g>
</svg>
