<?xml version="1.0" encoding="utf-8"?>
<!-- Generator: Adobe Illustrator 16.0.0, SVG Export Plug-In . SVG Version: 6.00 Build 0)  -->
<!DOCTYPE svg PUBLIC "-//W3C//DTD SVG 1.1//EN" "http://www.w3.org/Graphics/SVG/1.1/DTD/svg11.dtd">
<svg version="1.1" id="Capa_1" xmlns="http://www.w3.org/2000/svg" xmlns:xlink="http://www.w3.org/1999/xlink" x="0px" y="0px"
	 width="145.504px" height="98.469px" viewBox="-25 3 145.504 98.469" enable-background="new -25 3 145.504 98.469"
	 xml:space="preserve">
<path fill="#FF224A" d="M-18.6,6.104c0.281,0.174,0.649,0.261,1.017,0.261s0.737-0.087,1.017-0.261l5.331-3.305h-4.066L-18.6,4.844
	C-19.162,5.192-19.162,5.756-18.6,6.104z"/>
<path fill="#FF224A" d="M-8.533,6.104c0.28,0.174,0.648,0.261,1.017,0.261c0.368,0,0.736-0.087,1.017-0.261L-1.168,2.8h-4.067
	l-3.297,2.044C-9.095,5.192-9.095,5.756-8.533,6.104z"/>
<g>
	<g>
		<g>
			<path fill="#FF224A" stroke="#000000" stroke-miterlimit="10" d="M110.195,24.627c0.402,0,0.728-0.326,0.728-0.728v-2.766
				c0-0.402-0.326-0.728-0.728-0.728c-0.803,0-1.456-0.653-1.456-1.456c0-0.402-0.326-0.728-0.728-0.728h-2.795
				c-0.402,0-0.728,0.326-0.728,0.728c0,0.802-0.653,1.456-1.456,1.456s-1.456-0.653-1.456-1.456c0-0.402-0.326-0.728-0.727-0.728
				h-2.795c-0.402,0-0.728,0.326-0.728,0.728c0,0.802-0.653,1.456-1.456,1.456s-1.456-0.653-1.456-1.456
				c0-0.402-0.326-0.728-0.728-0.728h-2.795c-0.402,0-0.727,0.326-0.727,0.728c0,0.802-0.653,1.456-1.456,1.456
				s-1.456-0.653-1.456-1.456c0-0.402-0.326-0.728-0.728-0.728h-2.795c-0.402,0-0.727,0.326-0.727,0.728
				c0,0.802-0.653,1.456-1.456,1.456s-1.456-0.653-1.456-1.456c0-0.402-0.326-0.728-0.728-0.728h-2.795
				c-0.402,0-0.728,0.326-0.728,0.728c0,0.802-0.652,1.456-1.455,1.456c-0.402,0-0.728,0.326-0.728,0.728V23.9
				c0,0.402,0.326,0.728,0.728,0.728c0.802,0,1.455,0.653,1.455,1.456s-0.652,1.456-1.455,1.456c-0.402,0-0.728,0.326-0.728,0.727
				v2.766c0,0.402,0.326,0.728,0.728,0.728c0.802,0,1.455,0.653,1.455,1.456c0,0.802-0.652,1.456-1.455,1.456
				c-0.402,0-0.728,0.326-0.728,0.728v2.766c0,0.402,0.326,0.728,0.728,0.728c0.802,0,1.455,0.652,1.455,1.456
				c0,0.802-0.652,1.456-1.455,1.456c-0.402,0-0.728,0.326-0.728,0.728v2.766c0,0.402,0.326,0.728,0.728,0.728
				c0.802,0,1.455,0.653,1.455,1.456c0,0.402,0.327,0.728,0.728,0.728h2.795c0.401,0,0.726-0.325,0.728-0.725
				c0.002-0.8,0.655-1.452,1.456-1.452c0.8,0,1.453,0.651,1.455,1.452c0.001,0.401,0.327,0.725,0.728,0.725h2.795
				c0.402,0,0.727-0.325,0.728-0.725c0.003-0.8,0.655-1.452,1.456-1.452c0.8,0,1.453,0.651,1.456,1.452
				c0.001,0.401,0.327,0.725,0.728,0.725h2.795c0.401,0,0.726-0.325,0.728-0.725c0.002-0.8,0.655-1.452,1.456-1.452
				s1.454,0.651,1.456,1.452c0.001,0.401,0.327,0.725,0.728,0.725h2.795c0.401,0,0.726-0.325,0.727-0.725
				c0.003-0.8,0.655-1.452,1.456-1.452c0.801,0,1.453,0.651,1.456,1.452c0.001,0.401,0.327,0.725,0.728,0.725h2.795
				c0.402,0,0.728-0.326,0.728-0.728c0-0.803,0.653-1.456,1.456-1.456c0.402,0,0.728-0.326,0.728-0.728v-2.766
				c0-0.402-0.326-0.727-0.728-0.727c-0.803,0-1.456-0.653-1.456-1.456s0.653-1.456,1.456-1.456c0.402,0,0.728-0.326,0.728-0.728
				v-2.766c0-0.402-0.326-0.728-0.728-0.728c-0.803,0-1.456-0.653-1.456-1.456c0-0.802,0.653-1.456,1.456-1.456
				c0.402,0,0.728-0.326,0.728-0.728v-2.765c0-0.402-0.326-0.728-0.728-0.728c-0.803,0-1.456-0.653-1.456-1.456
				C108.74,25.28,109.393,24.627,110.195,24.627z M109.467,28.902v1.494c-1.254,0.324-2.183,1.465-2.183,2.819
				s0.929,2.495,2.183,2.819v1.495c-1.254,0.324-2.183,1.465-2.183,2.819s0.929,2.495,2.183,2.819v1.494
				c-1.021,0.264-1.828,1.069-2.091,2.091h-1.525c-0.327-1.25-1.467-2.176-2.817-2.176c-1.349,0-2.49,0.926-2.816,2.176h-1.528
				c-0.326-1.25-1.467-2.176-2.816-2.176s-2.49,0.926-2.817,2.176h-1.527c-0.327-1.25-1.467-2.176-2.817-2.176
				c-1.35,0-2.491,0.926-2.817,2.176h-1.527c-0.327-1.25-1.467-2.176-2.817-2.176s-2.49,0.926-2.817,2.176h-1.526
				c-0.264-1.022-1.069-1.828-2.091-2.091v-1.494c1.254-0.324,2.183-1.465,2.183-2.819s-0.929-2.495-2.183-2.819v-1.495
				c1.254-0.324,2.183-1.464,2.183-2.819c0-1.354-0.929-2.495-2.183-2.819v-1.494c1.254-0.324,2.183-1.465,2.183-2.819
				c0-1.354-0.929-2.495-2.183-2.818V21.77c1.021-0.264,1.827-1.069,2.091-2.091h1.524c0.324,1.254,1.464,2.184,2.818,2.184
				c1.354,0,2.496-0.929,2.819-2.184h1.523c0.324,1.254,1.465,2.184,2.819,2.184s2.495-0.929,2.819-2.184h1.523
				c0.324,1.254,1.465,2.184,2.818,2.184c1.354,0,2.495-0.929,2.819-2.184h1.524c0.324,1.254,1.464,2.184,2.818,2.184
				s2.495-0.929,2.819-2.184h1.524c0.263,1.021,1.069,1.828,2.091,2.091v1.495c-1.254,0.324-2.183,1.464-2.183,2.818
				S108.213,28.578,109.467,28.902z"/>
			<path fill="#FF224A" stroke="#000000" stroke-miterlimit="10" d="M105.101,23.317H79.483c-0.402,0-0.728,0.326-0.728,0.728
				v18.341c0,0.402,0.326,0.728,0.728,0.728h25.618c0.402,0,0.728-0.326,0.728-0.728v-18.34
				C105.829,23.643,105.502,23.317,105.101,23.317z M80.21,41.658v-3.429l7.314-5.995c0.286-0.234,0.807-0.234,1.092,0l11.499,9.424
				L80.21,41.658L80.21,41.658z M104.373,41.658L104.373,41.658h-1.961L89.54,31.108c-0.824-0.675-2.114-0.675-2.938,0l-6.392,5.238
				V24.773h24.163V41.658L104.373,41.658z"/>
			<path fill="#FF224A" stroke="#000000" stroke-miterlimit="10" d="M98.751,29.11c-1.366,0-2.479,1.112-2.479,2.479
				s1.112,2.479,2.479,2.479c1.367,0,2.479-1.112,2.479-2.479S100.118,29.11,98.751,29.11z M98.751,32.613
				c-0.564,0-1.023-0.459-1.023-1.024s0.459-1.024,1.023-1.024c0.565,0,1.024,0.46,1.024,1.024
				C99.775,32.153,99.315,32.613,98.751,32.613z"/>
			<path fill="#FF224A" stroke="#000000" stroke-miterlimit="10" d="M98.476,27.684h3.714c0.402,0,0.728-0.326,0.728-0.728
				c0-0.401-0.326-0.728-0.728-0.728h-3.714c-0.402,0-0.728,0.327-0.728,0.728C97.748,27.358,98.074,27.684,98.476,27.684z"/>
			<path fill="#FF224A" stroke="#000000" stroke-miterlimit="10" d="M96.367,27.684h0.018c0.402,0,0.728-0.326,0.728-0.728
				c0-0.402-0.327-0.728-0.728-0.728h-0.018c-0.402,0-0.728,0.326-0.728,0.728C95.639,27.358,95.965,27.684,96.367,27.684z"/>
			<path fill="#FF224A" stroke="#000000" stroke-miterlimit="10" d="M86.334,38.592H82.62c-0.402,0-0.728,0.326-0.728,0.728
				c0,0.401,0.326,0.728,0.728,0.728h3.715c0.402,0,0.728-0.326,0.728-0.728C87.062,38.918,86.736,38.592,86.334,38.592z"/>
			<path fill="#FF224A" stroke="#000000" stroke-miterlimit="10" d="M88.425,38.592c-0.402,0-0.727,0.326-0.727,0.728
				s0.326,0.728,0.727,0.728h0.018c0.402,0,0.728-0.327,0.728-0.728s-0.326-0.728-0.728-0.728H88.425z"/>
		</g>
	</g>
</g>
<path fill="#FF224A" d="M1.534,6.104c0.28,0.174,0.649,0.261,1.017,0.261c0.369,0,0.736-0.087,1.017-0.261L8.898,2.8H4.831
	L1.534,4.844C0.972,5.192,0.972,5.756,1.534,6.104z"/>
<path fill="#FF224A" d="M21.667,6.104c0.28,0.174,0.649,0.261,1.017,0.261c0.369,0,0.736-0.087,1.017-0.261L29.031,2.8h-4.067
	l-3.297,2.044C21.104,5.192,21.104,5.756,21.667,6.104z"/>
<path fill="#FF224A" d="M41.794,6.104c0.28,0.174,0.649,0.261,1.017,0.261c0.369,0,0.737-0.087,1.017-0.261L49.159,2.8h-4.067
	l-3.297,2.044C41.232,5.192,41.232,5.756,41.794,6.104z"/>
<path fill="#FF224A" d="M11.6,6.104c0.281,0.174,0.649,0.261,1.017,0.261s0.736-0.087,1.017-0.261L18.965,2.8h-4.067L11.6,4.844
	C11.038,5.192,11.038,5.756,11.6,6.104z"/>
<path fill="#FF224A" d="M31.733,6.104c0.281,0.174,0.648,0.261,1.017,0.261c0.368,0,0.736-0.087,1.017-0.261L39.098,2.8h-4.067
	l-3.298,2.044C31.171,5.192,31.171,5.756,31.733,6.104z"/>
<path fill="#FF224A" d="M51.344,6.104c0.28,0.174,0.648,0.261,1.017,0.261s0.736-0.087,1.017-0.261L58.708,2.8h-4.067l-3.297,2.044
	C50.781,5.192,50.781,5.756,51.344,6.104z"/>
<path fill="#FF224A" d="M-23.242,99.948c0,0.84-0.394,1.521-0.879,1.521l0,0c-0.485,0-0.879-0.681-0.879-1.521V4.521
	C-25,3.681-24.606,3-24.121,3l0,0c0.486,0,0.879,0.681,0.879,1.521V99.948z"/>
<path fill="#FF224A" d="M120.322,99.948c0,0.84-0.394,1.521-0.879,1.521l0,0c-0.486,0-0.879-0.681-0.879-1.521V4.521
	c0-0.84,0.394-1.521,0.879-1.521l0,0c0.485,0,0.879,0.681,0.879,1.521V99.948z"/>
<path fill="#FF224A" d="M120.504,3.792c0,0.437-0.709,0.792-1.583,0.792H-23.417C-24.291,4.583-25,4.229-25,3.792l0,0
	C-25,3.354-24.291,3-23.417,3h142.338C119.795,3,120.504,3.354,120.504,3.792L120.504,3.792z"/>
<path fill="#FF224A" d="M50.94,6.105c0.28,0.174,0.648,0.261,1.017,0.261c0.368,0,0.736-0.087,1.017-0.261L58.305,2.8h-4.067
	L50.94,4.844C50.377,5.193,50.377,5.756,50.94,6.105z"/>
<path fill="#FF224A" d="M61.006,6.105c0.28,0.174,0.649,0.261,1.017,0.261c0.369,0,0.736-0.087,1.017-0.261L68.371,2.8h-4.067
	l-3.297,2.044C60.444,5.193,60.444,5.756,61.006,6.105z"/>
<path fill="#FF224A" d="M81.139,6.105c0.28,0.174,0.649,0.261,1.017,0.261c0.369,0,0.736-0.087,1.017-0.261L88.503,2.8h-4.067
	l-3.297,2.044C80.577,5.193,80.577,5.756,81.139,6.105z"/>
<path fill="#FF224A" d="M101.267,6.105c0.28,0.174,0.649,0.261,1.017,0.261c0.369,0,0.737-0.087,1.017-0.261l5.331-3.305h-4.067
	l-3.297,2.044C100.705,5.193,100.705,5.756,101.267,6.105z"/>
<path fill="#FF224A" d="M71.072,6.105c0.281,0.174,0.649,0.261,1.017,0.261s0.736-0.087,1.017-0.261L78.438,2.8H74.37l-3.298,2.044
	C70.51,5.193,70.51,5.756,71.072,6.105z"/>
<path fill="#FF224A" d="M91.206,6.105c0.281,0.174,0.648,0.261,1.017,0.261c0.368,0,0.736-0.087,1.017-0.261L98.57,2.8h-4.067
	l-3.298,2.044C90.644,5.193,90.644,5.756,91.206,6.105z"/>
<path fill="#FF224A" d="M110.816,6.105c0.28,0.174,0.648,0.261,1.017,0.261s0.736-0.087,1.017-0.261l5.331-3.305h-4.067
	l-3.297,2.044C110.254,5.193,110.254,5.756,110.816,6.105z"/>
<path fill="#FF224A" d="M114.104,98.164c-0.281-0.174-0.649-0.261-1.017-0.261s-0.737,0.087-1.017,0.261l-5.331,3.305h4.066
	l3.298-2.044C114.666,99.076,114.666,98.513,114.104,98.164z"/>
<path fill="#FF224A" d="M104.037,98.164c-0.28-0.174-0.648-0.261-1.017-0.261c-0.368,0-0.736,0.087-1.017,0.261l-5.331,3.305h4.067
	l3.297-2.044C104.6,99.076,104.6,98.513,104.037,98.164z"/>
<path fill="#FF224A" d="M93.971,98.164c-0.28-0.174-0.649-0.261-1.017-0.261c-0.369,0-0.736,0.087-1.017,0.261l-5.331,3.305h4.067
	l3.297-2.044C94.533,99.076,94.533,98.513,93.971,98.164z"/>
<path fill="#FF224A" d="M73.838,98.164c-0.28-0.174-0.649-0.261-1.017-0.261c-0.369,0-0.736,0.087-1.017,0.261l-5.331,3.305h4.067
	l3.297-2.044C74.4,99.076,74.4,98.513,73.838,98.164z"/>
<path fill="#FF224A" d="M53.71,98.164c-0.28-0.174-0.649-0.261-1.017-0.261c-0.369,0-0.737,0.087-1.017,0.261l-5.331,3.305h4.067
	l3.297-2.044C54.272,99.076,54.272,98.513,53.71,98.164z"/>
<path fill="#FF224A" d="M83.905,98.164c-0.281-0.174-0.649-0.261-1.017-0.261s-0.736,0.087-1.017,0.261l-5.331,3.305h4.067
	l3.298-2.044C84.467,99.076,84.467,98.513,83.905,98.164z"/>
<path fill="#FF224A" d="M63.771,98.164c-0.281-0.174-0.648-0.261-1.017-0.261c-0.368,0-0.736,0.087-1.017,0.261l-5.331,3.305h4.067
	l3.298-2.044C64.333,99.076,64.333,98.513,63.771,98.164z"/>
<path fill="#FF224A" d="M44.161,98.164c-0.28-0.174-0.648-0.261-1.017-0.261s-0.736,0.087-1.017,0.261l-5.331,3.305h4.067
	l3.297-2.044C44.723,99.076,44.723,98.513,44.161,98.164z"/>
<path fill="#FF224A" d="M-25,100.477c0-0.437,0.709-0.792,1.583-0.792h142.338c0.874,0,1.583,0.354,1.583,0.792l0,0
	c0,0.437-0.709,0.792-1.583,0.792H-23.417C-24.291,101.269-25,100.914-25,100.477L-25,100.477z"/>
<path fill="#FF224A" d="M44.564,98.164c-0.28-0.174-0.648-0.261-1.017-0.261c-0.368,0-0.736,0.087-1.017,0.261l-5.331,3.305h4.067
	l3.297-2.044C45.127,99.076,45.127,98.512,44.564,98.164z"/>
<path fill="#FF224A" d="M34.498,98.164c-0.28-0.174-0.649-0.261-1.017-0.261c-0.369,0-0.736,0.087-1.017,0.261l-5.331,3.305h4.067
	l3.297-2.044C35.06,99.076,35.06,98.512,34.498,98.164z"/>
<path fill="#FF224A" d="M14.365,98.164c-0.28-0.174-0.649-0.261-1.017-0.261c-0.369,0-0.736,0.087-1.017,0.261l-5.331,3.305h4.067
	l3.297-2.044C14.927,99.076,14.927,98.512,14.365,98.164z"/>
<path fill="#FF224A" d="M-5.763,98.164c-0.28-0.174-0.649-0.261-1.017-0.261c-0.369,0-0.737,0.087-1.017,0.261l-5.331,3.305h4.067
	l3.297-2.044C-5.201,99.076-5.201,98.512-5.763,98.164z"/>
<path fill="#FF224A" d="M24.432,98.164c-0.281-0.174-0.649-0.261-1.017-0.261s-0.736,0.087-1.017,0.261l-5.331,3.305h4.067
	l3.298-2.044C24.994,99.076,24.994,98.512,24.432,98.164z"/>
<path fill="#FF224A" d="M4.299,98.164c-0.281-0.174-0.648-0.261-1.017-0.261c-0.368,0-0.736,0.087-1.017,0.261l-5.331,3.305h4.067
	l3.298-2.044C4.861,99.076,4.861,98.512,4.299,98.164z"/>
<path fill="#FF224A" d="M-15.312,98.164c-0.28-0.174-0.648-0.261-1.017-0.261s-0.736,0.087-1.017,0.261l-5.331,3.305h4.067
	l3.297-2.044C-14.75,99.076-14.75,98.512-15.312,98.164z"/>
</svg>
