<?xml version="1.0" encoding="utf-8"?>
<!-- Generator: Adobe Illustrator 16.0.0, SVG Export Plug-In . SVG Version: 6.00 Build 0)  -->
<!DOCTYPE svg PUBLIC "-//W3C//DTD SVG 1.1//EN" "http://www.w3.org/Graphics/SVG/1.1/DTD/svg11.dtd">
<svg version="1.1" id="Capa_1" xmlns="http://www.w3.org/2000/svg" xmlns:xlink="http://www.w3.org/1999/xlink" x="0px" y="0px"
	 width="996px" height="691px" viewBox="0 0 996 691" enable-background="new 0 0 996 691" xml:space="preserve">
<path fill="#FFFFFF" d="M855.534,89.354l-48.383,44.165c-2.545,2.323-5.886,3.491-9.227,3.491c-3.342,0-6.684-1.168-9.229-3.491
	c-5.104-4.659-5.104-12.188,0-16.846l29.928-27.318h-54.452l-48.382,44.165c-2.546,2.323-5.887,3.491-9.228,3.491
	c-3.342,0-6.684-1.168-9.229-3.491c-5.104-4.659-5.104-12.188,0-16.846l29.928-27.318h-54.451l-48.383,44.165
	c-2.545,2.323-5.887,3.491-9.228,3.491c-3.342,0-6.683-1.168-9.229-3.491c-5.103-4.659-5.103-12.188,0-16.846l29.928-27.318h-54.451
	l-48.383,44.165c-2.545,2.323-5.886,3.491-9.227,3.491c-3.343,0-6.684-1.168-9.229-3.491c-5.104-4.659-5.104-12.188,0-16.846
	l29.928-27.318h-54.452l-48.383,44.165c-2.545,2.323-5.887,3.491-9.228,3.491c-3.341,0-6.683-1.168-9.228-3.491
	c-5.103-4.659-5.103-12.188,0-16.846l29.928-27.318h-54.452l-48.383,44.165c-2.545,2.323-5.886,3.491-9.228,3.491
	s-6.683-1.168-9.228-3.491c-5.103-4.659-5.103-12.188,0-16.846l29.928-27.318h-54.451l-48.383,44.165
	c-2.545,2.323-5.887,3.491-9.228,3.491s-6.682-1.168-9.228-3.491c-5.103-4.659-5.103-12.188,0-16.846l29.928-27.318H216
	l-48.383,44.165c-2.545,2.323-5.886,3.491-9.228,3.491c-3.341,0-6.682-1.168-9.227-3.491c-5.103-4.659-5.103-12.188,0-16.846
	l29.928-27.318h-59.855v1.239v511.054h20.7l48.382-44.164c5.103-4.658,13.352-4.658,18.456,0c5.103,4.658,5.103,12.188,0,16.846
	l-29.928,27.318h54.452l48.382-44.164c5.104-4.658,13.352-4.658,18.455,0c5.104,4.658,5.103,12.188,0,16.846l-29.928,27.318h54.452
	l48.383-44.164c5.103-4.658,13.352-4.658,18.455,0c5.103,4.658,5.103,12.188,0,16.846l-29.928,27.318h54.452l48.382-44.164
	c5.104-4.658,13.354-4.658,18.456,0c5.104,4.658,5.104,12.188,0,16.846l-29.927,27.318h54.451l48.382-44.164
	c5.104-4.658,13.353-4.658,18.456,0s5.104,12.188,0,16.846l-29.928,27.318h54.451l48.384-44.164c5.104-4.658,13.352-4.658,18.455,0
	c5.103,4.658,5.103,12.188,0,16.846l-29.928,27.318h54.451l48.384-44.164c5.103-4.658,13.352-4.658,18.454,0
	c5.104,4.658,5.104,12.188,0,16.846l-29.927,27.318h54.451l48.383-44.164c5.104-4.658,13.352-4.658,18.455,0s5.104,12.188,0,16.846
	l-29.928,27.318h59.855V90.592v-1.239H855.534z"/>
<path fill="#1C3144" d="M206.772,557.482c-5.104-4.658-13.353-4.658-18.456,0l-48.382,44.164h36.91l29.928-27.318
	C211.875,569.67,211.875,562.141,206.772,557.482z"/>
<path fill="#331E36" d="M298.134,557.482c-5.103-4.658-13.352-4.658-18.455,0l-48.382,44.164h36.91l29.928-27.318
	C303.237,569.67,303.237,562.141,298.134,557.482z"/>
<path fill="#1C3144" d="M389.497,557.482c-5.104-4.658-13.352-4.658-18.455,0l-48.383,44.164h36.911l29.927-27.318
	C394.6,569.67,394.6,562.141,389.497,557.482z"/>
<path fill="#331E36" d="M480.858,557.482c-5.103-4.658-13.353-4.658-18.456,0l-48.382,44.164h36.911l29.927-27.318
	C485.962,569.67,485.962,562.141,480.858,557.482z"/>
<path fill="#1C3144" d="M572.221,557.482c-5.104-4.658-13.352-4.658-18.456,0l-48.382,44.164h36.91l29.928-27.318
	C577.324,569.67,577.324,562.141,572.221,557.482z"/>
<path fill="#331E36" d="M663.583,557.482c-5.104-4.658-13.352-4.658-18.455,0l-48.384,44.164h36.911l29.928-27.318
	C668.686,569.67,668.686,562.141,663.583,557.482z"/>
<path fill="#1C3144" d="M754.944,557.482c-5.103-4.658-13.352-4.658-18.454,0l-48.384,44.164h36.911l29.927-27.318
	C760.048,569.67,760.048,562.141,754.944,557.482z"/>
<path fill="#331E36" d="M846.307,557.482c-5.104-4.658-13.352-4.658-18.455,0l-48.383,44.164h36.91l29.928-27.318
	C851.41,569.67,851.41,562.141,846.307,557.482z"/>
<path fill="#1C3144" d="M149.162,133.518c2.545,2.323,5.886,3.491,9.227,3.491c3.342,0,6.683-1.168,9.228-3.491L216,89.354h-36.91
	l-29.928,27.318C144.059,121.33,144.059,128.859,149.162,133.518z"/>
<path fill="#331E36" d="M240.524,133.518c2.545,2.323,5.886,3.491,9.228,3.491s6.683-1.168,9.228-3.491l48.383-44.165h-36.911
	l-29.928,27.318C235.421,121.33,235.421,128.859,240.524,133.518z"/>
<path fill="#1C3144" d="M331.886,133.518c2.545,2.323,5.887,3.491,9.228,3.491s6.682-1.168,9.228-3.491l48.383-44.165h-36.911
	l-29.928,27.318C326.783,121.33,326.783,128.859,331.886,133.518z"/>
<path fill="#331E36" d="M423.248,133.518c2.545,2.323,5.886,3.491,9.228,3.491c3.341,0,6.683-1.168,9.228-3.491l48.383-44.165
	h-36.91l-29.928,27.318C418.145,121.33,418.145,128.859,423.248,133.518z"/>
<path fill="#1C3144" d="M514.61,133.518c2.545,2.323,5.886,3.491,9.229,3.491c3.341,0,6.682-1.168,9.227-3.491l48.383-44.165h-36.91
	l-29.928,27.318C509.507,121.33,509.507,128.859,514.61,133.518z"/>
<path fill="#331E36" d="M605.972,133.518c2.546,2.323,5.887,3.491,9.229,3.491c3.341,0,6.683-1.168,9.228-3.491l48.383-44.165
	h-36.911l-29.928,27.318C600.869,121.33,600.869,128.859,605.972,133.518z"/>
<path fill="#1C3144" d="M697.334,133.518c2.545,2.323,5.887,3.491,9.229,3.491c3.341,0,6.682-1.168,9.228-3.491l48.382-44.165
	h-36.91l-29.928,27.318C692.23,121.33,692.23,128.859,697.334,133.518z"/>
<path fill="#331E36" d="M788.696,133.518c2.545,2.323,5.887,3.491,9.229,3.491c3.341,0,6.682-1.168,9.227-3.491l48.383-44.165
	h-36.91l-29.928,27.318C783.593,121.33,783.593,128.859,788.696,133.518z"/>
<g>
	<g>
		<g>
			<path fill="#1C3144" d="M838.185,191.47c2.091,0,3.786-1.695,3.786-3.786v-14.39c0-2.091-1.695-3.786-3.786-3.786
				c-4.176,0-7.573-3.397-7.573-7.573c0-2.091-1.696-3.786-3.787-3.786h-14.539c-2.092,0-3.787,1.695-3.787,3.786
				c0,4.176-3.397,7.573-7.573,7.573c-4.175,0-7.572-3.397-7.572-7.573c0-2.091-1.695-3.786-3.786-3.786h-14.54
				c-2.092,0-3.786,1.695-3.786,3.786c0,4.176-3.397,7.573-7.573,7.573s-7.573-3.397-7.573-7.573c0-2.091-1.694-3.786-3.786-3.786
				h-14.54c-2.091,0-3.786,1.695-3.786,3.786c0,4.176-3.397,7.573-7.573,7.573s-7.573-3.397-7.573-7.573
				c0-2.091-1.695-3.786-3.786-3.786h-14.54c-2.091,0-3.786,1.695-3.786,3.786c0,4.176-3.397,7.573-7.573,7.573
				c-4.175,0-7.573-3.397-7.573-7.573c0-2.091-1.694-3.786-3.786-3.786h-14.54c-2.091,0-3.786,1.695-3.786,3.786
				c0,4.176-3.397,7.573-7.572,7.573c-2.092,0-3.787,1.695-3.787,3.786v14.39c0,2.091,1.695,3.786,3.787,3.786
				c4.175,0,7.572,3.397,7.572,7.572c0,4.176-3.397,7.574-7.572,7.574c-2.092,0-3.787,1.694-3.787,3.786v14.388
				c0,2.091,1.695,3.786,3.787,3.786c4.175,0,7.572,3.397,7.572,7.573s-3.397,7.573-7.572,7.573c-2.092,0-3.787,1.695-3.787,3.787
				v14.389c0,2.091,1.695,3.786,3.787,3.786c4.175,0,7.572,3.396,7.572,7.572s-3.397,7.573-7.572,7.573
				c-2.092,0-3.787,1.696-3.787,3.786v14.389c0,2.092,1.695,3.786,3.787,3.786c4.175,0,7.572,3.397,7.572,7.574
				c0,2.091,1.695,3.786,3.786,3.786h14.54c2.087,0,3.78-1.688,3.786-3.774c0.014-4.164,3.41-7.551,7.573-7.551
				s7.561,3.387,7.572,7.55c0.007,2.087,1.699,3.775,3.786,3.775h14.542c2.087,0,3.78-1.688,3.786-3.775
				c0.012-4.163,3.409-7.55,7.572-7.55s7.561,3.387,7.572,7.55c0.007,2.087,1.7,3.775,3.786,3.775h14.542
				c2.087,0,3.78-1.688,3.786-3.775c0.012-4.163,3.409-7.55,7.572-7.55s7.56,3.387,7.573,7.55c0.006,2.087,1.699,3.775,3.786,3.775
				h14.54c2.087,0,3.78-1.688,3.786-3.775c0.013-4.163,3.41-7.55,7.572-7.55c4.163,0,7.561,3.387,7.572,7.55
				c0.007,2.087,1.7,3.775,3.787,3.775h14.54c2.091,0,3.787-1.695,3.787-3.786c0-4.177,3.397-7.574,7.573-7.574
				c2.091,0,3.786-1.694,3.786-3.786v-14.388c0-2.091-1.695-3.786-3.786-3.786c-4.176-0.001-7.573-3.397-7.573-7.574
				c0-4.176,3.397-7.572,7.573-7.572c2.091,0,3.786-1.694,3.786-3.786V247.51c0-2.091-1.695-3.786-3.786-3.786
				c-4.176,0-7.573-3.398-7.573-7.574c0-4.175,3.397-7.572,7.573-7.572c2.091,0,3.786-1.695,3.786-3.787v-14.388
				c0-2.091-1.695-3.786-3.786-3.786c-4.176,0-7.573-3.397-7.573-7.573S834.009,191.47,838.185,191.47z M834.397,213.71v7.773
				c-6.525,1.685-11.359,7.622-11.359,14.666c0,7.045,4.834,12.981,11.359,14.667v7.774c-6.525,1.686-11.359,7.622-11.359,14.666
				c0,7.045,4.834,12.982,11.359,14.667v7.773c-5.314,1.373-9.507,5.565-10.88,10.881h-7.936c-1.7-6.506-7.633-11.325-14.657-11.325
				c-7.022,0-12.955,4.819-14.655,11.325h-7.946c-1.7-6.506-7.634-11.325-14.656-11.325c-7.023,0-12.957,4.819-14.656,11.325h-7.946
				c-1.699-6.506-7.633-11.325-14.656-11.325s-12.957,4.819-14.656,11.325h-7.946c-1.699-6.506-7.633-11.325-14.656-11.325
				c-7.022,0-12.956,4.819-14.656,11.325h-7.937c-1.373-5.315-5.565-9.508-10.88-10.881v-7.773
				c6.525-1.685,11.359-7.622,11.359-14.667c0-7.044-4.834-12.98-11.359-14.666v-7.773c6.525-1.686,11.359-7.622,11.359-14.667
				s-4.834-12.981-11.359-14.667v-7.773c6.525-1.685,11.359-7.622,11.359-14.667c0-7.044-4.834-12.98-11.359-14.665v-7.776
				c5.314-1.373,9.507-5.565,10.88-10.88h7.926c1.686,6.525,7.622,11.359,14.666,11.359c7.045,0,12.981-4.834,14.667-11.359h7.925
				c1.687,6.525,7.622,11.359,14.667,11.359s12.981-4.834,14.667-11.359H749c1.685,6.525,7.622,11.359,14.666,11.359
				s12.981-4.834,14.667-11.359h7.926c1.686,6.525,7.622,11.359,14.666,11.359s12.981-4.834,14.666-11.359h7.926
				c1.373,5.314,5.565,9.507,10.881,10.88v7.775c-6.525,1.685-11.359,7.621-11.359,14.665
				C823.038,206.087,827.872,212.025,834.397,213.71z"/>
			<path fill="#1C3144" d="M811.679,184.654H678.396c-2.092,0-3.787,1.695-3.787,3.787v95.419c0,2.092,1.695,3.786,3.787,3.786
				h133.283c2.091,0,3.786-1.694,3.786-3.786v-95.419C815.465,186.349,813.77,184.654,811.679,184.654z M682.182,280.074v-17.84
				l38.055-31.188c1.487-1.218,4.195-1.218,5.682,0l59.825,49.027H682.182z M807.893,280.074L807.893,280.074H797.69l-66.972-54.885
				c-4.284-3.512-10.997-3.512-15.282,0l-33.255,27.253v-60.215h125.711V280.074z"/>
			<path fill="#1C3144" d="M778.645,214.792c-7.112,0-12.898,5.786-12.898,12.897c0,7.112,5.786,12.898,12.898,12.898
				c7.111,0,12.896-5.786,12.896-12.898C791.541,220.578,785.756,214.792,778.645,214.792z M778.645,233.014
				c-2.937,0-5.326-2.39-5.326-5.325c0-2.937,2.39-5.325,5.326-5.325c2.936,0,5.323,2.389,5.323,5.325
				S781.58,233.014,778.645,233.014z"/>
			<path fill="#1C3144" d="M777.21,207.373h19.324c2.092,0,3.786-1.695,3.786-3.786c0-2.092-1.694-3.787-3.786-3.787H777.21
				c-2.091,0-3.787,1.695-3.787,3.787C773.423,205.677,775.118,207.373,777.21,207.373z"/>
			<path fill="#1C3144" d="M766.241,207.374h0.09c2.091,0,3.787-1.695,3.787-3.786c0-2.092-1.696-3.787-3.787-3.787h-0.09
				c-2.092,0-3.786,1.695-3.786,3.787C762.455,205.678,764.149,207.374,766.241,207.374z"/>
			<path fill="#1C3144" d="M714.041,264.123h-19.324c-2.091,0-3.786,1.696-3.786,3.787s1.695,3.786,3.786,3.786h19.324
				c2.092,0,3.787-1.695,3.787-3.786S716.133,264.123,714.041,264.123z"/>
			<path fill="#1C3144" d="M724.919,264.125c-2.091,0-3.786,1.695-3.786,3.786c0,2.092,1.695,3.786,3.786,3.786h0.091
				c2.091,0,3.786-1.694,3.786-3.786c0-2.091-1.695-3.786-3.786-3.786H724.919z"/>
		</g>
	</g>
</g>
</svg>
