<?xml version="1.0" encoding="utf-8"?>
<!-- Generator: Adobe Illustrator 16.0.0, SVG Export Plug-In . SVG Version: 6.00 Build 0)  -->
<!DOCTYPE svg PUBLIC "-//W3C//DTD SVG 1.1//EN" "http://www.w3.org/Graphics/SVG/1.1/DTD/svg11.dtd">
<svg version="1.1" id="Capa_1" xmlns="http://www.w3.org/2000/svg" xmlns:xlink="http://www.w3.org/1999/xlink" x="0px" y="0px"
	 width="996px" height="691px" viewBox="0 0 996 691" enable-background="new 0 0 996 691" xml:space="preserve">
<circle fill="#D00000" cx="489.391" cy="345.5" r="325"/>
<g>
	<path fill="#E5E5DA" d="M702.064,205.271l-28.198,22.493c-1.483,1.183-3.431,1.777-5.378,1.777c-1.946,0-3.896-0.595-5.378-1.777
		c-2.975-2.373-2.975-6.208,0-8.58l17.442-13.913h-31.735l-28.197,22.493c-1.484,1.183-3.431,1.777-5.378,1.777
		s-3.896-0.595-5.378-1.777c-2.975-2.373-2.975-6.208,0-8.58l17.441-13.913h-31.734l-28.197,22.493
		c-1.483,1.183-3.431,1.777-5.378,1.777c-1.948,0-3.896-0.595-5.379-1.777c-2.974-2.373-2.974-6.208,0-8.58l17.442-13.913h-31.734
		l-28.198,22.493c-1.482,1.183-3.431,1.777-5.377,1.777c-1.948,0-3.895-0.595-5.379-1.777c-2.975-2.373-2.975-6.208,0-8.58
		l17.442-13.913h-31.735l-28.197,22.493c-1.483,1.183-3.432,1.777-5.378,1.777s-3.895-0.595-5.377-1.777
		c-2.975-2.373-2.975-6.208,0-8.58l17.441-13.913h-31.734l-28.198,22.493c-1.482,1.183-3.43,1.777-5.377,1.777
		c-1.948,0-3.895-0.595-5.378-1.777c-2.974-2.373-2.974-6.208,0-8.58l17.442-13.913h-31.734l-28.198,22.493
		c-1.484,1.183-3.431,1.777-5.378,1.777c-1.947,0-3.894-0.595-5.377-1.777c-2.974-2.373-2.974-6.208,0-8.58l17.442-13.913h-31.735
		l-28.197,22.493c-1.484,1.183-3.43,1.777-5.378,1.777c-1.947,0-3.895-0.595-5.378-1.777c-2.974-2.373-2.974-6.208,0-8.58
		l17.442-13.913h-34.883v0.631V466.18h12.063l28.198-22.492c2.974-2.373,7.781-2.373,10.756,0c2.974,2.372,2.974,6.207,0,8.579
		L306.52,466.18h31.735l28.197-22.492c2.975-2.373,7.782-2.373,10.756,0c2.975,2.372,2.975,6.207,0,8.579l-17.442,13.913h31.735
		l28.198-22.492c2.974-2.373,7.781-2.373,10.756,0c2.973,2.372,2.973,6.207,0,8.579l-17.442,13.913h31.734l28.198-22.492
		c2.973-2.373,7.781-2.373,10.756,0c2.973,2.372,2.973,6.207,0,8.579l-17.443,13.913h31.736l28.197-22.492
		c2.975-2.373,7.781-2.373,10.756,0c2.975,2.372,2.975,6.207,0,8.579l-17.441,13.913h31.734l28.197-22.492
		c2.974-2.373,7.781-2.373,10.756,0c2.974,2.372,2.974,6.207,0,8.579l-17.442,13.913h31.734l28.198-22.492
		c2.975-2.373,7.781-2.373,10.756,0c2.975,2.372,2.975,6.207,0,8.579l-17.442,13.913h31.735l28.198-22.492
		c2.974-2.373,7.781-2.373,10.755,0c2.975,2.372,2.975,6.207,0,8.579l-17.441,13.913h34.884V205.902v-0.631H702.064z"/>
	<path fill="#7FB1C8" d="M323.962,443.688c-2.975-2.373-7.782-2.373-10.756,0l-28.198,22.492h21.512l17.442-13.913
		C326.936,449.895,326.936,446.06,323.962,443.688z"/>
	<path fill="#E59677" d="M377.208,443.688c-2.974-2.373-7.781-2.373-10.756,0l-28.197,22.492h21.511l17.442-13.913
		C380.183,449.895,380.183,446.06,377.208,443.688z"/>
	<path fill="#7FB1C8" d="M430.455,443.688c-2.975-2.373-7.782-2.373-10.756,0l-28.198,22.492h21.512l17.442-13.913
		C433.428,449.895,433.428,446.06,430.455,443.688z"/>
	<path fill="#E59677" d="M483.701,443.688c-2.975-2.373-7.783-2.373-10.756,0l-28.198,22.492h21.511l17.443-13.913
		C486.674,449.895,486.674,446.06,483.701,443.688z"/>
	<path fill="#7FB1C8" d="M536.947,443.688c-2.975-2.373-7.781-2.373-10.756,0l-28.197,22.492h21.512l17.441-13.913
		C539.922,449.895,539.922,446.06,536.947,443.688z"/>
	<path fill="#E59677" d="M590.193,443.688c-2.975-2.373-7.782-2.373-10.756,0L551.24,466.18h21.511l17.442-13.913
		C593.167,449.895,593.167,446.06,590.193,443.688z"/>
	<path fill="#7FB1C8" d="M643.439,443.688c-2.975-2.373-7.781-2.373-10.756,0l-28.198,22.492h21.512l17.442-13.913
		C646.414,449.895,646.414,446.06,643.439,443.688z"/>
	<path fill="#E59677" d="M696.686,443.688c-2.974-2.373-7.781-2.373-10.755,0l-28.198,22.492h21.512l17.441-13.913
		C699.66,449.895,699.66,446.06,696.686,443.688z"/>
	<path fill="#7FB1C8" d="M290.386,227.764c1.483,1.183,3.431,1.777,5.378,1.777c1.948,0,3.895-0.595,5.378-1.777l28.197-22.493
		h-21.512l-17.442,13.913C287.412,221.556,287.412,225.391,290.386,227.764z"/>
	<path fill="#E59677" d="M343.632,227.764c1.484,1.183,3.431,1.777,5.377,1.777c1.948,0,3.895-0.595,5.378-1.777l28.198-22.493
		h-21.512l-17.442,13.913C340.659,221.556,340.659,225.391,343.632,227.764z"/>
	<path fill="#7FB1C8" d="M396.878,227.764c1.484,1.183,3.43,1.777,5.378,1.777c1.947,0,3.895-0.595,5.377-1.777l28.198-22.493
		h-21.511l-17.442,13.913C393.905,221.556,393.905,225.391,396.878,227.764z"/>
	<path fill="#E59677" d="M450.125,227.764c1.482,1.183,3.43,1.777,5.377,1.777s3.895-0.595,5.378-1.777l28.197-22.493h-21.512
		l-17.441,13.913C447.15,221.556,447.15,225.391,450.125,227.764z"/>
	<path fill="#7FB1C8" d="M503.371,227.764c1.484,1.183,3.431,1.777,5.379,1.777c1.946,0,3.895-0.595,5.377-1.777l28.198-22.493
		h-21.512l-17.442,13.913C500.396,221.556,500.396,225.391,503.371,227.764z"/>
	<path fill="#E59677" d="M556.617,227.764c1.483,1.183,3.431,1.777,5.379,1.777c1.947,0,3.895-0.595,5.378-1.777l28.197-22.493
		H574.06l-17.442,13.913C553.644,221.556,553.644,225.391,556.617,227.764z"/>
	<path fill="#7FB1C8" d="M609.864,227.764c1.482,1.183,3.431,1.777,5.378,1.777s3.894-0.595,5.378-1.777l28.197-22.493h-21.512
		l-17.441,13.913C606.89,221.556,606.89,225.391,609.864,227.764z"/>
	<path fill="#E59677" d="M663.11,227.764c1.482,1.183,3.432,1.777,5.378,1.777c1.947,0,3.895-0.595,5.378-1.777l28.198-22.493
		h-21.512l-17.442,13.913C660.136,221.556,660.136,225.391,663.11,227.764z"/>
	<rect x="600.028" y="278.083" fill="#D75A4A" width="60.854" height="48.541"/>
	<path fill="#C4C2A5" d="M478.323,314.489H326.19c-4.199,0-7.606-2.712-7.606-6.068c0-3.356,3.408-6.068,7.606-6.068h152.133
		c4.198,0,7.605,2.712,7.605,6.068C485.929,311.776,482.521,314.489,478.323,314.489z"/>
	<path fill="#C4C2A5" d="M478.323,344.827H326.19c-4.199,0-7.606-2.713-7.606-6.068c0-3.356,3.408-6.068,7.606-6.068h152.133
		c4.198,0,7.605,2.712,7.605,6.068C485.929,342.114,482.521,344.827,478.323,344.827z"/>
	<path fill="#C4C2A5" d="M387.043,284.15H326.19c-4.199,0-7.606-2.712-7.606-6.068c0-3.356,3.408-6.068,7.606-6.068h60.854
		c4.199,0,7.607,2.712,7.607,6.068C394.65,281.438,391.242,284.15,387.043,284.15z"/>
</g>
</svg>
