<?xml version="1.0" encoding="utf-8"?>
<!-- Generator: Adobe Illustrator 16.0.0, SVG Export Plug-In . SVG Version: 6.00 Build 0)  -->
<!DOCTYPE svg PUBLIC "-//W3C//DTD SVG 1.1//EN" "http://www.w3.org/Graphics/SVG/1.1/DTD/svg11.dtd">
<svg version="1.1" id="Layer_1" xmlns="http://www.w3.org/2000/svg" xmlns:xlink="http://www.w3.org/1999/xlink" x="0px" y="0px"
	 width="520.678px" height="371.083px" viewBox="0 0 520.678 371.083" enable-background="new 0 0 520.678 371.083"
	 xml:space="preserve">
<g>
	<g>
		<path fill="#EF4323" d="M461.513,39.918c-25.399-9.072-60.778-3.628-87.085-2.721c-39.914,0.909-79.829,4.537-120.651,4.537
			c-39.005,0-78.015-3.628-116.115-9.979c-29.936-4.535-55.335-9.072-85.271-2.721c-4.537,0.907-6.351,4.535-5.444,8.163
			c-1.813-2.719-7.257-1.814-7.257,1.815c-7.257,77.106-4.536,156.028-5.441,233.132c0,45.361,9.071,52.618,53.52,56.245
			c77.108,6.35,155.123,9.07,232.228,8.164c35.38,0,72.574,0.906,107.044-3.629c15.422-1.813,29.029-2.722,39.008-16.33
			c10.888-13.607,9.979-35.378,11.792-51.706c3.627-35.378,5.44-69.85,5.44-105.229C483.281,132.449,495.984,52.622,461.513,39.918z
			 M443.371,303.897c-34.474,29.028-113.394,16.332-157.844,17.234c-53.518,0-107.04-0.902-160.561-4.533
			c-31.75-1.816-66.223,3.629-75.295-35.377c-4.535-20.866,0-49.895,0.908-71.666c0.908-57.151,3.629-113.396-0.908-170.546
			c0,0,0,0,0-0.905c1.815,2.721,4.537,5.442,8.165,4.535c53.521-9.072,109.765,11.793,163.287,13.609
			c48.987,1.812,97.062-2.723,146.046-4.537c19.055-0.907,58.967-9.072,77.111-2.723c31.749,11.793,24.488,58.966,24.488,85.273
			C466.955,178.713,476.937,275.779,443.371,303.897z"/>
		<path fill="#EF4223" d="M118.612,80.743c-7.257,1.816-13.607,5.442-19.05,9.979c-4.535-4.537-9.978-7.259-15.42-9.072
			c-7.258-1.813-12.701,5.444-9.072,12.7c3.627,7.256,9.072,12.7,16.327,16.328c0,0,0,0,0,0.909
			c0.908,3.626,2.722,5.441,5.444,6.348c1.815,2.722,5.442,3.628,9.072,2.722c11.793-2.722,19.957-18.142,22.679-29.935
			C129.499,84.371,124.963,78.928,118.612,80.743z"/>
	</g>
</g>
</svg>
