<?xml version="1.0" encoding="utf-8"?>
<!-- Generator: Adobe Illustrator 16.0.0, SVG Export Plug-In . SVG Version: 6.00 Build 0)  -->
<!DOCTYPE svg PUBLIC "-//W3C//DTD SVG 1.1//EN" "http://www.w3.org/Graphics/SVG/1.1/DTD/svg11.dtd">
<svg version="1.1" id="Layer_1" xmlns="http://www.w3.org/2000/svg" xmlns:xlink="http://www.w3.org/1999/xlink" x="0px" y="0px"
	 width="520.678px" height="371.083px" viewBox="0 0 520.678 371.083" enable-background="new 0 0 520.678 371.083"
	 xml:space="preserve">
<g>
	<g>
		<path fill="#EF4323" d="M461.513,39.918c-25.397-9.072-60.776-3.628-87.084-2.721c-39.914,0.909-79.83,4.537-120.652,4.537
			c-39.005,0-78.015-3.628-116.115-9.979c-29.936-4.535-55.335-9.072-85.271-2.721c-4.537,0.907-6.351,4.535-5.444,8.163
			c-1.813-2.719-7.257-1.814-7.257,1.815c-7.257,77.106-4.536,156.027-5.441,233.132c0,45.36,9.071,52.618,53.52,56.245
			c77.108,6.35,155.123,9.07,232.228,8.164c35.38,0,72.574,0.906,107.044-3.629c15.422-1.812,29.029-2.723,39.008-16.33
			c10.889-13.607,9.979-35.379,11.792-51.706c3.627-35.378,5.44-69.851,5.44-105.229C483.281,132.449,495.984,52.622,461.513,39.918
			z M443.371,303.897c-34.474,29.027-113.394,16.332-157.845,17.234c-53.519,0-107.041-0.902-160.562-4.533
			c-31.75-1.816-66.223,3.629-75.295-35.377c-4.535-20.866,0-49.895,0.908-71.666c0.908-57.151,3.629-113.396-0.908-170.546
			c0,0,0,0,0-0.905c1.815,2.721,4.537,5.442,8.165,4.535c53.521-9.072,109.765,11.793,163.287,13.609
			c48.986,1.812,97.062-2.723,146.046-4.537c19.056-0.907,58.967-9.072,77.111-2.723c31.749,11.793,24.486,58.966,24.486,85.271
			C466.955,178.713,476.938,275.779,443.371,303.897z"/>
		<path fill="#EF4223" d="M118.612,80.743c-7.257,1.816-13.607,5.442-19.05,9.979c-4.535-4.537-9.978-7.259-15.42-9.072
			c-7.258-1.813-12.701,5.444-9.072,12.7c3.627,7.256,9.072,12.7,16.327,16.328c0,0,0,0,0,0.909
			c0.908,3.626,2.722,5.441,5.444,6.348c1.815,2.722,5.442,3.628,9.072,2.722c11.793-2.722,19.957-18.142,22.679-29.935
			C129.499,84.371,124.963,78.928,118.612,80.743z"/>
	</g>
</g>
<g>
	<path fill="#FF3C00" d="M332.778,121.566h-136.8c-1.349,0-2.443,1.092-2.443,2.443v107.486c0,1.353,1.094,2.443,2.443,2.443h136.8
		c1.349,0,2.443-1.092,2.443-2.443V124.009C335.222,122.658,334.126,121.566,332.778,121.566z M330.335,229.051H198.42V126.452
		h131.915V229.051z"/>
	<path fill="#FF3C00" d="M232.62,175.646c7.502,0,13.604-6.103,13.604-13.602c0-7.505-6.103-13.607-13.604-13.607
		s-13.604,6.103-13.604,13.604S225.118,175.646,232.62,175.646z M232.62,153.323c4.808,0,8.719,3.914,8.719,8.719
		c0,4.806-3.911,8.719-8.719,8.719c-4.807,0-8.718-3.911-8.718-8.716C223.902,157.24,227.813,153.323,232.62,153.323z"/>
	<path fill="#FFFFFF" d="M210.635,219.28c0.572,0,1.148-0.199,1.612-0.607l39.851-35.084l25.167,25.164
		c0.954,0.955,2.498,0.955,3.453,0s0.955-2.5,0-3.455l-11.742-11.741l22.428-24.562l27.51,25.219
		c0.994,0.91,2.541,0.842,3.452-0.152c0.911-0.993,0.845-2.54-0.152-3.451l-29.313-26.872c-0.479-0.438-1.116-0.654-1.76-0.64
		c-0.646,0.029-1.258,0.314-1.693,0.794l-23.926,26.204l-11.587-11.586c-0.913-0.911-2.374-0.957-3.341-0.107l-41.571,36.602
		c-1.014,0.893-1.112,2.436-0.22,3.449C209.284,219,209.958,219.28,210.635,219.28z"/>
</g>
<text transform="matrix(1 0 0 1 190.3389 287.5415)" fill="#FFFFFF" font-family="'NewsCycle-Bold'" font-size="20">DRAG IMAGE HERE</text>
</svg>
