<?xml version="1.0" encoding="utf-8"?>
<!-- Generator: Adobe Illustrator 16.0.0, SVG Export Plug-In . SVG Version: 6.00 Build 0)  -->
<!DOCTYPE svg PUBLIC "-//W3C//DTD SVG 1.1//EN" "http://www.w3.org/Graphics/SVG/1.1/DTD/svg11.dtd">
<svg version="1.1" id="Layer_1" xmlns="http://www.w3.org/2000/svg" xmlns:xlink="http://www.w3.org/1999/xlink" x="0px" y="0px"
	 width="637.339px" height="555.38px" viewBox="0 0 637.339 555.38" enable-background="new 0 0 637.339 555.38"
	 xml:space="preserve">
<g>
	<g id="Post_Card">
		<path fill="#010101" d="M445.661,401.473H178.059c-35.751,0-63.753-26.51-63.753-60.354v-140.64
			c0-34.417,28.604-62.411,63.753-62.411h267.602c35.152,0,63.752,27.994,63.752,62.411v140.64
			C509.413,374.963,481.407,401.473,445.661,401.473z M178.059,154.53c-26.077,0-47.291,20.61-47.291,45.948v140.64
			c0,24.616,20.768,43.891,47.291,43.891h267.602c26.518,0,47.289-19.275,47.289-43.891v-140.64
			c0-25.338-21.213-45.948-47.289-45.948H178.059z"/>
		<path fill="#010101" d="M311.86,358.258c-3.408,0-6.174-2.766-6.174-6.174V203.919c0-3.409,2.766-6.174,6.174-6.174
			c3.409,0,6.173,2.765,6.173,6.174v148.165C318.033,355.492,315.269,358.258,311.86,358.258z"/>
		<g>
			<g>
				
					<path fill="#010101" stroke="#010101" stroke-width="1.5" stroke-linecap="round" stroke-linejoin="round" stroke-miterlimit="10" d="
					M407.341,208.521"/>
				
					<path fill="#010101" stroke="#010101" stroke-width="1.5" stroke-linecap="round" stroke-linejoin="round" stroke-miterlimit="10" d="
					M434.262,200.743"/>
				<path fill="#010101" d="M431.224,241.141c-1.262,0-2.532-0.386-3.625-1.193c-16.97-12.396-23.586-19.943-26.238-29.919
					c-2.42-9.116,2.701-21.519,13.891-24.754c5.177-1.499,10.611-0.896,15.321,1.712c4.71,2.593,8.127,6.873,9.614,12.038
					c0.94,3.264-0.949,6.688-4.221,7.645c-3.304,0.904-6.695-0.957-7.645-4.225c-0.562-1.981-1.889-3.637-3.714-4.634
					c-1.8-0.993-3.906-1.234-5.916-0.659c-3.995,1.153-6.343,6.306-5.418,9.723c1.575,5.92,5.482,11.35,21.591,23.123
					c2.766,2.009,3.36,5.868,1.352,8.625C435.009,240.269,433.128,241.141,431.224,241.141z"/>
			</g>
			<g>
				<path fill="#010101" d="M434.953,242.343c-4.019,0-6.535-1.704-8.771-3.457c-2.684-2.105-3.15-5.992-1.045-8.669
					c2.09-2.673,5.98-3.167,8.666-1.045c0.859,0.675,1.182,0.84,1.23,0.872c3.673-0.338,6.31,2.464,6.454,5.872
					c0.161,3.396-2.476,6.254-5.884,6.402C435.38,242.334,435.154,242.343,434.953,242.343z"/>
			</g>
			<g>
				
					<path fill="#010101" stroke="#010101" stroke-width="1.5" stroke-linecap="round" stroke-linejoin="round" stroke-miterlimit="10" d="
					M461.569,206.833"/>
				
					<path fill="#010101" stroke="#010101" stroke-width="1.5" stroke-linecap="round" stroke-linejoin="round" stroke-miterlimit="10" d="
					M434.206,200.743"/>
				<path fill="#010101" d="M439.351,240.888c-1.77,0-3.521-0.76-4.743-2.234c-2.187-2.617-1.816-6.52,0.804-8.698
					c15.346-12.749,18.923-18.416,20.121-24.433c0.691-3.44-1.945-8.437-6.006-9.333c-2.025-0.454-4.115-0.084-5.867,1.021
					c-1.761,1.118-2.975,2.85-3.425,4.863c-0.747,3.336-4.1,5.378-7.371,4.683c-3.328-0.748-5.427-4.04-4.687-7.372
					c1.174-5.245,4.309-9.723,8.858-12.604c4.534-2.89,9.911-3.802,15.177-2.648c11.383,2.524,17.267,14.578,15.426,23.822
					c-2.033,10.132-8.176,18.074-24.332,31.499C442.147,240.426,440.749,240.888,439.351,240.888z"/>
			</g>
			<g>
				<path fill="#010101" d="M435.331,242.334c-3.352,0-6.094-2.677-6.174-6.033c-0.072-3.408,2.621-6.234,6.029-6.314l0,0
					c0.137,0,0.426-0.181,1.197-0.896c2.564-2.271,6.455-2.042,8.738,0.503c2.25,2.552,2.058,6.442-0.515,8.714
					c-2.235,1.985-4.774,3.946-9.147,4.035C435.427,242.334,435.371,242.334,435.331,242.334z"/>
			</g>
		</g>
		<path fill="#010101" d="M270.703,290.349h-90.545c-3.409,0-6.173-2.766-6.173-6.174s2.765-6.174,6.173-6.174h90.545
			c3.408,0,6.174,2.766,6.174,6.174S274.111,290.349,270.703,290.349z"/>
		<path fill="#010101" d="M270.703,323.275h-90.545c-3.409,0-6.173-2.766-6.173-6.174s2.765-6.174,6.173-6.174h90.545
			c3.408,0,6.174,2.766,6.174,6.174S274.111,323.275,270.703,323.275z"/>
		<path fill="#010101" d="M270.703,356.199h-90.545c-3.409,0-6.173-2.764-6.173-6.172s2.765-6.174,6.173-6.174h90.545
			c3.408,0,6.174,2.766,6.174,6.174S274.111,356.199,270.703,356.199z"/>
	</g>
</g>
</svg>
