<?xml version="1.0" encoding="utf-8"?>
<!-- Generator: Adobe Illustrator 16.0.0, SVG Export Plug-In . SVG Version: 6.00 Build 0)  -->
<!DOCTYPE svg PUBLIC "-//W3C//DTD SVG 1.1//EN" "http://www.w3.org/Graphics/SVG/1.1/DTD/svg11.dtd">
<svg version="1.1" id="Capa_1" xmlns="http://www.w3.org/2000/svg" xmlns:xlink="http://www.w3.org/1999/xlink" x="0px" y="0px"
	 width="423.769px" height="294px" viewBox="0 0 423.769 294" enable-background="new 0 0 423.769 294" xml:space="preserve">
<rect fill="#FFCC01" width="423.769" height="294"/>
<path fill="#FFFFFF" d="M364.005,38.018l-20.586,18.791c-1.083,0.988-2.505,1.485-3.926,1.485c-1.422,0-2.844-0.497-3.927-1.485
	c-2.172-1.982-2.172-5.186,0-7.168L348.3,38.018h-23.168l-20.585,18.791c-1.083,0.988-2.504,1.485-3.926,1.485
	s-2.844-0.497-3.927-1.485c-2.172-1.982-2.172-5.186,0-7.167l12.733-11.623h-23.167L265.675,56.81
	c-1.083,0.988-2.505,1.485-3.926,1.485c-1.423,0-2.844-0.497-3.927-1.485c-2.171-1.982-2.171-5.186,0-7.168l12.733-11.623h-23.167
	L226.803,56.81c-1.083,0.988-2.505,1.485-3.926,1.485c-1.423,0-2.844-0.497-3.927-1.485c-2.172-1.982-2.172-5.186,0-7.167
	l12.733-11.623h-23.168l-20.585,18.791c-1.083,0.988-2.505,1.485-3.927,1.485c-1.421,0-2.843-0.497-3.926-1.485
	c-2.172-1.982-2.172-5.187,0-7.168l12.733-11.623h-23.168l-20.586,18.791c-1.082,0.988-2.504,1.485-3.926,1.485
	s-2.844-0.497-3.926-1.485c-2.172-1.982-2.172-5.186,0-7.167l12.733-11.624h-23.168l-20.585,18.791
	c-1.083,0.989-2.505,1.485-3.927,1.485c-1.421,0-2.843-0.496-3.926-1.485c-2.171-1.981-2.171-5.186,0-7.167l12.733-11.623H91.901
	L71.316,56.812c-1.083,0.988-2.505,1.485-3.927,1.485c-1.421,0-2.843-0.497-3.926-1.485c-2.171-1.982-2.171-5.186,0-7.168
	l12.733-11.622H50.731v0.526v217.438h8.807l20.585-18.79c2.172-1.982,5.682-1.982,7.853,0c2.172,1.981,2.172,5.186,0,7.167
	l-12.733,11.623H98.41l20.585-18.79c2.172-1.982,5.681-1.982,7.853,0c2.171,1.981,2.171,5.186,0,7.167l-12.733,11.623h23.167
	l20.586-18.79c2.171-1.982,5.681-1.982,7.852,0c2.172,1.981,2.172,5.186,0,7.167l-12.733,11.623h23.168l20.585-18.79
	c2.172-1.982,5.682-1.982,7.853,0c2.172,1.981,2.172,5.186,0,7.167l-12.733,11.623h23.168l20.585-18.79
	c2.172-1.982,5.682-1.982,7.853,0c2.171,1.981,2.172,5.186,0,7.167l-12.733,11.623h23.167l20.586-18.79
	c2.172-1.982,5.681-1.982,7.853,0c2.171,1.981,2.171,5.186,0,7.167l-12.733,11.623h23.167l20.586-18.79
	c2.171-1.982,5.681-1.982,7.852,0c2.172,1.981,2.172,5.186,0,7.167l-12.733,11.623h23.167l20.586-18.79
	c2.172-1.982,5.682-1.982,7.853,0c2.171,1.981,2.171,5.186,0,7.167l-12.733,11.623h25.466V38.544v-0.527L364.005,38.018
	L364.005,38.018z"/>
<path fill="#1C3144" d="M87.976,237.192c-2.172-1.982-5.682-1.982-7.853,0l-20.585,18.79h15.704l12.733-11.623
	C90.146,242.378,90.146,239.174,87.976,237.192z"/>
<path fill="#331E36" d="M126.848,237.192c-2.171-1.982-5.681-1.982-7.853,0l-20.585,18.79h15.704l12.733-11.623
	C129.019,242.378,129.019,239.174,126.848,237.192z"/>
<path fill="#1C3144" d="M165.72,237.192c-2.172-1.982-5.681-1.982-7.853,0l-20.585,18.79h15.704l12.733-11.623
	C167.891,242.378,167.891,239.174,165.72,237.192z"/>
<path fill="#331E36" d="M204.591,237.192c-2.171-1.982-5.682-1.982-7.853,0l-20.585,18.79h15.704l12.733-11.623
	C206.763,242.378,206.763,239.174,204.591,237.192z"/>
<path fill="#1C3144" d="M243.463,237.192c-2.171-1.982-5.681-1.982-7.853,0l-20.585,18.79h15.704l12.733-11.623
	C245.635,242.378,245.635,239.174,243.463,237.192z"/>
<path fill="#331E36" d="M282.335,237.192c-2.172-1.982-5.681-1.982-7.852,0l-20.586,18.79h15.704l12.733-11.623
	C284.506,242.378,284.506,239.174,282.335,237.192z"/>
<path fill="#1C3144" d="M321.206,237.192c-2.171-1.982-5.681-1.982-7.852,0l-20.586,18.79h15.705l12.732-11.623
	C323.378,242.378,323.378,239.174,321.206,237.192z"/>
<path fill="#331E36" d="M360.078,237.192c-2.171-1.982-5.681-1.982-7.852,0l-20.586,18.79h15.704l12.733-11.623
	C362.25,242.378,362.25,239.174,360.078,237.192z"/>
<path fill="#1C3144" d="M63.464,56.808c1.083,0.988,2.505,1.485,3.926,1.485c1.422,0,2.844-0.497,3.927-1.485l20.585-18.79H76.197
	L63.464,49.641C61.293,51.622,61.293,54.825,63.464,56.808z"/>
<path fill="#331E36" d="M102.336,56.808c1.083,0.988,2.505,1.485,3.927,1.485c1.421,0,2.843-0.497,3.926-1.485l20.586-18.791
	h-15.705L102.336,49.64C100.165,51.622,100.165,54.825,102.336,56.808z"/>
<path fill="#1C3144" d="M141.208,56.808c1.083,0.988,2.505,1.485,3.926,1.485c1.422,0,2.843-0.497,3.927-1.485l20.585-18.791
	h-15.704L141.208,49.64C139.037,51.622,139.037,54.825,141.208,56.808z"/>
<path fill="#331E36" d="M180.08,56.808c1.082,0.988,2.504,1.485,3.926,1.485s2.844-0.497,3.927-1.485l20.585-18.791h-15.704
	L180.08,49.64C177.908,51.622,177.908,54.825,180.08,56.808z"/>
<path fill="#1C3144" d="M218.951,56.808c1.083,0.988,2.505,1.485,3.927,1.485s2.844-0.497,3.926-1.485l20.586-18.791h-15.704
	L218.952,49.64C216.78,51.622,216.78,54.825,218.951,56.808z"/>
<path fill="#331E36" d="M257.823,56.808c1.083,0.988,2.505,1.485,3.927,1.485c1.421,0,2.843-0.497,3.926-1.485l20.586-18.791
	h-15.704L257.823,49.64C255.652,51.622,255.652,54.825,257.823,56.808z"/>
<path fill="#1C3144" d="M296.695,56.808c1.083,0.988,2.505,1.485,3.926,1.485c1.422,0,2.844-0.497,3.927-1.485l20.585-18.791
	h-15.704L296.695,49.64C294.523,51.622,294.523,54.825,296.695,56.808z"/>
<path fill="#331E36" d="M335.567,56.808c1.082,0.988,2.504,1.485,3.926,1.485s2.844-0.497,3.927-1.485l20.585-18.791h-15.704
	L335.567,49.64C333.396,51.622,333.396,54.825,335.567,56.808z"/>
<rect x="84.257" y="105.652" fill="#D00000" width="141.455" height="17.019"/>
<text transform="matrix(1.1088 0 0 1 89.9873 118.8311)" fill="#FFFFFF" font-family="'UbuntuMonoDerivativePowerline-Bold'" font-size="15.6222">SHARE SOME &lt;3</text>
<rect x="83.885" y="126.926" fill="#D00000" width="141.455" height="17.02"/>
<text transform="matrix(1.1088 0 0 1 89.6045 141.3809)" fill="#FFFFFF" font-family="'UbuntuMonoDerivativePowerline-Bold'" font-size="15.6222">WITH A POSTCARD</text>
<g>
	<g>
		<g>
			<path fill="#1C3144" d="M356.623,81.465c0.89,0,1.61-0.722,1.61-1.61v-6.123c0-0.89-0.721-1.611-1.61-1.611
				c-1.777,0-3.222-1.445-3.222-3.222c0-0.89-0.722-1.61-1.611-1.61h-6.187c-0.89,0-1.611,0.721-1.611,1.61
				c0,1.776-1.445,3.222-3.222,3.222s-3.222-1.445-3.222-3.222c0-0.89-0.722-1.61-1.61-1.61h-6.187c-0.891,0-1.611,0.721-1.611,1.61
				c0,1.776-1.445,3.222-3.222,3.222c-1.777,0-3.223-1.445-3.223-3.222c0-0.89-0.721-1.61-1.61-1.61h-6.187
				c-0.89,0-1.61,0.721-1.61,1.61c0,1.776-1.446,3.222-3.223,3.222s-3.222-1.445-3.222-3.222c0-0.89-0.722-1.61-1.611-1.61h-6.187
				c-0.89,0-1.61,0.721-1.61,1.61c0,1.776-1.445,3.222-3.222,3.222s-3.223-1.445-3.223-3.222c0-0.89-0.721-1.61-1.61-1.61h-6.187
				c-0.89,0-1.611,0.721-1.611,1.61c0,1.776-1.445,3.222-3.222,3.222c-0.89,0-1.611,0.722-1.611,1.611v6.123
				c0,0.889,0.722,1.61,1.611,1.61c1.776,0,3.222,1.445,3.222,3.222s-1.445,3.223-3.222,3.223c-0.89,0-1.611,0.721-1.611,1.61v6.122
				c0,0.89,0.722,1.61,1.611,1.61c1.776,0,3.222,1.445,3.222,3.223c0,1.776-1.445,3.222-3.222,3.222
				c-0.89,0-1.611,0.722-1.611,1.611v6.122c0,0.89,0.722,1.611,1.611,1.611c1.776,0,3.222,1.444,3.222,3.222
				c0,1.776-1.445,3.222-3.222,3.222c-0.89,0-1.611,0.722-1.611,1.611v6.122c0,0.89,0.722,1.61,1.611,1.61
				c1.776,0,3.222,1.445,3.222,3.223c0,0.89,0.722,1.611,1.611,1.611h6.187c0.888,0,1.607-0.719,1.61-1.606
				c0.006-1.771,1.451-3.213,3.223-3.213c1.771,0,3.217,1.441,3.221,3.213c0.004,0.888,0.724,1.606,1.611,1.606h6.187
				c0.889,0,1.609-0.719,1.611-1.606c0.006-1.771,1.45-3.213,3.222-3.213s3.217,1.441,3.222,3.213
				c0.003,0.888,0.724,1.606,1.611,1.606h6.188c0.888,0,1.607-0.719,1.61-1.606c0.005-1.771,1.45-3.213,3.222-3.213
				s3.217,1.441,3.222,3.213c0.003,0.888,0.724,1.606,1.611,1.606h6.187c0.888,0,1.607-0.719,1.61-1.606
				c0.006-1.771,1.45-3.213,3.222-3.213s3.217,1.441,3.222,3.213c0.003,0.888,0.724,1.606,1.611,1.606h6.187
				c0.89,0,1.611-0.722,1.611-1.611c0-1.777,1.444-3.223,3.222-3.223c0.89,0,1.61-0.721,1.61-1.61v-6.122
				c0-0.89-0.721-1.61-1.61-1.61c-1.777-0.001-3.222-1.445-3.222-3.223s1.444-3.222,3.222-3.222c0.89,0,1.61-0.721,1.61-1.611
				v-6.122c0-0.889-0.721-1.61-1.61-1.61c-1.777,0-3.222-1.445-3.222-3.223c0-1.776,1.444-3.222,3.222-3.222
				c0.89,0,1.61-0.721,1.61-1.611v-6.121c0-0.89-0.721-1.611-1.61-1.611c-1.777,0-3.222-1.445-3.222-3.222
				C353.401,82.91,354.846,81.465,356.623,81.465z M355.011,90.928v3.307c-2.775,0.717-4.832,3.243-4.832,6.24
				s2.057,5.522,4.832,6.24v3.308c-2.775,0.717-4.832,3.243-4.832,6.24s2.057,5.523,4.832,6.24v3.307
				c-2.261,0.584-4.045,2.368-4.629,4.63h-3.376c-0.724-2.769-3.248-4.818-6.236-4.818c-2.987,0-5.512,2.05-6.235,4.818h-3.381
				c-0.723-2.769-3.248-4.818-6.235-4.818c-2.988,0-5.513,2.05-6.236,4.818h-3.38c-0.724-2.769-3.248-4.818-6.236-4.818
				s-5.513,2.05-6.235,4.818h-3.381c-0.723-2.769-3.248-4.818-6.235-4.818c-2.988,0-5.513,2.05-6.236,4.818h-3.377
				c-0.584-2.262-2.367-4.046-4.629-4.63v-3.307c2.776-0.717,4.833-3.243,4.833-6.24s-2.057-5.523-4.833-6.24v-3.308
				c2.776-0.717,4.833-3.242,4.833-6.24c0-2.997-2.057-5.522-4.833-6.24v-3.307c2.776-0.718,4.833-3.243,4.833-6.241
				c0-2.997-2.057-5.522-4.833-6.239v-3.309c2.261-0.584,4.045-2.367,4.629-4.629h3.373c0.717,2.776,3.242,4.833,6.239,4.833
				c2.998,0,5.523-2.057,6.24-4.833h3.372c0.718,2.776,3.243,4.833,6.24,4.833c2.998,0,5.523-2.057,6.24-4.833h3.372
				c0.717,2.776,3.243,4.833,6.239,4.833c2.997,0,5.523-2.057,6.24-4.833h3.373c0.717,2.776,3.242,4.833,6.239,4.833
				s5.523-2.057,6.24-4.833h3.373c0.583,2.261,2.367,4.045,4.629,4.629v3.309c-2.776,0.717-4.833,3.242-4.833,6.239
				S352.235,90.21,355.011,90.928z"/>
			<path fill="#1C3144" d="M345.346,78.564h-56.708c-0.891,0-1.611,0.722-1.611,1.611v40.599c0,0.89,0.721,1.61,1.611,1.61h56.708
				c0.89,0,1.61-0.721,1.61-1.61V80.176C346.956,79.286,346.235,78.564,345.346,78.564z M290.248,119.163v-7.591l16.191-13.27
				c0.633-0.518,1.785-0.518,2.418,0l25.453,20.86H290.248L290.248,119.163z M343.734,119.163L343.734,119.163h-4.341
				l-28.494-23.352c-1.823-1.495-4.68-1.495-6.503,0l-14.148,11.595V81.787h53.486V119.163L343.734,119.163z"/>
			<path fill="#1C3144" d="M331.29,91.388c-3.025,0-5.487,2.462-5.487,5.487s2.462,5.487,5.487,5.487s5.487-2.462,5.487-5.487
				S334.315,91.388,331.29,91.388z M331.29,99.141c-1.249,0-2.266-1.017-2.266-2.266c0-1.25,1.017-2.266,2.266-2.266
				c1.25,0,2.266,1.017,2.266,2.266S332.539,99.141,331.29,99.141z"/>
			<path fill="#1C3144" d="M330.68,88.231h8.222c0.891,0,1.611-0.722,1.611-1.611s-0.721-1.611-1.611-1.611h-8.222
				c-0.89,0-1.611,0.722-1.611,1.611S329.79,88.231,330.68,88.231z"/>
			<path fill="#1C3144" d="M326.013,88.231h0.039c0.889,0,1.611-0.721,1.611-1.61c0-0.891-0.723-1.611-1.611-1.611h-0.039
				c-0.89,0-1.61,0.721-1.61,1.611C324.402,87.51,325.123,88.231,326.013,88.231z"/>
			<path fill="#1C3144" d="M303.804,112.377h-8.223c-0.889,0-1.61,0.721-1.61,1.611c0,0.889,0.722,1.61,1.61,1.61h8.223
				c0.89,0,1.611-0.722,1.611-1.61C305.415,113.098,304.693,112.377,303.804,112.377z"/>
			<path fill="#1C3144" d="M308.432,112.377c-0.89,0-1.61,0.722-1.61,1.611s0.721,1.611,1.61,1.611h0.039
				c0.89,0,1.61-0.722,1.61-1.611s-0.721-1.611-1.61-1.611H308.432z"/>
		</g>
	</g>
</g>
<g>
	<g>
		<path fill="#F7BA35" d="M281.479,123.523c-8.697,0-16.873-3.387-23.022-9.536s-9.536-14.325-9.536-23.021
			c0-8.697,3.387-16.873,9.536-23.022s14.325-9.536,23.022-9.536c8.696,0,16.872,3.387,23.021,9.536s9.536,14.325,9.536,23.022
			c0,8.696-3.387,16.872-9.536,23.021C298.353,120.137,290.176,123.523,281.479,123.523z M281.479,62.223
			c-7.678,0-14.896,2.989-20.325,8.418c-5.429,5.43-8.418,12.647-8.418,20.325c0,7.677,2.989,14.896,8.418,20.324
			c5.43,5.429,12.647,8.418,20.325,8.418c7.677,0,14.896-2.989,20.324-8.418s8.418-12.647,8.418-20.324
			c0-7.678-2.989-14.896-8.418-20.325C296.375,65.212,289.156,62.223,281.479,62.223z"/>
		<path fill="#F7BA35" d="M264.095,78.334l-3.768-3.236l1.395-1.623c0.634-0.737,1.753-0.699,2.395-0.146
			c0.669,0.574,0.878,1.62,0.239,2.362l-0.528,0.615l1.156,0.994L264.095,78.334z M262.925,75.53l0.47-0.546
			c0.109-0.128,0.122-0.347-0.181-0.606c-0.312-0.269-0.539-0.188-0.648-0.061l-0.446,0.52L262.925,75.53z"/>
		<path fill="#F7BA35" d="M265.062,73.426c-0.801-1.044-0.724-2.601,0.381-3.447c1.133-0.868,2.646-0.434,3.416,0.572
			c0.791,1.032,0.735,2.592-0.376,3.442C267.356,74.856,265.839,74.441,265.062,73.426z M267.759,73.024
			c0.55-0.421,0.38-1.137-0.016-1.654c-0.408-0.532-1.049-0.826-1.581-0.418c-0.544,0.417-0.389,1.126,0.007,1.642
			C266.573,73.121,267.22,73.437,267.759,73.024z"/>
		<path fill="#F7BA35" d="M271.923,68.082c0,0-0.846-0.099-1.382,0.159c-0.214,0.103-0.329,0.236-0.254,0.394
			c0.112,0.233,0.452,0.133,1.048,0.048c0.949-0.138,1.612-0.099,2.015,0.739c0.518,1.078-0.186,1.843-1.019,2.242
			c-0.649,0.312-1.513,0.47-2.199,0.412l0.012-1.332c0,0,0.986,0.132,1.674-0.198c0.266-0.128,0.323-0.249,0.266-0.368
			c-0.124-0.259-0.612-0.095-1.235-0.021c-0.915,0.114-1.423-0.054-1.737-0.709c-0.475-0.99,0.062-1.893,0.944-2.315
			c0.649-0.312,1.409-0.328,1.91-0.32L271.923,68.082z"/>
		<path fill="#F7BA35" d="M277.167,66.049l-1.379,0.359l0.949,3.655l-1.319,0.344l-0.951-3.655l-1.388,0.36l-0.299-1.15l4.088-1.062
			L277.167,66.049z"/>
		<path fill="#F7BA35" d="M279.44,67.021c0.021-1.314,1.048-2.488,2.438-2.465c1.428,0.023,2.345,1.303,2.324,2.569
			c-0.021,1.301-1.034,2.488-2.433,2.466C280.351,69.569,279.42,68.302,279.44,67.021z M281.805,68.383
			c0.692,0.011,1.004-0.656,1.015-1.307c0.01-0.671-0.309-1.299-0.98-1.31c-0.686-0.011-1.003,0.642-1.014,1.292
			C280.814,67.723,281.126,68.371,281.805,68.383z"/>
		<path fill="#F7BA35" d="M284.521,69.708l1.047-4.854l3.33,0.719l-0.251,1.161l-1.997-0.431l-0.173,0.807l1.627,0.352l-0.233,1.079
			l-1.627-0.351l-0.389,1.805L284.521,69.708z"/>
		<path fill="#F7BA35" d="M288.133,70.545l1.872-4.601l3.156,1.284l-0.449,1.103l-1.892-0.771l-0.311,0.765l1.542,0.628
			l-0.417,1.023l-1.542-0.627l-0.696,1.711L288.133,70.545z"/>
		<path fill="#F7BA35" d="M291.562,72.054l2.479-4.303l1.182,0.681l-2.479,4.303L291.562,72.054z"/>
		<path fill="#F7BA35" d="M298.129,70.461c0.689,0.55,0.966,1.324,0.807,2.029l-1.277-0.069c0.175-0.478-0.064-0.839-0.306-1.031
			c-0.536-0.427-1.193-0.083-1.582,0.403c-0.432,0.541-0.529,1.26-0.037,1.651c0.246,0.196,0.653,0.314,1.041,0.052l0.456,1.213
			c-0.677,0.4-1.655,0.157-2.273-0.335c-1.083-0.863-1.037-2.481-0.244-3.478C295.468,69.951,296.947,69.521,298.129,70.461z"/>
		<path fill="#F7BA35" d="M299.913,77.742l-0.906,0.771l-2.296-2.694l3.781-3.222l2.255,2.646l-0.905,0.771l-1.37-1.607
			l-0.532,0.453l1.17,1.374l-0.841,0.718l-1.171-1.374l-0.596,0.508L299.913,77.742z"/>
		<path fill="#F7BA35" d="M298.863,103.597l3.768,3.236l-1.395,1.623c-0.634,0.737-1.753,0.698-2.396,0.146
			c-0.668-0.575-0.876-1.62-0.238-2.362l0.528-0.616l-1.156-0.993L298.863,103.597z M300.033,106.399l-0.469,0.546
			c-0.109,0.128-0.123,0.347,0.18,0.607c0.313,0.269,0.54,0.188,0.649,0.061l0.447-0.521L300.033,106.399z"/>
		<path fill="#F7BA35" d="M297.897,108.505c0.8,1.044,0.723,2.6-0.382,3.447c-1.133,0.868-2.646,0.433-3.416-0.572
			c-0.791-1.033-0.734-2.592,0.376-3.442C295.603,107.073,297.119,107.489,297.897,108.505z M295.2,108.906
			c-0.55,0.421-0.381,1.137,0.016,1.653c0.408,0.533,1.048,0.827,1.581,0.419c0.543-0.417,0.388-1.126-0.008-1.642
			C296.386,108.809,295.738,108.494,295.2,108.906z"/>
		<path fill="#F7BA35" d="M291.035,113.849c0,0,0.846,0.098,1.382-0.159c0.215-0.103,0.329-0.235,0.254-0.393
			c-0.112-0.234-0.451-0.133-1.047-0.049c-0.95,0.139-1.613,0.1-2.016-0.738c-0.518-1.079,0.187-1.844,1.019-2.243
			c0.649-0.312,1.513-0.47,2.2-0.412l-0.013,1.332c0,0-0.986-0.131-1.674,0.199c-0.265,0.127-0.323,0.248-0.265,0.368
			c0.123,0.258,0.611,0.094,1.234,0.02c0.915-0.114,1.423,0.054,1.737,0.71c0.476,0.989-0.062,1.891-0.944,2.314
			c-0.649,0.312-1.409,0.328-1.91,0.32L291.035,113.849z"/>
		<path fill="#F7BA35" d="M285.789,115.882l1.381-0.359l-0.95-3.655l1.321-0.344l0.949,3.656l1.388-0.361l0.3,1.151l-4.089,1.063
			L285.789,115.882z"/>
		<path fill="#F7BA35" d="M283.518,114.908c-0.021,1.315-1.047,2.488-2.439,2.466c-1.427-0.023-2.344-1.304-2.323-2.57
			c0.021-1.301,1.033-2.488,2.433-2.466C282.607,112.361,283.538,113.628,283.518,114.908z M281.154,113.548
			c-0.692-0.01-1.004,0.656-1.015,1.306c-0.011,0.672,0.308,1.3,0.979,1.311c0.686,0.011,1.004-0.642,1.015-1.292
			C282.144,114.208,281.832,113.559,281.154,113.548z"/>
		<path fill="#F7BA35" d="M278.437,112.224l-1.047,4.854l-3.33-0.719l0.251-1.161l1.996,0.431l0.175-0.807l-1.627-0.352l0.232-1.08
			l1.627,0.351l0.39-1.805L278.437,112.224z"/>
		<path fill="#F7BA35" d="M274.826,111.387l-1.872,4.6l-3.156-1.284l0.448-1.102l1.893,0.771l0.311-0.765l-1.542-0.628l0.416-1.024
			l1.543,0.628l0.696-1.71L274.826,111.387z"/>
		<path fill="#F7BA35" d="M271.396,109.877l-2.479,4.303l-1.182-0.681l2.479-4.303L271.396,109.877z"/>
		<path fill="#F7BA35" d="M264.83,111.469c-0.69-0.549-0.967-1.324-0.808-2.028l1.277,0.069c-0.176,0.478,0.064,0.839,0.305,1.03
			c0.537,0.428,1.195,0.084,1.583-0.403c0.432-0.541,0.529-1.259,0.037-1.651c-0.246-0.196-0.652-0.314-1.041-0.052l-0.456-1.213
			c0.677-0.399,1.655-0.157,2.272,0.336c1.084,0.862,1.038,2.48,0.244,3.477C267.49,111.979,266.011,112.41,264.83,111.469z"/>
		<path fill="#F7BA35" d="M263.046,104.188l0.905-0.771l2.296,2.695l-3.781,3.221l-2.254-2.646l0.904-0.771l1.37,1.608l0.533-0.453
			l-1.171-1.374l0.842-0.718l1.17,1.375l0.597-0.509L263.046,104.188z"/>
	</g>
	<g>
		<path fill="#FD9702" d="M257.542,93.769c0-1.661,0.198-2.42,1.57-3.069c0.75-0.353,1.399-0.668,1.399-1.327
			c0-0.434-0.28-0.569-0.587-0.569c-0.47,0-0.984,0.316-1.327,0.65l-1.056-1.146c0.479-0.542,1.453-1.021,2.627-1.021
			c1.463,0,2.302,0.741,2.302,2.059c0,0.993-0.47,1.444-1.272,1.914c-0.515,0.298-1.102,0.587-1.102,0.976h2.384v1.534H257.542
			L257.542,93.769z"/>
		<path fill="#FD9702" d="M267.68,92.233v1.535h-4.179v-1.535h1.281v-3.268c-0.198,0.28-1.002,0.776-1.489,0.776v-1.57
			c0.65,0,1.472-0.822,1.489-0.858h1.752v4.92H267.68L267.68,92.233z"/>
		<path fill="#FD9702" d="M268.33,93.769v-1.661h1.391v1.661H268.33z"/>
		<path fill="#FD9702" d="M274.938,92.233v1.535h-4.18v-1.535h1.282v-3.268c-0.199,0.28-1.002,0.776-1.49,0.776v-1.57
			c0.65,0,1.472-0.822,1.49-0.858h1.751v4.92H274.938L274.938,92.233z"/>
		<path fill="#FD9702" d="M275.479,93.769c0-1.661,0.199-2.42,1.571-3.069c0.749-0.353,1.399-0.668,1.399-1.327
			c0-0.434-0.28-0.569-0.587-0.569c-0.47,0-0.984,0.316-1.327,0.65l-1.057-1.146c0.479-0.542,1.454-1.021,2.628-1.021
			c1.463,0,2.302,0.741,2.302,2.059c0,0.993-0.47,1.444-1.272,1.914c-0.515,0.298-1.103,0.587-1.103,0.976h2.384v1.534H275.479
			L275.479,93.769L275.479,93.769z"/>
		<path fill="#FD9702" d="M281.303,93.769v-1.661h1.391v1.661H281.303z"/>
		<path fill="#FD9702" d="M283.487,93.769c0-1.661,0.199-2.42,1.572-3.069c0.749-0.353,1.397-0.668,1.397-1.327
			c0-0.434-0.278-0.569-0.586-0.569c-0.47,0-0.984,0.316-1.327,0.65l-1.057-1.146c0.479-0.542,1.454-1.021,2.628-1.021
			c1.463,0,2.302,0.741,2.302,2.059c0,0.993-0.47,1.444-1.273,1.914c-0.515,0.298-1.102,0.587-1.102,0.976h2.385v1.534H283.487
			L283.487,93.769z"/>
		<path fill="#FD9702" d="M289.176,90.608c0-1.543,1.109-3.25,2.906-3.25c1.914,0,2.907,1.851,2.907,3.25
			c0,1.562-1.11,3.25-2.907,3.25C290.169,93.858,289.176,92.053,289.176,90.608z M292.082,92.297c0.831,0,1.119-0.975,1.119-1.688
			c0-0.785-0.333-1.688-1.119-1.688c-0.83,0-1.119,0.976-1.119,1.688C290.963,91.395,291.278,92.297,292.082,92.297z"/>
		<path fill="#FD9702" d="M300.072,92.233v1.535h-4.18v-1.535h1.282v-3.268c-0.199,0.28-1.002,0.776-1.49,0.776v-1.57
			c0.649,0,1.472-0.822,1.49-0.858h1.751v4.92H300.072L300.072,92.233z"/>
		<path fill="#FD9702" d="M303.033,93.858c-1.535,0-2.41-1.164-2.41-3.159c0-2.113,0.975-3.395,2.581-3.395
			c0.776,0,1.472,0.298,2.041,0.866l-0.948,1.102c-0.316-0.315-0.713-0.488-1.12-0.488c-0.587,0-0.948,0.38-0.975,1.021
			c0.234-0.207,0.551-0.307,0.975-0.307c1.291,0,2.257,0.902,2.257,2.104C305.435,92.865,304.405,93.858,303.033,93.858z
			 M303.801,91.602c0-0.424-0.344-0.758-0.768-0.758c-0.425,0-0.768,0.334-0.768,0.758c0,0.442,0.361,0.822,0.768,0.822
			S303.801,92.044,303.801,91.602z"/>
		<path fill="#FD9702" d="M295.17,83.788c-2.683-5.106-7.929-8.279-13.69-8.279c-5.763,0-11.008,3.173-13.691,8.279l-3.378-1.775
			c3.345-6.365,9.885-10.319,17.069-10.319c7.184,0,13.724,3.954,17.068,10.319L295.17,83.788z"/>
		<path fill="#FD9702" d="M281.479,110.236c-7.184,0-13.725-3.954-17.069-10.319l3.378-1.774c2.684,5.106,7.929,8.278,13.691,8.278
			c5.762,0,11.008-3.172,13.69-8.278l3.378,1.774C295.203,106.282,288.663,110.236,281.479,110.236z"/>
		<path fill="#FD9702" d="M304.501,67.942c-6.148-6.148-14.325-9.535-23.021-9.535v3.815c7.678,0,14.896,2.989,20.324,8.418
			c5.429,5.43,8.419,12.647,8.419,20.325c0,7.677-2.989,14.896-8.419,20.324c-5.429,5.429-12.646,8.418-20.324,8.418v3.815
			c8.696,0,16.873-3.387,23.021-9.535c6.149-6.149,9.537-14.326,9.537-23.022C314.038,82.269,310.65,74.093,304.501,67.942z"/>
	</g>
	<g>
		<path fill="#BA7400" d="M295.17,83.788l3.378-1.775c-3.345-6.365-9.885-10.319-17.068-10.319v3.815
			C287.241,75.509,292.487,78.682,295.17,83.788z"/>
		<path fill="#BA7400" d="M298.548,99.917l-3.378-1.774c-2.683,5.106-7.929,8.279-13.69,8.279v3.814
			C288.663,110.236,295.203,106.282,298.548,99.917z"/>
	</g>
</g>
</svg>
