<?xml version="1.0" encoding="utf-8"?>
<!-- Generator: Adobe Illustrator 16.0.0, SVG Export Plug-In . SVG Version: 6.00 Build 0)  -->
<!DOCTYPE svg PUBLIC "-//W3C//DTD SVG 1.1//EN" "http://www.w3.org/Graphics/SVG/1.1/DTD/svg11.dtd">
<svg version="1.1" id="Capa_1" xmlns="http://www.w3.org/2000/svg" xmlns:xlink="http://www.w3.org/1999/xlink" x="0px" y="0px"
	 width="145.504px" height="98.469px" viewBox="-25 3 145.504 98.469" enable-background="new -25 3 145.504 98.469"
	 xml:space="preserve">
<path fill="#02C8A7" d="M116.523,3l-9.3,8.489c-0.489,0.446-1.132,0.671-1.773,0.671c-0.643,0-1.285-0.225-1.774-0.671
	c-0.981-0.895-0.981-2.343,0-3.238L109.429,3H98.962l-9.299,8.489c-0.489,0.446-1.131,0.671-1.773,0.671
	c-0.643,0-1.285-0.225-1.774-0.671c-0.981-0.895-0.981-2.343,0-3.237l5.752-5.251H81.401l-9.299,8.489
	c-0.489,0.446-1.131,0.671-1.773,0.671c-0.643,0-1.285-0.225-1.774-0.671c-0.981-0.895-0.981-2.343,0-3.238l5.752-5.251H63.841
	l-9.3,8.489c-0.489,0.446-1.131,0.671-1.773,0.671c-0.643,0-1.285-0.225-1.774-0.671c-0.981-0.895-0.981-2.343,0-3.238l5.752-5.25
	H46.28L36.98,11.49c-0.489,0.446-1.132,0.671-1.774,0.671s-1.284-0.225-1.773-0.671c-0.981-0.896-0.981-2.343,0-3.238l5.752-5.25
	H28.719l-9.3,8.489c-0.489,0.446-1.131,0.671-1.773,0.671c-0.643,0-1.285-0.225-1.774-0.671c-0.981-0.896-0.981-2.343,0-3.238
	l5.752-5.251H11.158L1.858,11.49c-0.489,0.447-1.132,0.671-1.774,0.671c-0.642,0-1.284-0.224-1.773-0.671
	c-0.98-0.895-0.98-2.343,0-3.238l5.752-5.25H-6.401l-9.299,8.489c-0.489,0.446-1.131,0.671-1.774,0.671
	c-0.642,0-1.284-0.225-1.773-0.671c-0.981-0.896-0.981-2.343,0-3.238l5.752-5.25H-25V3.24v98.229h3.979l9.299-8.488
	c0.981-0.896,2.567-0.896,3.548,0c0.981,0.895,0.981,2.343,0,3.237l-5.752,5.251H-3.46l9.299-8.488c0.981-0.896,2.566-0.896,3.547,0
	c0.981,0.895,0.981,2.343,0,3.237l-5.752,5.251H14.1l9.3-8.488c0.981-0.896,2.566-0.896,3.547,0c0.981,0.895,0.981,2.343,0,3.237
	l-5.752,5.251h10.466l9.299-8.488c0.981-0.896,2.567-0.896,3.547,0c0.981,0.895,0.981,2.343,0,3.237l-5.752,5.251h10.466
	l9.299-8.488c0.981-0.896,2.567-0.896,3.548,0c0.98,0.895,0.981,2.343,0,3.237l-5.752,5.251h10.466l9.3-8.488
	c0.981-0.896,2.566-0.896,3.548,0c0.98,0.895,0.98,2.343,0,3.237l-5.752,5.251h10.466l9.3-8.488c0.98-0.896,2.566-0.896,3.547,0
	c0.981,0.895,0.981,2.343,0,3.237l-5.752,5.251h10.466l9.3-8.488c0.981-0.896,2.567-0.896,3.547,0c0.981,0.895,0.981,2.343,0,3.237
	L109,101.469h11.504V3.238V3L116.523,3L116.523,3z"/>
<path fill="#1C3144" d="M-8.174,92.979c-0.981-0.896-2.567-0.896-3.548,0l-9.299,8.488h7.095l5.752-5.25
	C-7.194,95.321-7.194,93.874-8.174,92.979z"/>
<path fill="#331E36" d="M9.386,92.979c-0.981-0.896-2.566-0.896-3.547,0l-9.299,8.488h7.094l5.752-5.25
	C10.367,95.321,10.367,93.874,9.386,92.979z"/>
<path fill="#1C3144" d="M26.947,92.979c-0.981-0.896-2.566-0.896-3.548,0l-9.299,8.488h7.094l5.752-5.25
	C27.928,95.321,27.928,93.874,26.947,92.979z"/>
<path fill="#331E36" d="M44.507,92.979c-0.981-0.896-2.567-0.896-3.548,0l-9.299,8.488h7.094l5.752-5.25
	C45.489,95.321,45.489,93.874,44.507,92.979z"/>
<path fill="#1C3144" d="M62.068,92.979c-0.981-0.896-2.566-0.896-3.548,0l-9.299,8.488h7.095l5.752-5.25
	C63.049,95.321,63.049,93.874,62.068,92.979z"/>
<path fill="#331E36" d="M79.628,92.979c-0.981-0.896-2.566-0.896-3.547,0l-9.3,8.488h7.094l5.752-5.25
	C80.609,95.321,80.609,93.874,79.628,92.979z"/>
<path fill="#1C3144" d="M97.189,92.979c-0.981-0.896-2.566-0.896-3.547,0l-9.3,8.488h7.095l5.752-5.25
	C98.17,95.321,98.17,93.874,97.189,92.979z"/>
<path fill="#331E36" d="M114.75,92.979c-0.98-0.896-2.566-0.896-3.547,0l-9.3,8.488h7.095l5.752-5.25
	C115.73,95.321,115.73,93.874,114.75,92.979z"/>
<path fill="#7C1B22" d="M-19.248,11.489c0.489,0.446,1.132,0.671,1.774,0.671c0.643,0,1.285-0.225,1.774-0.671L-6.401,3h-7.095
	l-5.752,5.25C-20.229,9.146-20.229,10.593-19.248,11.489z"/>
<path fill="#004E59" d="M-1.687,11.489c0.489,0.446,1.131,0.671,1.774,0.671c0.642,0,1.284-0.225,1.773-0.671L11.16,3H4.065
	l-5.752,5.251C-2.668,9.146-2.668,10.593-1.687,11.489z"/>
<path fill="#1C3144" d="M15.874,11.489c0.489,0.446,1.132,0.671,1.773,0.671c0.643,0,1.285-0.225,1.774-0.671L28.721,3h-7.095
	l-5.752,5.251C14.893,9.146,14.893,10.593,15.874,11.489z"/>
<path fill="#331E36" d="M33.434,11.489c0.489,0.446,1.131,0.671,1.774,0.671c0.642,0,1.285-0.225,1.774-0.671L46.281,3h-7.094
	l-5.753,5.251C32.453,9.146,32.453,10.593,33.434,11.489z"/>
<path fill="#1C3144" d="M50.995,11.489c0.489,0.446,1.131,0.671,1.774,0.671c0.642,0,1.285-0.225,1.773-0.671L63.842,3h-7.094
	l-5.752,5.251C50.014,9.146,50.014,10.593,50.995,11.489z"/>
<path fill="#331E36" d="M68.555,11.489c0.489,0.446,1.132,0.671,1.774,0.671s1.284-0.225,1.773-0.671L81.403,3h-7.095l-5.753,5.251
	C67.574,9.146,67.574,10.593,68.555,11.489z"/>
<path fill="#1C3144" d="M86.116,11.489c0.489,0.446,1.132,0.671,1.774,0.671s1.285-0.225,1.774-0.671L98.963,3h-7.094l-5.753,5.251
	C85.135,9.146,85.135,10.593,86.116,11.489z"/>
<path fill="#331E36" d="M103.676,11.489c0.489,0.446,1.131,0.671,1.774,0.671c0.642,0,1.285-0.225,1.774-0.671L116.523,3h-7.094
	l-5.753,5.251C102.696,9.146,102.696,10.593,103.676,11.489z"/>
<g>
	<g>
		<g>
			<path fill="#004E59" d="M113.188,22.628c0.402,0,0.728-0.326,0.728-0.728v-2.766c0-0.402-0.326-0.728-0.728-0.728
				c-0.803,0-1.456-0.653-1.456-1.456c0-0.402-0.326-0.728-0.728-0.728h-2.795c-0.402,0-0.728,0.326-0.728,0.728
				c0,0.802-0.653,1.456-1.456,1.456s-1.456-0.653-1.456-1.456c0-0.402-0.326-0.728-0.727-0.728h-2.795
				c-0.402,0-0.728,0.326-0.728,0.728c0,0.802-0.653,1.456-1.456,1.456s-1.456-0.653-1.456-1.456c0-0.402-0.326-0.728-0.728-0.728
				h-2.795c-0.402,0-0.727,0.326-0.727,0.728c0,0.802-0.653,1.456-1.456,1.456s-1.456-0.653-1.456-1.456
				c0-0.402-0.326-0.728-0.728-0.728h-2.795c-0.402,0-0.727,0.326-0.727,0.728c0,0.802-0.653,1.456-1.456,1.456
				s-1.456-0.653-1.456-1.456c0-0.402-0.326-0.728-0.728-0.728h-2.795c-0.402,0-0.728,0.326-0.728,0.728
				c0,0.802-0.652,1.456-1.455,1.456c-0.402,0-0.728,0.326-0.728,0.728V21.9c0,0.402,0.326,0.728,0.728,0.728
				c0.802,0,1.455,0.653,1.455,1.456s-0.652,1.456-1.455,1.456c-0.402,0-0.728,0.326-0.728,0.727v2.766
				c0,0.402,0.326,0.728,0.728,0.728c0.802,0,1.455,0.653,1.455,1.456c0,0.802-0.652,1.456-1.455,1.456
				c-0.402,0-0.728,0.326-0.728,0.728v2.766c0,0.402,0.326,0.728,0.728,0.728c0.802,0,1.455,0.652,1.455,1.456
				c0,0.802-0.652,1.456-1.455,1.456c-0.402,0-0.728,0.326-0.728,0.728v2.766c0,0.402,0.326,0.728,0.728,0.728
				c0.802,0,1.455,0.653,1.455,1.456c0,0.402,0.327,0.728,0.728,0.728h2.795c0.401,0,0.726-0.325,0.728-0.725
				c0.002-0.8,0.655-1.452,1.456-1.452c0.8,0,1.453,0.651,1.455,1.452c0.001,0.401,0.327,0.725,0.728,0.725h2.795
				c0.402,0,0.727-0.325,0.728-0.725c0.003-0.8,0.655-1.452,1.456-1.452c0.8,0,1.453,0.651,1.456,1.452
				c0.001,0.401,0.327,0.725,0.728,0.725h2.795c0.401,0,0.726-0.325,0.728-0.725c0.002-0.8,0.655-1.452,1.456-1.452
				s1.454,0.651,1.456,1.452c0.001,0.401,0.327,0.725,0.728,0.725h2.795c0.401,0,0.726-0.325,0.727-0.725
				c0.003-0.8,0.655-1.452,1.456-1.452c0.801,0,1.453,0.651,1.456,1.452c0.001,0.401,0.327,0.725,0.728,0.725h2.795
				c0.402,0,0.728-0.326,0.728-0.728c0-0.803,0.653-1.456,1.456-1.456c0.402,0,0.728-0.326,0.728-0.728v-2.766
				c0-0.402-0.326-0.727-0.728-0.727c-0.803,0-1.456-0.653-1.456-1.456s0.653-1.456,1.456-1.456c0.402,0,0.728-0.326,0.728-0.728
				v-2.766c0-0.402-0.326-0.728-0.728-0.728c-0.803,0-1.456-0.653-1.456-1.456c0-0.802,0.653-1.456,1.456-1.456
				c0.402,0,0.728-0.326,0.728-0.728v-2.765c0-0.402-0.326-0.728-0.728-0.728c-0.803,0-1.456-0.653-1.456-1.456
				C111.733,23.281,112.386,22.628,113.188,22.628z M112.46,26.903v1.494c-1.254,0.324-2.183,1.465-2.183,2.819
				s0.929,2.495,2.183,2.819v1.495c-1.254,0.324-2.183,1.465-2.183,2.819s0.929,2.495,2.183,2.819v1.494
				c-1.021,0.264-1.828,1.069-2.091,2.091h-1.525c-0.327-1.25-1.467-2.176-2.817-2.176c-1.349,0-2.49,0.926-2.816,2.176h-1.528
				c-0.326-1.25-1.467-2.176-2.816-2.176s-2.49,0.926-2.817,2.176h-1.527c-0.327-1.25-1.467-2.176-2.817-2.176
				c-1.35,0-2.491,0.926-2.817,2.176h-1.527c-0.327-1.25-1.467-2.176-2.817-2.176s-2.49,0.926-2.817,2.176h-1.526
				c-0.264-1.022-1.069-1.828-2.091-2.091v-1.494c1.254-0.324,2.183-1.465,2.183-2.819s-0.929-2.495-2.183-2.819v-1.495
				c1.254-0.324,2.183-1.464,2.183-2.819c0-1.354-0.929-2.495-2.183-2.819v-1.494c1.254-0.324,2.183-1.465,2.183-2.819
				c0-1.354-0.929-2.495-2.183-2.818V19.77c1.021-0.264,1.827-1.069,2.091-2.091h1.524c0.324,1.254,1.464,2.184,2.818,2.184
				c1.354,0,2.496-0.929,2.819-2.184h1.523c0.324,1.254,1.465,2.184,2.819,2.184s2.495-0.929,2.819-2.184h1.523
				c0.324,1.254,1.465,2.184,2.818,2.184c1.354,0,2.495-0.929,2.819-2.184h1.524c0.324,1.254,1.464,2.184,2.818,2.184
				s2.495-0.929,2.819-2.184h1.524c0.263,1.021,1.069,1.828,2.091,2.091v1.495c-1.254,0.324-2.183,1.464-2.183,2.818
				S111.206,26.579,112.46,26.903z"/>
			<path fill="#004E59" d="M108.094,21.317H82.476c-0.402,0-0.728,0.326-0.728,0.728v18.341c0,0.402,0.326,0.728,0.728,0.728h25.618
				c0.402,0,0.728-0.326,0.728-0.728v-18.34C108.822,21.644,108.496,21.317,108.094,21.317z M83.203,39.658v-3.429l7.314-5.995
				c0.286-0.234,0.807-0.234,1.092,0l11.499,9.424L83.203,39.658L83.203,39.658z M107.366,39.658L107.366,39.658h-1.961
				L92.533,29.109c-0.824-0.675-2.114-0.675-2.938,0l-6.392,5.238V22.773h24.163V39.658L107.366,39.658z"/>
			<path fill="#004E59" d="M101.744,27.111c-1.366,0-2.479,1.112-2.479,2.479s1.112,2.479,2.479,2.479
				c1.367,0,2.479-1.112,2.479-2.479S103.111,27.111,101.744,27.111z M101.744,30.613c-0.564,0-1.023-0.459-1.023-1.024
				s0.459-1.024,1.023-1.024c0.565,0,1.024,0.46,1.024,1.024C102.768,30.154,102.309,30.613,101.744,30.613z"/>
			<path fill="#004E59" d="M101.469,25.685h3.714c0.402,0,0.728-0.326,0.728-0.728c0-0.401-0.326-0.728-0.728-0.728h-3.714
				c-0.402,0-0.728,0.327-0.728,0.728C100.741,25.358,101.067,25.685,101.469,25.685z"/>
			<path fill="#004E59" d="M99.36,25.685h0.018c0.402,0,0.728-0.326,0.728-0.728c0-0.402-0.327-0.728-0.728-0.728H99.36
				c-0.402,0-0.728,0.326-0.728,0.728C98.632,25.358,98.958,25.685,99.36,25.685z"/>
			<path fill="#004E59" d="M89.328,36.593h-3.715c-0.402,0-0.728,0.326-0.728,0.728c0,0.401,0.326,0.728,0.728,0.728h3.715
				c0.402,0,0.728-0.326,0.728-0.728C90.055,36.918,89.729,36.593,89.328,36.593z"/>
			<path fill="#004E59" d="M91.418,36.593c-0.402,0-0.727,0.326-0.727,0.728s0.326,0.728,0.727,0.728h0.018
				c0.402,0,0.728-0.327,0.728-0.728s-0.326-0.728-0.728-0.728H91.418z"/>
		</g>
	</g>
</g>
<path fill="#7C1B22" d="M15.874,11.489c0.489,0.446,1.132,0.671,1.774,0.671c0.643,0,1.285-0.225,1.774-0.671L28.721,3h-7.095
	l-5.752,5.25C14.893,9.146,14.893,10.593,15.874,11.489z"/>
<path fill="#7C1B22" d="M50.995,11.489c0.489,0.446,1.132,0.671,1.774,0.671c0.643,0,1.285-0.225,1.774-0.671L63.842,3h-7.095
	l-5.752,5.25C50.014,9.146,50.014,10.593,50.995,11.489z"/>
<path fill="#7C1B22" d="M86.107,11.489c0.489,0.446,1.132,0.671,1.774,0.671c0.643,0,1.285-0.225,1.774-0.671L98.955,3H91.86
	l-5.752,5.25C85.127,9.146,85.127,10.593,86.107,11.489z"/>
<path fill="#004E59" d="M33.434,11.489c0.489,0.446,1.131,0.671,1.774,0.671c0.642,0,1.284-0.225,1.773-0.671L46.281,3h-7.095
	l-5.752,5.251C32.453,9.146,32.453,10.593,33.434,11.489z"/>
<path fill="#004E59" d="M68.556,11.489c0.489,0.446,1.131,0.671,1.774,0.671c0.642,0,1.284-0.225,1.773-0.671L81.403,3h-7.095
	l-5.752,5.251C67.575,9.146,67.575,10.593,68.556,11.489z"/>
<path fill="#004E59" d="M103.958,11.489c0.489,0.446,1.131,0.671,1.774,0.671c0.642,0,1.284-0.225,1.773-0.671l9.3-8.489h-7.095
	l-5.752,5.251C102.978,9.146,102.978,10.593,103.958,11.489z"/>
</svg>
