<?xml version="1.0" encoding="utf-8"?>
<!-- Generator: Adobe Illustrator 16.0.0, SVG Export Plug-In . SVG Version: 6.00 Build 0)  -->
<!DOCTYPE svg PUBLIC "-//W3C//DTD SVG 1.1//EN" "http://www.w3.org/Graphics/SVG/1.1/DTD/svg11.dtd">
<svg version="1.1" id="Capa_1" xmlns="http://www.w3.org/2000/svg" xmlns:xlink="http://www.w3.org/1999/xlink" x="0px" y="0px"
	 width="65.117px" height="65.116px" viewBox="173.19 23.39 65.117 65.116" enable-background="new 173.19 23.39 65.117 65.116"
	 xml:space="preserve">
<path fill="#FFFFFF" d="M288.274,3.001l-20.586,18.791c-1.083,0.988-2.505,1.485-3.926,1.485c-1.422,0-2.844-0.497-3.927-1.485
	c-2.172-1.982-2.172-5.186,0-7.168l12.734-11.623h-23.168l-20.585,18.791c-1.083,0.988-2.504,1.485-3.926,1.485
	s-2.844-0.497-3.927-1.485c-2.172-1.982-2.172-5.186,0-7.167l12.733-11.623h-23.167l-20.585,18.791
	c-1.083,0.988-2.505,1.485-3.926,1.485c-1.423,0-2.844-0.497-3.927-1.485c-2.171-1.982-2.171-5.186,0-7.168l12.733-11.623h-23.167
	l-20.585,18.791c-1.083,0.988-2.505,1.485-3.926,1.485c-1.423,0-2.844-0.497-3.927-1.485c-2.172-1.982-2.172-5.186,0-7.167
	l12.733-11.623h-23.168l-20.585,18.791c-1.083,0.988-2.505,1.485-3.927,1.485c-1.421,0-2.843-0.497-3.926-1.485
	c-2.172-1.982-2.172-5.187,0-7.168l12.733-11.623H93.911L73.325,21.794c-1.082,0.988-2.504,1.485-3.926,1.485
	s-2.844-0.497-3.926-1.485c-2.172-1.982-2.172-5.186,0-7.167L78.206,3.003H55.038L34.453,21.794
	c-1.083,0.989-2.505,1.485-3.927,1.485c-1.421,0-2.843-0.496-3.926-1.485c-2.171-1.981-2.171-5.186,0-7.167L39.333,3.004H16.17
	L-4.415,21.795c-1.083,0.988-2.505,1.485-3.927,1.485c-1.421,0-2.843-0.497-3.926-1.485c-2.171-1.982-2.171-5.186,0-7.168
	L0.465,3.005H-25v0.526v217.438h8.807l20.585-18.79c2.172-1.982,5.682-1.982,7.853,0c2.172,1.981,2.172,5.186,0,7.167
	l-12.733,11.623h23.167l20.585-18.79c2.172-1.982,5.681-1.982,7.853,0c2.171,1.981,2.171,5.186,0,7.167l-12.733,11.623h23.167
	l20.586-18.79c2.171-1.982,5.681-1.982,7.852,0c2.172,1.981,2.172,5.186,0,7.167l-12.733,11.623h23.168l20.585-18.79
	c2.172-1.982,5.682-1.982,7.853,0c2.172,1.981,2.172,5.186,0,7.167l-12.733,11.623h23.168l20.585-18.79
	c2.172-1.982,5.682-1.982,7.853,0c2.171,1.981,2.172,5.186,0,7.167l-12.733,11.623h23.167l20.586-18.79
	c2.172-1.982,5.681-1.982,7.853,0c2.171,1.981,2.171,5.186,0,7.167l-12.733,11.623h23.167l20.586-18.79
	c2.171-1.982,5.681-1.982,7.852,0c2.172,1.981,2.172,5.186,0,7.167l-12.733,11.623h23.167l20.586-18.79
	c2.172-1.982,5.682-1.982,7.853,0c2.171,1.981,2.171,5.186,0,7.167l-12.733,11.623h25.466V3.527V3L288.274,3.001L288.274,3.001z"/>
<path fill="#1C3144" d="M12.245,202.175c-2.172-1.982-5.682-1.982-7.853,0l-20.585,18.79h15.704l12.733-11.623
	C14.415,207.361,14.415,204.157,12.245,202.175z"/>
<path fill="#331E36" d="M51.117,202.175c-2.171-1.982-5.681-1.982-7.853,0l-20.585,18.79h15.704l12.733-11.623
	C53.288,207.361,53.288,204.157,51.117,202.175z"/>
<path fill="#1C3144" d="M89.989,202.175c-2.172-1.982-5.681-1.982-7.853,0l-20.585,18.79h15.704l12.733-11.623
	C92.16,207.361,92.16,204.157,89.989,202.175z"/>
<path fill="#331E36" d="M128.86,202.175c-2.171-1.982-5.682-1.982-7.853,0l-20.585,18.79h15.704l12.733-11.623
	C131.032,207.361,131.032,204.157,128.86,202.175z"/>
<path fill="#1C3144" d="M167.732,202.175c-2.171-1.982-5.681-1.982-7.853,0l-20.585,18.79h15.704l12.733-11.623
	C169.904,207.361,169.904,204.157,167.732,202.175z"/>
<path fill="#331E36" d="M206.604,202.175c-2.172-1.982-5.681-1.982-7.852,0l-20.586,18.79h15.704l12.733-11.623
	C208.775,207.361,208.775,204.157,206.604,202.175z"/>
<path fill="#1C3144" d="M245.475,202.175c-2.171-1.982-5.681-1.982-7.852,0l-20.586,18.79h15.705l12.732-11.623
	C247.647,207.361,247.647,204.157,245.475,202.175z"/>
<path fill="#331E36" d="M284.347,202.175c-2.171-1.982-5.681-1.982-7.852,0l-20.586,18.79h15.704l12.733-11.623
	C286.519,207.361,286.519,204.157,284.347,202.175z"/>
<path fill="#1C3144" d="M-12.267,21.791c1.083,0.988,2.505,1.485,3.926,1.485c1.422,0,2.844-0.497,3.927-1.485l20.585-18.79H0.466
	l-12.733,11.623C-14.438,16.605-14.438,19.808-12.267,21.791z"/>
<path fill="#331E36" d="M26.605,21.791c1.083,0.988,2.505,1.485,3.927,1.485c1.421,0,2.843-0.497,3.926-1.485L55.044,3H39.339
	L26.605,14.623C24.434,16.605,24.434,19.808,26.605,21.791z"/>
<path fill="#1C3144" d="M65.477,21.791c1.083,0.988,2.505,1.485,3.926,1.485c1.422,0,2.843-0.497,3.927-1.485L93.915,3H78.211
	L65.477,14.623C63.306,16.605,63.306,19.808,65.477,21.791z"/>
<path fill="#331E36" d="M104.349,21.791c1.082,0.988,2.504,1.485,3.926,1.485s2.844-0.497,3.927-1.485L132.787,3h-15.704
	l-12.734,11.623C102.177,16.605,102.177,19.808,104.349,21.791z"/>
<path fill="#1C3144" d="M143.22,21.791c1.083,0.988,2.505,1.485,3.927,1.485s2.844-0.497,3.926-1.485L171.659,3h-15.704
	l-12.734,11.623C141.049,16.605,141.049,19.808,143.22,21.791z"/>
<path fill="#331E36" d="M182.092,21.791c1.083,0.988,2.505,1.485,3.927,1.485c1.421,0,2.843-0.497,3.926-1.485L210.531,3h-15.704
	l-12.735,11.623C179.921,16.605,179.921,19.808,182.092,21.791z"/>
<path fill="#1C3144" d="M220.964,21.791c1.083,0.988,2.505,1.485,3.926,1.485c1.422,0,2.844-0.497,3.927-1.485L249.402,3h-15.704
	l-12.734,11.623C218.792,16.605,218.792,19.808,220.964,21.791z"/>
<path fill="#331E36" d="M259.836,21.791c1.082,0.988,2.504,1.485,3.926,1.485c1.422,0,2.844-0.497,3.927-1.485L288.274,3H272.57
	l-12.734,11.623C257.665,16.605,257.665,19.808,259.836,21.791z"/>
<g>
	<g>
		<g>
			<path fill="#1C3144" d="M280.892,46.448c0.89,0,1.61-0.722,1.61-1.61v-6.123c0-0.89-0.721-1.611-1.61-1.611
				c-1.777,0-3.222-1.445-3.222-3.222c0-0.89-0.722-1.61-1.611-1.61h-6.187c-0.89,0-1.611,0.721-1.611,1.61
				c0,1.776-1.445,3.222-3.222,3.222s-3.222-1.445-3.222-3.222c0-0.89-0.722-1.61-1.61-1.61h-6.187c-0.891,0-1.611,0.721-1.611,1.61
				c0,1.776-1.445,3.222-3.222,3.222s-3.223-1.445-3.223-3.222c0-0.89-0.721-1.61-1.61-1.61h-6.187c-0.89,0-1.61,0.721-1.61,1.61
				c0,1.776-1.446,3.222-3.223,3.222c-1.777,0-3.222-1.445-3.222-3.222c0-0.89-0.722-1.61-1.611-1.61h-6.187
				c-0.89,0-1.61,0.721-1.61,1.61c0,1.776-1.445,3.222-3.222,3.222c-1.777,0-3.223-1.445-3.223-3.222c0-0.89-0.721-1.61-1.61-1.61
				h-6.187c-0.89,0-1.611,0.721-1.611,1.61c0,1.776-1.445,3.222-3.222,3.222c-0.89,0-1.611,0.722-1.611,1.611v6.123
				c0,0.889,0.722,1.61,1.611,1.61c1.776,0,3.222,1.445,3.222,3.222s-1.445,3.223-3.222,3.223c-0.89,0-1.611,0.721-1.611,1.61v6.122
				c0,0.89,0.722,1.61,1.611,1.61c1.776,0,3.222,1.445,3.222,3.223c0,1.776-1.445,3.222-3.222,3.222
				c-0.89,0-1.611,0.722-1.611,1.611v6.122c0,0.89,0.722,1.611,1.611,1.611c1.776,0,3.222,1.444,3.222,3.222
				c0,1.776-1.445,3.222-3.222,3.222c-0.89,0-1.611,0.722-1.611,1.611v6.122c0,0.89,0.722,1.61,1.611,1.61
				c1.776,0,3.222,1.445,3.222,3.223c0,0.89,0.722,1.611,1.611,1.611h6.187c0.888,0,1.607-0.719,1.61-1.606
				c0.006-1.771,1.451-3.213,3.223-3.213c1.771,0,3.217,1.441,3.221,3.213c0.004,0.888,0.724,1.606,1.611,1.606h6.187
				c0.889,0,1.609-0.719,1.611-1.606c0.006-1.771,1.45-3.213,3.222-3.213s3.217,1.441,3.222,3.213
				c0.003,0.888,0.724,1.606,1.611,1.606h6.188c0.888,0,1.607-0.719,1.61-1.606c0.005-1.771,1.45-3.213,3.222-3.213
				s3.217,1.441,3.222,3.213c0.003,0.888,0.724,1.606,1.611,1.606h6.187c0.888,0,1.607-0.719,1.61-1.606
				c0.006-1.771,1.45-3.213,3.222-3.213s3.217,1.441,3.222,3.213c0.003,0.888,0.724,1.606,1.611,1.606h6.187
				c0.89,0,1.611-0.722,1.611-1.611c0-1.777,1.444-3.223,3.222-3.223c0.89,0,1.61-0.721,1.61-1.61v-6.122
				c0-0.89-0.721-1.61-1.61-1.61c-1.777-0.001-3.222-1.445-3.222-3.223c0-1.778,1.444-3.222,3.222-3.222
				c0.89,0,1.61-0.721,1.61-1.611v-6.122c0-0.889-0.721-1.61-1.61-1.61c-1.777,0-3.222-1.445-3.222-3.223
				c0-1.776,1.444-3.222,3.222-3.222c0.89,0,1.61-0.721,1.61-1.611v-6.121c0-0.89-0.721-1.611-1.61-1.611
				c-1.777,0-3.222-1.445-3.222-3.222C277.67,47.893,279.115,46.448,280.892,46.448z M279.28,55.911v3.307
				c-2.775,0.717-4.832,3.243-4.832,6.24s2.057,5.522,4.832,6.24v3.308c-2.775,0.717-4.832,3.243-4.832,6.24
				c0,2.997,2.057,5.523,4.832,6.24v3.307c-2.261,0.584-4.045,2.368-4.629,4.63h-3.376c-0.724-2.769-3.248-4.818-6.236-4.818
				c-2.987,0-5.512,2.05-6.235,4.818h-3.381c-0.723-2.769-3.248-4.818-6.235-4.818c-2.988,0-5.513,2.05-6.236,4.818h-3.38
				c-0.724-2.769-3.248-4.818-6.236-4.818c-2.988,0-5.513,2.05-6.235,4.818h-3.381c-0.723-2.769-3.248-4.818-6.235-4.818
				c-2.988,0-5.513,2.05-6.236,4.818h-3.377c-0.584-2.262-2.367-4.046-4.629-4.63v-3.307c2.776-0.717,4.833-3.243,4.833-6.24
				c0-2.997-2.057-5.523-4.833-6.24v-3.308c2.776-0.717,4.833-3.242,4.833-6.24c0-2.997-2.057-5.522-4.833-6.24v-3.307
				c2.776-0.718,4.833-3.243,4.833-6.241c0-2.997-2.057-5.522-4.833-6.239v-3.309c2.261-0.584,4.045-2.367,4.629-4.629h3.373
				c0.717,2.776,3.242,4.833,6.239,4.833c2.998,0,5.523-2.057,6.24-4.833h3.372c0.718,2.776,3.243,4.833,6.24,4.833
				c2.998,0,5.523-2.057,6.24-4.833h3.372c0.717,2.776,3.243,4.833,6.239,4.833c2.997,0,5.523-2.057,6.24-4.833h3.373
				c0.717,2.776,3.242,4.833,6.239,4.833s5.523-2.057,6.24-4.833h3.373c0.583,2.261,2.367,4.045,4.629,4.629v3.309
				c-2.776,0.717-4.833,3.242-4.833,6.239S276.504,55.193,279.28,55.911z"/>
			<path fill="#1C3144" d="M269.615,43.547h-56.708c-0.891,0-1.611,0.722-1.611,1.611v40.599c0,0.89,0.721,1.61,1.611,1.61h56.708
				c0.89,0,1.61-0.721,1.61-1.61V45.159C271.225,44.269,270.504,43.547,269.615,43.547z M214.517,84.146v-7.591l16.191-13.271
				c0.633-0.518,1.785-0.518,2.418,0l25.453,20.86L214.517,84.146L214.517,84.146z M268.003,84.146L268.003,84.146h-4.341
				l-28.494-23.352c-1.823-1.495-4.68-1.495-6.503,0l-14.148,11.595V46.77h53.486V84.146L268.003,84.146z"/>
			<path fill="#1C3144" d="M255.559,56.371c-3.025,0-5.487,2.462-5.487,5.487s2.462,5.487,5.487,5.487s5.487-2.462,5.487-5.487
				S258.584,56.371,255.559,56.371z M255.559,64.124c-1.249,0-2.266-1.017-2.266-2.266c0-1.25,1.017-2.266,2.266-2.266
				c1.25,0,2.266,1.017,2.266,2.266S256.808,64.124,255.559,64.124z"/>
			<path fill="#1C3144" d="M254.949,53.214h8.222c0.891,0,1.611-0.722,1.611-1.611c0-0.889-0.721-1.611-1.611-1.611h-8.222
				c-0.89,0-1.611,0.722-1.611,1.611C253.338,52.492,254.059,53.214,254.949,53.214z"/>
			<path fill="#1C3144" d="M250.282,53.214h0.039c0.889,0,1.611-0.721,1.611-1.61c0-0.891-0.723-1.611-1.611-1.611h-0.039
				c-0.89,0-1.61,0.721-1.61,1.611C248.671,52.493,249.392,53.214,250.282,53.214z"/>
			<path fill="#1C3144" d="M228.073,77.36h-8.223c-0.889,0-1.61,0.721-1.61,1.611c0,0.889,0.722,1.61,1.61,1.61h8.223
				c0.89,0,1.611-0.722,1.611-1.61C229.684,78.081,228.962,77.36,228.073,77.36z"/>
			<path fill="#1C3144" d="M232.701,77.36c-0.89,0-1.61,0.722-1.61,1.611c0,0.889,0.721,1.611,1.61,1.611h0.039
				c0.89,0,1.61-0.722,1.61-1.611c0-0.889-0.721-1.611-1.61-1.611H232.701z"/>
		</g>
	</g>
</g>
<g>
	<g>
		<path fill="#F7BA35" d="M205.748,88.506c-8.697,0-16.873-3.387-23.022-9.536s-9.536-14.325-9.536-23.021
			c0-8.697,3.387-16.873,9.536-23.022s14.325-9.536,23.022-9.536c8.696,0,16.872,3.387,23.021,9.536s9.536,14.325,9.536,23.022
			c0,8.696-3.387,16.872-9.536,23.021C222.622,85.12,214.445,88.506,205.748,88.506z M205.748,27.206
			c-7.678,0-14.896,2.989-20.325,8.418c-5.429,5.43-8.418,12.647-8.418,20.325c0,7.677,2.989,14.896,8.418,20.324
			c5.43,5.429,12.647,8.418,20.325,8.418c7.677,0,14.896-2.989,20.324-8.418c5.428-5.429,8.418-12.647,8.418-20.324
			c0-7.678-2.989-14.896-8.418-20.325C220.644,30.195,213.425,27.206,205.748,27.206z"/>
		<path fill="#F7BA35" d="M188.364,43.317l-3.768-3.236l1.395-1.623c0.634-0.737,1.753-0.699,2.395-0.146
			c0.669,0.574,0.878,1.62,0.239,2.362l-0.528,0.615l1.156,0.994L188.364,43.317z M187.194,40.513l0.47-0.546
			c0.109-0.128,0.122-0.347-0.181-0.606c-0.312-0.269-0.539-0.188-0.648-0.061l-0.446,0.52L187.194,40.513z"/>
		<path fill="#F7BA35" d="M189.331,38.409c-0.801-1.044-0.724-2.601,0.381-3.447c1.133-0.868,2.646-0.434,3.416,0.572
			c0.791,1.032,0.735,2.592-0.376,3.442C191.625,39.839,190.108,39.424,189.331,38.409z M192.028,38.007
			c0.55-0.421,0.38-1.137-0.016-1.654c-0.408-0.532-1.049-0.826-1.581-0.418c-0.544,0.417-0.389,1.126,0.007,1.642
			C190.842,38.104,191.489,38.42,192.028,38.007z"/>
		<path fill="#F7BA35" d="M196.192,33.065c0,0-0.846-0.099-1.382,0.159c-0.214,0.103-0.329,0.236-0.254,0.394
			c0.112,0.233,0.452,0.133,1.048,0.048c0.949-0.138,1.612-0.099,2.015,0.739c0.518,1.078-0.186,1.843-1.019,2.242
			c-0.649,0.312-1.513,0.47-2.199,0.412l0.012-1.332c0,0,0.986,0.132,1.674-0.198c0.266-0.128,0.323-0.249,0.266-0.368
			c-0.124-0.259-0.612-0.095-1.235-0.021c-0.915,0.114-1.423-0.054-1.737-0.709c-0.475-0.99,0.062-1.893,0.944-2.315
			c0.649-0.312,1.409-0.328,1.91-0.32L196.192,33.065z"/>
		<path fill="#F7BA35" d="M201.436,31.032l-1.379,0.359l0.949,3.655l-1.319,0.344l-0.951-3.655l-1.388,0.36l-0.299-1.15l4.088-1.062
			L201.436,31.032z"/>
		<path fill="#F7BA35" d="M203.709,32.004c0.021-1.314,1.048-2.488,2.438-2.465c1.428,0.023,2.345,1.303,2.324,2.569
			c-0.021,1.301-1.034,2.488-2.433,2.466C204.62,34.552,203.689,33.285,203.709,32.004z M206.074,33.366
			c0.692,0.011,1.004-0.656,1.015-1.307c0.01-0.671-0.309-1.299-0.98-1.31c-0.686-0.011-1.003,0.642-1.014,1.292
			C205.083,32.706,205.395,33.354,206.074,33.366z"/>
		<path fill="#F7BA35" d="M208.79,34.691l1.047-4.854l3.33,0.719l-0.251,1.161l-1.997-0.431l-0.173,0.807l1.627,0.352l-0.233,1.079
			l-1.627-0.351l-0.389,1.805L208.79,34.691z"/>
		<path fill="#F7BA35" d="M212.402,35.528l1.872-4.601l3.156,1.284l-0.449,1.103l-1.892-0.771l-0.311,0.765l1.542,0.628
			l-0.417,1.023l-1.542-0.627l-0.696,1.711L212.402,35.528z"/>
		<path fill="#F7BA35" d="M215.831,37.037l2.479-4.303l1.182,0.681l-2.479,4.303L215.831,37.037z"/>
		<path fill="#F7BA35" d="M222.398,35.444c0.689,0.55,0.966,1.324,0.807,2.029l-1.277-0.069c0.175-0.478-0.064-0.839-0.306-1.031
			c-0.536-0.427-1.193-0.083-1.582,0.403c-0.432,0.541-0.529,1.26-0.037,1.651c0.246,0.196,0.653,0.314,1.041,0.052l0.456,1.213
			c-0.677,0.4-1.655,0.157-2.273-0.335c-1.083-0.863-1.037-2.481-0.244-3.478C219.737,34.934,221.216,34.504,222.398,35.444z"/>
		<path fill="#F7BA35" d="M224.182,42.725l-0.906,0.771l-2.296-2.694l3.781-3.222l2.255,2.646l-0.905,0.771l-1.37-1.607
			l-0.532,0.453l1.17,1.374l-0.841,0.718l-1.171-1.374l-0.596,0.508L224.182,42.725z"/>
		<path fill="#F7BA35" d="M223.132,68.58l3.768,3.236l-1.395,1.623c-0.634,0.737-1.753,0.698-2.396,0.146
			c-0.668-0.575-0.876-1.62-0.238-2.362l0.528-0.616l-1.156-0.993L223.132,68.58z M224.302,71.382l-0.469,0.546
			c-0.109,0.128-0.123,0.347,0.18,0.607c0.313,0.269,0.54,0.188,0.649,0.061l0.447-0.521L224.302,71.382z"/>
		<path fill="#F7BA35" d="M222.166,73.488c0.8,1.044,0.723,2.6-0.382,3.447c-1.133,0.868-2.646,0.433-3.416-0.572
			c-0.791-1.033-0.734-2.592,0.376-3.442C219.872,72.056,221.388,72.472,222.166,73.488z M219.469,73.889
			c-0.55,0.421-0.381,1.137,0.016,1.653c0.408,0.533,1.048,0.827,1.581,0.419c0.543-0.417,0.388-1.126-0.008-1.642
			C220.655,73.792,220.007,73.477,219.469,73.889z"/>
		<path fill="#F7BA35" d="M215.304,78.832c0,0,0.846,0.098,1.382-0.159c0.215-0.103,0.329-0.235,0.254-0.393
			c-0.112-0.234-0.451-0.133-1.047-0.049c-0.95,0.139-1.613,0.1-2.016-0.738c-0.518-1.079,0.187-1.844,1.019-2.243
			c0.649-0.312,1.513-0.47,2.2-0.412l-0.013,1.332c0,0-0.986-0.131-1.674,0.199c-0.265,0.127-0.323,0.248-0.265,0.368
			c0.123,0.258,0.611,0.094,1.234,0.02c0.915-0.114,1.423,0.054,1.737,0.71c0.476,0.989-0.062,1.891-0.944,2.314
			c-0.649,0.312-1.409,0.328-1.91,0.32L215.304,78.832z"/>
		<path fill="#F7BA35" d="M210.058,80.865l1.381-0.359l-0.95-3.655l1.321-0.344l0.949,3.656l1.388-0.361l0.3,1.151l-4.089,1.063
			L210.058,80.865z"/>
		<path fill="#F7BA35" d="M207.787,79.891c-0.021,1.315-1.047,2.488-2.439,2.466c-1.427-0.023-2.344-1.304-2.323-2.57
			c0.021-1.301,1.033-2.488,2.433-2.466C206.876,77.344,207.807,78.611,207.787,79.891z M205.423,78.531
			c-0.692-0.01-1.004,0.656-1.015,1.306c-0.011,0.672,0.308,1.3,0.979,1.311c0.686,0.011,1.004-0.642,1.015-1.292
			C206.413,79.191,206.101,78.542,205.423,78.531z"/>
		<path fill="#F7BA35" d="M202.706,77.207l-1.047,4.854l-3.33-0.719l0.251-1.161l1.996,0.431l0.175-0.807l-1.627-0.353l0.232-1.08
			l1.627,0.351l0.39-1.805L202.706,77.207z"/>
		<path fill="#F7BA35" d="M199.095,76.37l-1.872,4.6l-3.156-1.284l0.448-1.102l1.893,0.771l0.311-0.765l-1.542-0.628l0.416-1.024
			l1.543,0.628l0.696-1.71L199.095,76.37z"/>
		<path fill="#F7BA35" d="M195.665,74.86l-2.479,4.303l-1.182-0.681l2.479-4.303L195.665,74.86z"/>
		<path fill="#F7BA35" d="M189.099,76.452c-0.69-0.549-0.967-1.324-0.808-2.028l1.277,0.069c-0.176,0.478,0.064,0.839,0.305,1.03
			c0.537,0.428,1.195,0.084,1.583-0.403c0.432-0.541,0.529-1.259,0.037-1.651c-0.246-0.196-0.652-0.314-1.041-0.052l-0.456-1.213
			c0.677-0.399,1.655-0.157,2.272,0.336c1.084,0.862,1.038,2.48,0.244,3.477C191.759,76.962,190.28,77.393,189.099,76.452z"/>
		<path fill="#F7BA35" d="M187.315,69.171l0.905-0.771l2.296,2.695l-3.781,3.221l-2.254-2.646l0.904-0.771l1.37,1.608l0.533-0.453
			l-1.171-1.374l0.842-0.718l1.17,1.375l0.597-0.509L187.315,69.171z"/>
	</g>
	<g>
		<path fill="#FD9702" d="M181.811,58.752c0-1.661,0.198-2.42,1.57-3.069c0.75-0.353,1.399-0.668,1.399-1.327
			c0-0.434-0.28-0.569-0.587-0.569c-0.47,0-0.984,0.316-1.327,0.65l-1.056-1.146c0.479-0.542,1.453-1.021,2.627-1.021
			c1.463,0,2.302,0.741,2.302,2.059c0,0.993-0.47,1.444-1.272,1.914c-0.515,0.298-1.102,0.587-1.102,0.976h2.384v1.534
			L181.811,58.752L181.811,58.752z"/>
		<path fill="#FD9702" d="M191.949,57.216v1.535h-4.179v-1.535h1.281v-3.268c-0.198,0.28-1.002,0.776-1.489,0.776v-1.57
			c0.65,0,1.472-0.822,1.489-0.858h1.752v4.92H191.949L191.949,57.216z"/>
		<path fill="#FD9702" d="M192.599,58.752v-1.661h1.391v1.661H192.599z"/>
		<path fill="#FD9702" d="M199.207,57.216v1.535h-4.18v-1.535h1.282v-3.268c-0.199,0.28-1.002,0.776-1.49,0.776v-1.57
			c0.65,0,1.472-0.822,1.49-0.858h1.751v4.92H199.207L199.207,57.216z"/>
		<path fill="#FD9702" d="M199.748,58.752c0-1.661,0.199-2.42,1.571-3.069c0.749-0.353,1.399-0.668,1.399-1.327
			c0-0.434-0.28-0.569-0.587-0.569c-0.47,0-0.984,0.316-1.327,0.65l-1.057-1.146c0.479-0.542,1.454-1.021,2.628-1.021
			c1.463,0,2.302,0.741,2.302,2.059c0,0.993-0.47,1.444-1.272,1.914c-0.515,0.298-1.103,0.587-1.103,0.976h2.384v1.534
			L199.748,58.752L199.748,58.752L199.748,58.752z"/>
		<path fill="#FD9702" d="M205.572,58.752v-1.661h1.391v1.661H205.572z"/>
		<path fill="#FD9702" d="M207.756,58.752c0-1.661,0.199-2.42,1.572-3.069c0.749-0.353,1.397-0.668,1.397-1.327
			c0-0.434-0.278-0.569-0.586-0.569c-0.47,0-0.984,0.316-1.327,0.65l-1.057-1.146c0.479-0.542,1.454-1.021,2.628-1.021
			c1.463,0,2.302,0.741,2.302,2.059c0,0.993-0.47,1.444-1.273,1.914c-0.515,0.298-1.102,0.587-1.102,0.976h2.385v1.534
			L207.756,58.752L207.756,58.752z"/>
		<path fill="#FD9702" d="M213.445,55.591c0-1.543,1.109-3.25,2.906-3.25c1.914,0,2.907,1.851,2.907,3.25
			c0,1.562-1.11,3.25-2.907,3.25C214.438,58.841,213.445,57.036,213.445,55.591z M216.351,57.28c0.831,0,1.119-0.975,1.119-1.688
			c0-0.785-0.333-1.688-1.119-1.688c-0.83,0-1.119,0.976-1.119,1.688C215.232,56.378,215.547,57.28,216.351,57.28z"/>
		<path fill="#FD9702" d="M224.341,57.216v1.535h-4.18v-1.535h1.282v-3.268c-0.199,0.28-1.002,0.776-1.49,0.776v-1.57
			c0.649,0,1.472-0.822,1.49-0.858h1.751v4.92H224.341L224.341,57.216z"/>
		<path fill="#FD9702" d="M227.302,58.841c-1.535,0-2.41-1.164-2.41-3.159c0-2.113,0.975-3.395,2.581-3.395
			c0.776,0,1.472,0.298,2.041,0.866l-0.948,1.102c-0.316-0.315-0.713-0.488-1.12-0.488c-0.587,0-0.948,0.38-0.975,1.021
			c0.234-0.207,0.551-0.307,0.975-0.307c1.291,0,2.257,0.902,2.257,2.104C229.704,57.848,228.674,58.841,227.302,58.841z
			 M228.07,56.585c0-0.424-0.344-0.758-0.768-0.758c-0.425,0-0.768,0.334-0.768,0.758c0,0.442,0.361,0.822,0.768,0.822
			C227.709,57.407,228.07,57.027,228.07,56.585z"/>
		<path fill="#FD9702" d="M219.439,48.771c-2.683-5.106-7.929-8.279-13.69-8.279c-5.763,0-11.008,3.173-13.691,8.279l-3.378-1.775
			c3.345-6.365,9.885-10.319,17.069-10.319s13.724,3.954,17.068,10.319L219.439,48.771z"/>
		<path fill="#FD9702" d="M205.748,75.219c-7.184,0-13.725-3.954-17.069-10.319l3.378-1.774c2.684,5.106,7.929,8.278,13.691,8.278
			s11.008-3.172,13.69-8.278l3.378,1.774C219.472,71.265,212.932,75.219,205.748,75.219z"/>
		<path fill="#FD9702" d="M228.77,32.925c-6.148-6.148-14.325-9.535-23.021-9.535v3.815c7.678,0,14.896,2.989,20.324,8.418
			c5.429,5.43,8.419,12.647,8.419,20.325c0,7.677-2.989,14.896-8.419,20.324c-5.429,5.429-12.646,8.418-20.324,8.418v3.815
			c8.696,0,16.873-3.387,23.021-9.535c6.149-6.149,9.537-14.326,9.537-23.022C238.307,47.252,234.919,39.076,228.77,32.925z"/>
	</g>
	<g>
		<path fill="#BA7400" d="M219.439,48.771l3.378-1.775c-3.345-6.365-9.885-10.319-17.068-10.319v3.815
			C211.51,40.492,216.756,43.665,219.439,48.771z"/>
		<path fill="#BA7400" d="M222.817,64.9l-3.378-1.774c-2.683,5.106-7.929,8.279-13.69,8.279v3.814
			C212.932,75.219,219.472,71.265,222.817,64.9z"/>
	</g>
</g>
</svg>
